ISO-10303-21;
HEADER;
/* Generated by software containing ST-Developer
 * from STEP Tools, Inc. (www.steptools.com) 
 */

FILE_DESCRIPTION(
/* description */ (''),
/* implementation_level */ '2;1');

FILE_NAME(
/* name */ 'TopCover.step',
/* time_stamp */ '2026-08-13T21:13:42+02:00',
/* author */ (''),
/* organization */ (''),
/* preprocessor_version */ 'ST-DEVELOPER v20.1',
/* originating_system */ 'Autodesk Translation Framework v15.8.0.0',
/* authorisation */ '');

FILE_SCHEMA (('AUTOMOTIVE_DESIGN { 1 0 10303 214 3 1 1 }'));
ENDSEC;

DATA;
#10=MECHANICAL_DESIGN_GEOMETRIC_PRESENTATION_REPRESENTATION('',(#13),#1419);
#11=SHAPE_REPRESENTATION_RELATIONSHIP('SRR','None',#1426,#12);
#12=ADVANCED_BREP_SHAPE_REPRESENTATION('',(#14),#1418);
#13=STYLED_ITEM('',(#1435),#14);
#14=MANIFOLD_SOLID_BREP('Body1',#791);
#15=CIRCLE('',#822,35.);
#16=CIRCLE('',#823,35.);
#17=CIRCLE('',#825,4.99999999999999);
#18=CIRCLE('',#826,4.99999999999999);
#19=CIRCLE('',#828,25.);
#20=CIRCLE('',#829,25.);
#21=CIRCLE('',#831,4.99999999999999);
#22=CIRCLE('',#832,4.99999999999999);
#23=CIRCLE('',#835,35.);
#24=CIRCLE('',#836,35.);
#25=CIRCLE('',#838,5.);
#26=CIRCLE('',#839,5.);
#27=CIRCLE('',#841,25.);
#28=CIRCLE('',#842,25.);
#29=CIRCLE('',#844,5.);
#30=CIRCLE('',#845,5.);
#31=CIRCLE('',#854,30.);
#32=CIRCLE('',#855,30.);
#33=CIRCLE('',#858,29.9999999999998);
#34=CIRCLE('',#859,29.9999999999998);
#35=CYLINDRICAL_SURFACE('',#821,35.);
#36=CYLINDRICAL_SURFACE('',#824,4.99999999999999);
#37=CYLINDRICAL_SURFACE('',#827,25.);
#38=CYLINDRICAL_SURFACE('',#830,4.99999999999999);
#39=CYLINDRICAL_SURFACE('',#834,35.);
#40=CYLINDRICAL_SURFACE('',#837,5.);
#41=CYLINDRICAL_SURFACE('',#840,25.);
#42=CYLINDRICAL_SURFACE('',#843,5.);
#43=CYLINDRICAL_SURFACE('',#853,30.);
#44=CYLINDRICAL_SURFACE('',#857,29.9999999999998);
#45=FACE_BOUND('',#116,.T.);
#46=FACE_BOUND('',#117,.T.);
#47=FACE_BOUND('',#118,.T.);
#48=FACE_BOUND('',#140,.T.);
#49=FACE_BOUND('',#141,.T.);
#50=FACE_BOUND('',#142,.T.);
#51=(
BOUNDED_CURVE()
B_SPLINE_CURVE(5,(#1170,#1171,#1172,#1173,#1174,#1175,#1176,#1177,#1178,
#1179,#1180,#1181,#1182,#1183,#1184),.UNSPECIFIED.,.F.,.F.)
B_SPLINE_CURVE_WITH_KNOTS((6,1,1,1,1,1,1,1,1,1,6),(-1.,-0.9,-0.8,-0.7,-0.6,
-0.5,-0.4,-0.3,-0.2,-0.1,0.),.UNSPECIFIED.)
CURVE()
GEOMETRIC_REPRESENTATION_ITEM()
RATIONAL_B_SPLINE_CURVE((1.,1.,1.,1.,1.,1.,1.,1.,1.,1.,1.,1.,1.,1.,1.))
REPRESENTATION_ITEM('')
);
#52=(
BOUNDED_CURVE()
B_SPLINE_CURVE(5,(#1188,#1189,#1190,#1191,#1192,#1193,#1194,#1195,#1196,
#1197,#1198,#1199,#1200,#1201,#1202),.UNSPECIFIED.,.F.,.F.)
B_SPLINE_CURVE_WITH_KNOTS((6,1,1,1,1,1,1,1,1,1,6),(-1.,-0.9,-0.8,-0.7,-0.6,
-0.5,-0.4,-0.3,-0.2,-0.1,0.),.UNSPECIFIED.)
CURVE()
GEOMETRIC_REPRESENTATION_ITEM()
RATIONAL_B_SPLINE_CURVE((1.,1.,1.,1.,1.,1.,1.,1.,1.,1.,1.,1.,1.,1.,1.))
REPRESENTATION_ITEM('')
);
#53=(
BOUNDED_CURVE()
B_SPLINE_CURVE(5,(#1246,#1247,#1248,#1249,#1250,#1251,#1252,#1253,#1254,
#1255,#1256,#1257,#1258,#1259,#1260),.UNSPECIFIED.,.F.,.F.)
B_SPLINE_CURVE_WITH_KNOTS((6,1,1,1,1,1,1,1,1,1,6),(0.,0.1,0.2,0.3,0.4,0.5,
0.6,0.7,0.8,0.9,1.),.UNSPECIFIED.)
CURVE()
GEOMETRIC_REPRESENTATION_ITEM()
RATIONAL_B_SPLINE_CURVE((1.,1.,1.,1.,1.,1.,1.,1.,1.,1.,1.,1.,1.,1.,1.))
REPRESENTATION_ITEM('')
);
#54=(
BOUNDED_CURVE()
B_SPLINE_CURVE(5,(#1261,#1262,#1263,#1264,#1265,#1266,#1267,#1268,#1269,
#1270,#1271,#1272,#1273,#1274,#1275),.UNSPECIFIED.,.F.,.F.)
B_SPLINE_CURVE_WITH_KNOTS((6,1,1,1,1,1,1,1,1,1,6),(0.,0.1,0.2,0.3,0.4,0.5,
0.6,0.7,0.8,0.9,1.),.UNSPECIFIED.)
CURVE()
GEOMETRIC_REPRESENTATION_ITEM()
RATIONAL_B_SPLINE_CURVE((1.,1.,1.,1.,1.,1.,1.,1.,1.,1.,1.,1.,1.,1.,1.))
REPRESENTATION_ITEM('')
);
#55=(
BOUNDED_SURFACE()
B_SPLINE_SURFACE(5,1,((#1138,#1139),(#1140,#1141),(#1142,#1143),(#1144,
#1145),(#1146,#1147),(#1148,#1149),(#1150,#1151),(#1152,#1153),(#1154,#1155),
(#1156,#1157),(#1158,#1159),(#1160,#1161),(#1162,#1163),(#1164,#1165),(#1166,
#1167)),.UNSPECIFIED.,.F.,.F.,.F.)
B_SPLINE_SURFACE_WITH_KNOTS((6,1,1,1,1,1,1,1,1,1,6),(2,2),(-1.,-0.9,-0.8,
-0.7,-0.6,-0.5,-0.4,-0.3,-0.2,-0.1,0.),(0.,0.0499999999999972),
 .UNSPECIFIED.)
GEOMETRIC_REPRESENTATION_ITEM()
RATIONAL_B_SPLINE_SURFACE(((1.,1.),(1.,1.),(1.,1.),(1.,1.),(1.,1.),(1.,
1.),(1.,1.),(1.,1.),(1.,1.),(1.,1.),(1.,1.),(1.,1.),(1.,1.),(1.,1.),(1.,
1.)))
REPRESENTATION_ITEM('')
SURFACE()
);
#56=(
BOUNDED_SURFACE()
B_SPLINE_SURFACE(5,1,((#1216,#1217),(#1218,#1219),(#1220,#1221),(#1222,
#1223),(#1224,#1225),(#1226,#1227),(#1228,#1229),(#1230,#1231),(#1232,#1233),
(#1234,#1235),(#1236,#1237),(#1238,#1239),(#1240,#1241),(#1242,#1243),(#1244,
#1245)),.UNSPECIFIED.,.F.,.F.,.F.)
B_SPLINE_SURFACE_WITH_KNOTS((6,1,1,1,1,1,1,1,1,1,6),(2,2),(0.,0.1,0.2,0.3,
0.4,0.5,0.6,0.7,0.8,0.9,1.),(0.,0.0499999999999972),.UNSPECIFIED.)
GEOMETRIC_REPRESENTATION_ITEM()
RATIONAL_B_SPLINE_SURFACE(((1.,1.),(1.,1.),(1.,1.),(1.,1.),(1.,1.),(1.,
1.),(1.,1.),(1.,1.),(1.,1.),(1.,1.),(1.,1.),(1.,1.),(1.,1.),(1.,1.),(1.,
1.)))
REPRESENTATION_ITEM('')
SURFACE()
);
#57=FACE_OUTER_BOUND('',#101,.T.);
#58=FACE_OUTER_BOUND('',#102,.T.);
#59=FACE_OUTER_BOUND('',#103,.T.);
#60=FACE_OUTER_BOUND('',#104,.T.);
#61=FACE_OUTER_BOUND('',#105,.T.);
#62=FACE_OUTER_BOUND('',#106,.T.);
#63=FACE_OUTER_BOUND('',#107,.T.);
#64=FACE_OUTER_BOUND('',#108,.T.);
#65=FACE_OUTER_BOUND('',#109,.T.);
#66=FACE_OUTER_BOUND('',#110,.T.);
#67=FACE_OUTER_BOUND('',#111,.T.);
#68=FACE_OUTER_BOUND('',#112,.T.);
#69=FACE_OUTER_BOUND('',#113,.T.);
#70=FACE_OUTER_BOUND('',#114,.T.);
#71=FACE_OUTER_BOUND('',#115,.T.);
#72=FACE_OUTER_BOUND('',#119,.T.);
#73=FACE_OUTER_BOUND('',#120,.T.);
#74=FACE_OUTER_BOUND('',#121,.T.);
#75=FACE_OUTER_BOUND('',#122,.T.);
#76=FACE_OUTER_BOUND('',#123,.T.);
#77=FACE_OUTER_BOUND('',#124,.T.);
#78=FACE_OUTER_BOUND('',#125,.T.);
#79=FACE_OUTER_BOUND('',#126,.T.);
#80=FACE_OUTER_BOUND('',#127,.T.);
#81=FACE_OUTER_BOUND('',#128,.T.);
#82=FACE_OUTER_BOUND('',#129,.T.);
#83=FACE_OUTER_BOUND('',#130,.T.);
#84=FACE_OUTER_BOUND('',#131,.T.);
#85=FACE_OUTER_BOUND('',#132,.T.);
#86=FACE_OUTER_BOUND('',#133,.T.);
#87=FACE_OUTER_BOUND('',#134,.T.);
#88=FACE_OUTER_BOUND('',#135,.T.);
#89=FACE_OUTER_BOUND('',#136,.T.);
#90=FACE_OUTER_BOUND('',#137,.T.);
#91=FACE_OUTER_BOUND('',#138,.T.);
#92=FACE_OUTER_BOUND('',#139,.T.);
#93=FACE_OUTER_BOUND('',#143,.T.);
#94=FACE_OUTER_BOUND('',#144,.T.);
#95=FACE_OUTER_BOUND('',#145,.T.);
#96=FACE_OUTER_BOUND('',#146,.T.);
#97=FACE_OUTER_BOUND('',#147,.T.);
#98=FACE_OUTER_BOUND('',#148,.T.);
#99=FACE_OUTER_BOUND('',#149,.T.);
#100=FACE_OUTER_BOUND('',#150,.T.);
#101=EDGE_LOOP('',(#499,#500,#501,#502));
#102=EDGE_LOOP('',(#503,#504,#505,#506));
#103=EDGE_LOOP('',(#507,#508,#509,#510));
#104=EDGE_LOOP('',(#511,#512,#513,#514));
#105=EDGE_LOOP('',(#515,#516,#517,#518));
#106=EDGE_LOOP('',(#519,#520,#521,#522));
#107=EDGE_LOOP('',(#523,#524,#525,#526));
#108=EDGE_LOOP('',(#527,#528,#529,#530));
#109=EDGE_LOOP('',(#531,#532,#533,#534));
#110=EDGE_LOOP('',(#535,#536,#537,#538));
#111=EDGE_LOOP('',(#539,#540,#541,#542));
#112=EDGE_LOOP('',(#543,#544,#545,#546));
#113=EDGE_LOOP('',(#547,#548,#549,#550));
#114=EDGE_LOOP('',(#551,#552,#553,#554));
#115=EDGE_LOOP('',(#555,#556,#557,#558));
#116=EDGE_LOOP('',(#559,#560,#561));
#117=EDGE_LOOP('',(#562,#563,#564));
#118=EDGE_LOOP('',(#565,#566,#567,#568));
#119=EDGE_LOOP('',(#569,#570,#571));
#120=EDGE_LOOP('',(#572,#573,#574));
#121=EDGE_LOOP('',(#575,#576,#577,#578));
#122=EDGE_LOOP('',(#579,#580,#581,#582));
#123=EDGE_LOOP('',(#583,#584,#585,#586));
#124=EDGE_LOOP('',(#587,#588,#589,#590));
#125=EDGE_LOOP('',(#591,#592,#593,#594));
#126=EDGE_LOOP('',(#595,#596,#597,#598));
#127=EDGE_LOOP('',(#599,#600,#601,#602));
#128=EDGE_LOOP('',(#603,#604,#605,#606));
#129=EDGE_LOOP('',(#607,#608,#609,#610));
#130=EDGE_LOOP('',(#611,#612,#613,#614));
#131=EDGE_LOOP('',(#615,#616,#617,#618));
#132=EDGE_LOOP('',(#619,#620,#621,#622));
#133=EDGE_LOOP('',(#623,#624,#625,#626));
#134=EDGE_LOOP('',(#627,#628,#629,#630));
#135=EDGE_LOOP('',(#631,#632,#633,#634));
#136=EDGE_LOOP('',(#635,#636,#637,#638));
#137=EDGE_LOOP('',(#639,#640,#641,#642));
#138=EDGE_LOOP('',(#643,#644,#645,#646));
#139=EDGE_LOOP('',(#647,#648,#649,#650));
#140=EDGE_LOOP('',(#651,#652,#653,#654));
#141=EDGE_LOOP('',(#655,#656,#657,#658));
#142=EDGE_LOOP('',(#659,#660,#661,#662));
#143=EDGE_LOOP('',(#663,#664,#665,#666));
#144=EDGE_LOOP('',(#667,#668,#669,#670));
#145=EDGE_LOOP('',(#671,#672,#673,#674));
#146=EDGE_LOOP('',(#675,#676,#677,#678));
#147=EDGE_LOOP('',(#679,#680,#681,#682));
#148=EDGE_LOOP('',(#683,#684,#685,#686));
#149=EDGE_LOOP('',(#687,#688,#689,#690,#691,#692,#693,#694,#695,#696,#697,
#698,#699,#700));
#150=EDGE_LOOP('',(#701,#702,#703,#704,#705,#706,#707,#708,#709,#710,#711,
#712,#713,#714));
#151=LINE('',#1081,#235);
#152=LINE('',#1083,#236);
#153=LINE('',#1085,#237);
#154=LINE('',#1086,#238);
#155=LINE('',#1089,#239);
#156=LINE('',#1091,#240);
#157=LINE('',#1092,#241);
#158=LINE('',#1095,#242);
#159=LINE('',#1097,#243);
#160=LINE('',#1098,#244);
#161=LINE('',#1100,#245);
#162=LINE('',#1101,#246);
#163=LINE('',#1105,#247);
#164=LINE('',#1107,#248);
#165=LINE('',#1109,#249);
#166=LINE('',#1110,#250);
#167=LINE('',#1113,#251);
#168=LINE('',#1115,#252);
#169=LINE('',#1116,#253);
#170=LINE('',#1118,#254);
#171=LINE('',#1119,#255);
#172=LINE('',#1123,#256);
#173=LINE('',#1125,#257);
#174=LINE('',#1127,#258);
#175=LINE('',#1128,#259);
#176=LINE('',#1131,#260);
#177=LINE('',#1133,#261);
#178=LINE('',#1134,#262);
#179=LINE('',#1136,#263);
#180=LINE('',#1137,#264);
#181=LINE('',#1186,#265);
#182=LINE('',#1203,#266);
#183=LINE('',#1206,#267);
#184=LINE('',#1208,#268);
#185=LINE('',#1209,#269);
#186=LINE('',#1212,#270);
#187=LINE('',#1214,#271);
#188=LINE('',#1215,#272);
#189=LINE('',#1285,#273);
#190=LINE('',#1288,#274);
#191=LINE('',#1293,#275);
#192=LINE('',#1299,#276);
#193=LINE('',#1310,#277);
#194=LINE('',#1313,#278);
#195=LINE('',#1318,#279);
#196=LINE('',#1324,#280);
#197=LINE('',#1333,#281);
#198=LINE('',#1335,#282);
#199=LINE('',#1337,#283);
#200=LINE('',#1338,#284);
#201=LINE('',#1341,#285);
#202=LINE('',#1343,#286);
#203=LINE('',#1344,#287);
#204=LINE('',#1347,#288);
#205=LINE('',#1349,#289);
#206=LINE('',#1350,#290);
#207=LINE('',#1353,#291);
#208=LINE('',#1355,#292);
#209=LINE('',#1356,#293);
#210=LINE('',#1359,#294);
#211=LINE('',#1361,#295);
#212=LINE('',#1362,#296);
#213=LINE('',#1365,#297);
#214=LINE('',#1367,#298);
#215=LINE('',#1368,#299);
#216=LINE('',#1374,#300);
#217=LINE('',#1377,#301);
#218=LINE('',#1379,#302);
#219=LINE('',#1380,#303);
#220=LINE('',#1386,#304);
#221=LINE('',#1389,#305);
#222=LINE('',#1391,#306);
#223=LINE('',#1392,#307);
#224=LINE('',#1395,#308);
#225=LINE('',#1397,#309);
#226=LINE('',#1398,#310);
#227=LINE('',#1401,#311);
#228=LINE('',#1403,#312);
#229=LINE('',#1404,#313);
#230=LINE('',#1407,#314);
#231=LINE('',#1409,#315);
#232=LINE('',#1410,#316);
#233=LINE('',#1412,#317);
#234=LINE('',#1413,#318);
#235=VECTOR('',#871,10.);
#236=VECTOR('',#872,10.);
#237=VECTOR('',#873,10.);
#238=VECTOR('',#874,10.);
#239=VECTOR('',#877,10.);
#240=VECTOR('',#878,10.);
#241=VECTOR('',#879,10.);
#242=VECTOR('',#882,10.);
#243=VECTOR('',#883,10.);
#244=VECTOR('',#884,10.);
#245=VECTOR('',#887,10.);
#246=VECTOR('',#888,10.);
#247=VECTOR('',#891,10.);
#248=VECTOR('',#892,10.);
#249=VECTOR('',#893,10.);
#250=VECTOR('',#894,10.);
#251=VECTOR('',#897,10.);
#252=VECTOR('',#898,10.);
#253=VECTOR('',#899,10.);
#254=VECTOR('',#902,10.);
#255=VECTOR('',#903,10.);
#256=VECTOR('',#906,10.);
#257=VECTOR('',#907,10.);
#258=VECTOR('',#908,10.);
#259=VECTOR('',#909,10.);
#260=VECTOR('',#912,10.);
#261=VECTOR('',#913,10.);
#262=VECTOR('',#914,10.);
#263=VECTOR('',#917,10.);
#264=VECTOR('',#918,10.);
#265=VECTOR('',#919,10.);
#266=VECTOR('',#920,10.);
#267=VECTOR('',#923,10.);
#268=VECTOR('',#924,10.);
#269=VECTOR('',#925,10.);
#270=VECTOR('',#928,10.);
#271=VECTOR('',#929,10.);
#272=VECTOR('',#930,10.);
#273=VECTOR('',#943,10.);
#274=VECTOR('',#946,10.);
#275=VECTOR('',#951,10.);
#276=VECTOR('',#958,10.);
#277=VECTOR('',#973,10.);
#278=VECTOR('',#976,10.);
#279=VECTOR('',#981,10.);
#280=VECTOR('',#988,10.);
#281=VECTOR('',#1001,10.);
#282=VECTOR('',#1002,10.);
#283=VECTOR('',#1003,10.);
#284=VECTOR('',#1004,10.);
#285=VECTOR('',#1007,10.);
#286=VECTOR('',#1008,10.);
#287=VECTOR('',#1009,10.);
#288=VECTOR('',#1012,10.);
#289=VECTOR('',#1013,10.);
#290=VECTOR('',#1014,10.);
#291=VECTOR('',#1017,10.);
#292=VECTOR('',#1018,10.);
#293=VECTOR('',#1019,10.);
#294=VECTOR('',#1022,10.);
#295=VECTOR('',#1023,10.);
#296=VECTOR('',#1024,10.);
#297=VECTOR('',#1027,10.);
#298=VECTOR('',#1028,10.);
#299=VECTOR('',#1029,10.);
#300=VECTOR('',#1036,10.);
#301=VECTOR('',#1039,10.);
#302=VECTOR('',#1040,10.);
#303=VECTOR('',#1041,10.);
#304=VECTOR('',#1048,10.);
#305=VECTOR('',#1051,10.);
#306=VECTOR('',#1052,10.);
#307=VECTOR('',#1053,10.);
#308=VECTOR('',#1056,10.);
#309=VECTOR('',#1057,10.);
#310=VECTOR('',#1058,10.);
#311=VECTOR('',#1061,10.);
#312=VECTOR('',#1062,10.);
#313=VECTOR('',#1063,10.);
#314=VECTOR('',#1066,10.);
#315=VECTOR('',#1067,10.);
#316=VECTOR('',#1068,10.);
#317=VECTOR('',#1071,10.);
#318=VECTOR('',#1072,10.);
#319=VERTEX_POINT('',#1079);
#320=VERTEX_POINT('',#1080);
#321=VERTEX_POINT('',#1082);
#322=VERTEX_POINT('',#1084);
#323=VERTEX_POINT('',#1088);
#324=VERTEX_POINT('',#1090);
#325=VERTEX_POINT('',#1094);
#326=VERTEX_POINT('',#1096);
#327=VERTEX_POINT('',#1103);
#328=VERTEX_POINT('',#1104);
#329=VERTEX_POINT('',#1106);
#330=VERTEX_POINT('',#1108);
#331=VERTEX_POINT('',#1112);
#332=VERTEX_POINT('',#1114);
#333=VERTEX_POINT('',#1121);
#334=VERTEX_POINT('',#1122);
#335=VERTEX_POINT('',#1124);
#336=VERTEX_POINT('',#1126);
#337=VERTEX_POINT('',#1130);
#338=VERTEX_POINT('',#1132);
#339=VERTEX_POINT('',#1168);
#340=VERTEX_POINT('',#1169);
#341=VERTEX_POINT('',#1185);
#342=VERTEX_POINT('',#1187);
#343=VERTEX_POINT('',#1205);
#344=VERTEX_POINT('',#1207);
#345=VERTEX_POINT('',#1211);
#346=VERTEX_POINT('',#1213);
#347=VERTEX_POINT('',#1281);
#348=VERTEX_POINT('',#1282);
#349=VERTEX_POINT('',#1284);
#350=VERTEX_POINT('',#1286);
#351=VERTEX_POINT('',#1290);
#352=VERTEX_POINT('',#1292);
#353=VERTEX_POINT('',#1296);
#354=VERTEX_POINT('',#1298);
#355=VERTEX_POINT('',#1306);
#356=VERTEX_POINT('',#1307);
#357=VERTEX_POINT('',#1309);
#358=VERTEX_POINT('',#1311);
#359=VERTEX_POINT('',#1315);
#360=VERTEX_POINT('',#1317);
#361=VERTEX_POINT('',#1321);
#362=VERTEX_POINT('',#1323);
#363=VERTEX_POINT('',#1331);
#364=VERTEX_POINT('',#1332);
#365=VERTEX_POINT('',#1334);
#366=VERTEX_POINT('',#1336);
#367=VERTEX_POINT('',#1340);
#368=VERTEX_POINT('',#1342);
#369=VERTEX_POINT('',#1346);
#370=VERTEX_POINT('',#1348);
#371=VERTEX_POINT('',#1352);
#372=VERTEX_POINT('',#1354);
#373=VERTEX_POINT('',#1358);
#374=VERTEX_POINT('',#1360);
#375=VERTEX_POINT('',#1364);
#376=VERTEX_POINT('',#1366);
#377=VERTEX_POINT('',#1370);
#378=VERTEX_POINT('',#1372);
#379=VERTEX_POINT('',#1376);
#380=VERTEX_POINT('',#1378);
#381=VERTEX_POINT('',#1382);
#382=VERTEX_POINT('',#1384);
#383=VERTEX_POINT('',#1388);
#384=VERTEX_POINT('',#1390);
#385=VERTEX_POINT('',#1394);
#386=VERTEX_POINT('',#1396);
#387=VERTEX_POINT('',#1400);
#388=VERTEX_POINT('',#1402);
#389=VERTEX_POINT('',#1406);
#390=VERTEX_POINT('',#1408);
#391=EDGE_CURVE('',#319,#320,#151,.T.);
#392=EDGE_CURVE('',#319,#321,#152,.T.);
#393=EDGE_CURVE('',#321,#322,#153,.T.);
#394=EDGE_CURVE('',#320,#322,#154,.T.);
#395=EDGE_CURVE('',#323,#319,#155,.T.);
#396=EDGE_CURVE('',#323,#324,#156,.T.);
#397=EDGE_CURVE('',#324,#321,#157,.T.);
#398=EDGE_CURVE('',#325,#323,#158,.T.);
#399=EDGE_CURVE('',#325,#326,#159,.T.);
#400=EDGE_CURVE('',#326,#324,#160,.T.);
#401=EDGE_CURVE('',#320,#325,#161,.T.);
#402=EDGE_CURVE('',#322,#326,#162,.T.);
#403=EDGE_CURVE('',#327,#328,#163,.T.);
#404=EDGE_CURVE('',#327,#329,#164,.T.);
#405=EDGE_CURVE('',#329,#330,#165,.T.);
#406=EDGE_CURVE('',#328,#330,#166,.T.);
#407=EDGE_CURVE('',#331,#327,#167,.T.);
#408=EDGE_CURVE('',#331,#332,#168,.T.);
#409=EDGE_CURVE('',#332,#329,#169,.T.);
#410=EDGE_CURVE('',#328,#331,#170,.T.);
#411=EDGE_CURVE('',#330,#332,#171,.T.);
#412=EDGE_CURVE('',#333,#334,#172,.T.);
#413=EDGE_CURVE('',#333,#335,#173,.T.);
#414=EDGE_CURVE('',#335,#336,#174,.T.);
#415=EDGE_CURVE('',#334,#336,#175,.T.);
#416=EDGE_CURVE('',#337,#333,#176,.T.);
#417=EDGE_CURVE('',#337,#338,#177,.T.);
#418=EDGE_CURVE('',#338,#335,#178,.T.);
#419=EDGE_CURVE('',#334,#337,#179,.T.);
#420=EDGE_CURVE('',#336,#338,#180,.T.);
#421=EDGE_CURVE('',#339,#340,#51,.T.);
#422=EDGE_CURVE('',#339,#341,#181,.T.);
#423=EDGE_CURVE('',#341,#342,#52,.T.);
#424=EDGE_CURVE('',#340,#342,#182,.T.);
#425=EDGE_CURVE('',#343,#339,#183,.T.);
#426=EDGE_CURVE('',#343,#344,#184,.T.);
#427=EDGE_CURVE('',#344,#341,#185,.T.);
#428=EDGE_CURVE('',#345,#343,#186,.T.);
#429=EDGE_CURVE('',#345,#346,#187,.T.);
#430=EDGE_CURVE('',#346,#344,#188,.T.);
#431=EDGE_CURVE('',#340,#345,#53,.T.);
#432=EDGE_CURVE('',#342,#346,#54,.T.);
#433=EDGE_CURVE('',#347,#348,#15,.T.);
#434=EDGE_CURVE('',#347,#349,#189,.T.);
#435=EDGE_CURVE('',#349,#350,#16,.T.);
#436=EDGE_CURVE('',#348,#350,#190,.T.);
#437=EDGE_CURVE('',#351,#347,#17,.T.);
#438=EDGE_CURVE('',#351,#352,#191,.T.);
#439=EDGE_CURVE('',#352,#349,#18,.T.);
#440=EDGE_CURVE('',#353,#351,#19,.T.);
#441=EDGE_CURVE('',#353,#354,#192,.T.);
#442=EDGE_CURVE('',#354,#352,#20,.T.);
#443=EDGE_CURVE('',#348,#353,#21,.T.);
#444=EDGE_CURVE('',#350,#354,#22,.T.);
#445=EDGE_CURVE('',#355,#356,#23,.T.);
#446=EDGE_CURVE('',#355,#357,#193,.T.);
#447=EDGE_CURVE('',#357,#358,#24,.T.);
#448=EDGE_CURVE('',#356,#358,#194,.T.);
#449=EDGE_CURVE('',#359,#355,#25,.T.);
#450=EDGE_CURVE('',#359,#360,#195,.T.);
#451=EDGE_CURVE('',#360,#357,#26,.T.);
#452=EDGE_CURVE('',#361,#359,#27,.T.);
#453=EDGE_CURVE('',#361,#362,#196,.T.);
#454=EDGE_CURVE('',#362,#360,#28,.T.);
#455=EDGE_CURVE('',#356,#361,#29,.T.);
#456=EDGE_CURVE('',#358,#362,#30,.T.);
#457=EDGE_CURVE('',#363,#364,#197,.T.);
#458=EDGE_CURVE('',#364,#365,#198,.T.);
#459=EDGE_CURVE('',#366,#365,#199,.T.);
#460=EDGE_CURVE('',#363,#366,#200,.T.);
#461=EDGE_CURVE('',#363,#367,#201,.T.);
#462=EDGE_CURVE('',#368,#366,#202,.T.);
#463=EDGE_CURVE('',#367,#368,#203,.T.);
#464=EDGE_CURVE('',#367,#369,#204,.T.);
#465=EDGE_CURVE('',#370,#368,#205,.T.);
#466=EDGE_CURVE('',#369,#370,#206,.T.);
#467=EDGE_CURVE('',#371,#369,#207,.T.);
#468=EDGE_CURVE('',#372,#370,#208,.T.);
#469=EDGE_CURVE('',#371,#372,#209,.T.);
#470=EDGE_CURVE('',#373,#371,#210,.T.);
#471=EDGE_CURVE('',#374,#372,#211,.T.);
#472=EDGE_CURVE('',#373,#374,#212,.T.);
#473=EDGE_CURVE('',#375,#373,#213,.T.);
#474=EDGE_CURVE('',#376,#374,#214,.T.);
#475=EDGE_CURVE('',#375,#376,#215,.T.);
#476=EDGE_CURVE('',#377,#375,#31,.T.);
#477=EDGE_CURVE('',#378,#376,#32,.T.);
#478=EDGE_CURVE('',#377,#378,#216,.T.);
#479=EDGE_CURVE('',#379,#377,#217,.T.);
#480=EDGE_CURVE('',#380,#378,#218,.T.);
#481=EDGE_CURVE('',#379,#380,#219,.T.);
#482=EDGE_CURVE('',#381,#379,#33,.T.);
#483=EDGE_CURVE('',#382,#380,#34,.T.);
#484=EDGE_CURVE('',#381,#382,#220,.T.);
#485=EDGE_CURVE('',#383,#381,#221,.T.);
#486=EDGE_CURVE('',#384,#382,#222,.T.);
#487=EDGE_CURVE('',#383,#384,#223,.T.);
#488=EDGE_CURVE('',#383,#385,#224,.T.);
#489=EDGE_CURVE('',#386,#384,#225,.T.);
#490=EDGE_CURVE('',#385,#386,#226,.T.);
#491=EDGE_CURVE('',#385,#387,#227,.T.);
#492=EDGE_CURVE('',#388,#386,#228,.T.);
#493=EDGE_CURVE('',#387,#388,#229,.T.);
#494=EDGE_CURVE('',#389,#387,#230,.T.);
#495=EDGE_CURVE('',#390,#388,#231,.T.);
#496=EDGE_CURVE('',#389,#390,#232,.T.);
#497=EDGE_CURVE('',#364,#389,#233,.T.);
#498=EDGE_CURVE('',#365,#390,#234,.T.);
#499=ORIENTED_EDGE('',*,*,#391,.F.);
#500=ORIENTED_EDGE('',*,*,#392,.T.);
#501=ORIENTED_EDGE('',*,*,#393,.T.);
#502=ORIENTED_EDGE('',*,*,#394,.F.);
#503=ORIENTED_EDGE('',*,*,#395,.F.);
#504=ORIENTED_EDGE('',*,*,#396,.T.);
#505=ORIENTED_EDGE('',*,*,#397,.T.);
#506=ORIENTED_EDGE('',*,*,#392,.F.);
#507=ORIENTED_EDGE('',*,*,#398,.F.);
#508=ORIENTED_EDGE('',*,*,#399,.T.);
#509=ORIENTED_EDGE('',*,*,#400,.T.);
#510=ORIENTED_EDGE('',*,*,#396,.F.);
#511=ORIENTED_EDGE('',*,*,#401,.F.);
#512=ORIENTED_EDGE('',*,*,#394,.T.);
#513=ORIENTED_EDGE('',*,*,#402,.T.);
#514=ORIENTED_EDGE('',*,*,#399,.F.);
#515=ORIENTED_EDGE('',*,*,#403,.F.);
#516=ORIENTED_EDGE('',*,*,#404,.T.);
#517=ORIENTED_EDGE('',*,*,#405,.T.);
#518=ORIENTED_EDGE('',*,*,#406,.F.);
#519=ORIENTED_EDGE('',*,*,#407,.F.);
#520=ORIENTED_EDGE('',*,*,#408,.T.);
#521=ORIENTED_EDGE('',*,*,#409,.T.);
#522=ORIENTED_EDGE('',*,*,#404,.F.);
#523=ORIENTED_EDGE('',*,*,#410,.F.);
#524=ORIENTED_EDGE('',*,*,#406,.T.);
#525=ORIENTED_EDGE('',*,*,#411,.T.);
#526=ORIENTED_EDGE('',*,*,#408,.F.);
#527=ORIENTED_EDGE('',*,*,#412,.F.);
#528=ORIENTED_EDGE('',*,*,#413,.T.);
#529=ORIENTED_EDGE('',*,*,#414,.T.);
#530=ORIENTED_EDGE('',*,*,#415,.F.);
#531=ORIENTED_EDGE('',*,*,#416,.F.);
#532=ORIENTED_EDGE('',*,*,#417,.T.);
#533=ORIENTED_EDGE('',*,*,#418,.T.);
#534=ORIENTED_EDGE('',*,*,#413,.F.);
#535=ORIENTED_EDGE('',*,*,#419,.F.);
#536=ORIENTED_EDGE('',*,*,#415,.T.);
#537=ORIENTED_EDGE('',*,*,#420,.T.);
#538=ORIENTED_EDGE('',*,*,#417,.F.);
#539=ORIENTED_EDGE('',*,*,#421,.F.);
#540=ORIENTED_EDGE('',*,*,#422,.T.);
#541=ORIENTED_EDGE('',*,*,#423,.T.);
#542=ORIENTED_EDGE('',*,*,#424,.F.);
#543=ORIENTED_EDGE('',*,*,#425,.F.);
#544=ORIENTED_EDGE('',*,*,#426,.T.);
#545=ORIENTED_EDGE('',*,*,#427,.T.);
#546=ORIENTED_EDGE('',*,*,#422,.F.);
#547=ORIENTED_EDGE('',*,*,#428,.F.);
#548=ORIENTED_EDGE('',*,*,#429,.T.);
#549=ORIENTED_EDGE('',*,*,#430,.T.);
#550=ORIENTED_EDGE('',*,*,#426,.F.);
#551=ORIENTED_EDGE('',*,*,#431,.F.);
#552=ORIENTED_EDGE('',*,*,#424,.T.);
#553=ORIENTED_EDGE('',*,*,#432,.T.);
#554=ORIENTED_EDGE('',*,*,#429,.F.);
#555=ORIENTED_EDGE('',*,*,#432,.F.);
#556=ORIENTED_EDGE('',*,*,#423,.F.);
#557=ORIENTED_EDGE('',*,*,#427,.F.);
#558=ORIENTED_EDGE('',*,*,#430,.F.);
#559=ORIENTED_EDGE('',*,*,#420,.F.);
#560=ORIENTED_EDGE('',*,*,#414,.F.);
#561=ORIENTED_EDGE('',*,*,#418,.F.);
#562=ORIENTED_EDGE('',*,*,#411,.F.);
#563=ORIENTED_EDGE('',*,*,#405,.F.);
#564=ORIENTED_EDGE('',*,*,#409,.F.);
#565=ORIENTED_EDGE('',*,*,#402,.F.);
#566=ORIENTED_EDGE('',*,*,#393,.F.);
#567=ORIENTED_EDGE('',*,*,#397,.F.);
#568=ORIENTED_EDGE('',*,*,#400,.F.);
#569=ORIENTED_EDGE('',*,*,#412,.T.);
#570=ORIENTED_EDGE('',*,*,#419,.T.);
#571=ORIENTED_EDGE('',*,*,#416,.T.);
#572=ORIENTED_EDGE('',*,*,#403,.T.);
#573=ORIENTED_EDGE('',*,*,#410,.T.);
#574=ORIENTED_EDGE('',*,*,#407,.T.);
#575=ORIENTED_EDGE('',*,*,#391,.T.);
#576=ORIENTED_EDGE('',*,*,#401,.T.);
#577=ORIENTED_EDGE('',*,*,#398,.T.);
#578=ORIENTED_EDGE('',*,*,#395,.T.);
#579=ORIENTED_EDGE('',*,*,#433,.F.);
#580=ORIENTED_EDGE('',*,*,#434,.T.);
#581=ORIENTED_EDGE('',*,*,#435,.T.);
#582=ORIENTED_EDGE('',*,*,#436,.F.);
#583=ORIENTED_EDGE('',*,*,#437,.F.);
#584=ORIENTED_EDGE('',*,*,#438,.T.);
#585=ORIENTED_EDGE('',*,*,#439,.T.);
#586=ORIENTED_EDGE('',*,*,#434,.F.);
#587=ORIENTED_EDGE('',*,*,#440,.F.);
#588=ORIENTED_EDGE('',*,*,#441,.T.);
#589=ORIENTED_EDGE('',*,*,#442,.T.);
#590=ORIENTED_EDGE('',*,*,#438,.F.);
#591=ORIENTED_EDGE('',*,*,#443,.F.);
#592=ORIENTED_EDGE('',*,*,#436,.T.);
#593=ORIENTED_EDGE('',*,*,#444,.T.);
#594=ORIENTED_EDGE('',*,*,#441,.F.);
#595=ORIENTED_EDGE('',*,*,#444,.F.);
#596=ORIENTED_EDGE('',*,*,#435,.F.);
#597=ORIENTED_EDGE('',*,*,#439,.F.);
#598=ORIENTED_EDGE('',*,*,#442,.F.);
#599=ORIENTED_EDGE('',*,*,#445,.F.);
#600=ORIENTED_EDGE('',*,*,#446,.T.);
#601=ORIENTED_EDGE('',*,*,#447,.T.);
#602=ORIENTED_EDGE('',*,*,#448,.F.);
#603=ORIENTED_EDGE('',*,*,#449,.F.);
#604=ORIENTED_EDGE('',*,*,#450,.T.);
#605=ORIENTED_EDGE('',*,*,#451,.T.);
#606=ORIENTED_EDGE('',*,*,#446,.F.);
#607=ORIENTED_EDGE('',*,*,#452,.F.);
#608=ORIENTED_EDGE('',*,*,#453,.T.);
#609=ORIENTED_EDGE('',*,*,#454,.T.);
#610=ORIENTED_EDGE('',*,*,#450,.F.);
#611=ORIENTED_EDGE('',*,*,#455,.F.);
#612=ORIENTED_EDGE('',*,*,#448,.T.);
#613=ORIENTED_EDGE('',*,*,#456,.T.);
#614=ORIENTED_EDGE('',*,*,#453,.F.);
#615=ORIENTED_EDGE('',*,*,#456,.F.);
#616=ORIENTED_EDGE('',*,*,#447,.F.);
#617=ORIENTED_EDGE('',*,*,#451,.F.);
#618=ORIENTED_EDGE('',*,*,#454,.F.);
#619=ORIENTED_EDGE('',*,*,#457,.T.);
#620=ORIENTED_EDGE('',*,*,#458,.T.);
#621=ORIENTED_EDGE('',*,*,#459,.F.);
#622=ORIENTED_EDGE('',*,*,#460,.F.);
#623=ORIENTED_EDGE('',*,*,#461,.F.);
#624=ORIENTED_EDGE('',*,*,#460,.T.);
#625=ORIENTED_EDGE('',*,*,#462,.F.);
#626=ORIENTED_EDGE('',*,*,#463,.F.);
#627=ORIENTED_EDGE('',*,*,#464,.F.);
#628=ORIENTED_EDGE('',*,*,#463,.T.);
#629=ORIENTED_EDGE('',*,*,#465,.F.);
#630=ORIENTED_EDGE('',*,*,#466,.F.);
#631=ORIENTED_EDGE('',*,*,#467,.T.);
#632=ORIENTED_EDGE('',*,*,#466,.T.);
#633=ORIENTED_EDGE('',*,*,#468,.F.);
#634=ORIENTED_EDGE('',*,*,#469,.F.);
#635=ORIENTED_EDGE('',*,*,#470,.T.);
#636=ORIENTED_EDGE('',*,*,#469,.T.);
#637=ORIENTED_EDGE('',*,*,#471,.F.);
#638=ORIENTED_EDGE('',*,*,#472,.F.);
#639=ORIENTED_EDGE('',*,*,#473,.T.);
#640=ORIENTED_EDGE('',*,*,#472,.T.);
#641=ORIENTED_EDGE('',*,*,#474,.F.);
#642=ORIENTED_EDGE('',*,*,#475,.F.);
#643=ORIENTED_EDGE('',*,*,#476,.T.);
#644=ORIENTED_EDGE('',*,*,#475,.T.);
#645=ORIENTED_EDGE('',*,*,#477,.F.);
#646=ORIENTED_EDGE('',*,*,#478,.F.);
#647=ORIENTED_EDGE('',*,*,#479,.T.);
#648=ORIENTED_EDGE('',*,*,#478,.T.);
#649=ORIENTED_EDGE('',*,*,#480,.F.);
#650=ORIENTED_EDGE('',*,*,#481,.F.);
#651=ORIENTED_EDGE('',*,*,#445,.T.);
#652=ORIENTED_EDGE('',*,*,#455,.T.);
#653=ORIENTED_EDGE('',*,*,#452,.T.);
#654=ORIENTED_EDGE('',*,*,#449,.T.);
#655=ORIENTED_EDGE('',*,*,#433,.T.);
#656=ORIENTED_EDGE('',*,*,#443,.T.);
#657=ORIENTED_EDGE('',*,*,#440,.T.);
#658=ORIENTED_EDGE('',*,*,#437,.T.);
#659=ORIENTED_EDGE('',*,*,#421,.T.);
#660=ORIENTED_EDGE('',*,*,#431,.T.);
#661=ORIENTED_EDGE('',*,*,#428,.T.);
#662=ORIENTED_EDGE('',*,*,#425,.T.);
#663=ORIENTED_EDGE('',*,*,#482,.T.);
#664=ORIENTED_EDGE('',*,*,#481,.T.);
#665=ORIENTED_EDGE('',*,*,#483,.F.);
#666=ORIENTED_EDGE('',*,*,#484,.F.);
#667=ORIENTED_EDGE('',*,*,#485,.T.);
#668=ORIENTED_EDGE('',*,*,#484,.T.);
#669=ORIENTED_EDGE('',*,*,#486,.F.);
#670=ORIENTED_EDGE('',*,*,#487,.F.);
#671=ORIENTED_EDGE('',*,*,#488,.F.);
#672=ORIENTED_EDGE('',*,*,#487,.T.);
#673=ORIENTED_EDGE('',*,*,#489,.F.);
#674=ORIENTED_EDGE('',*,*,#490,.F.);
#675=ORIENTED_EDGE('',*,*,#491,.F.);
#676=ORIENTED_EDGE('',*,*,#490,.T.);
#677=ORIENTED_EDGE('',*,*,#492,.F.);
#678=ORIENTED_EDGE('',*,*,#493,.F.);
#679=ORIENTED_EDGE('',*,*,#494,.T.);
#680=ORIENTED_EDGE('',*,*,#493,.T.);
#681=ORIENTED_EDGE('',*,*,#495,.F.);
#682=ORIENTED_EDGE('',*,*,#496,.F.);
#683=ORIENTED_EDGE('',*,*,#497,.T.);
#684=ORIENTED_EDGE('',*,*,#496,.T.);
#685=ORIENTED_EDGE('',*,*,#498,.F.);
#686=ORIENTED_EDGE('',*,*,#458,.F.);
#687=ORIENTED_EDGE('',*,*,#498,.T.);
#688=ORIENTED_EDGE('',*,*,#495,.T.);
#689=ORIENTED_EDGE('',*,*,#492,.T.);
#690=ORIENTED_EDGE('',*,*,#489,.T.);
#691=ORIENTED_EDGE('',*,*,#486,.T.);
#692=ORIENTED_EDGE('',*,*,#483,.T.);
#693=ORIENTED_EDGE('',*,*,#480,.T.);
#694=ORIENTED_EDGE('',*,*,#477,.T.);
#695=ORIENTED_EDGE('',*,*,#474,.T.);
#696=ORIENTED_EDGE('',*,*,#471,.T.);
#697=ORIENTED_EDGE('',*,*,#468,.T.);
#698=ORIENTED_EDGE('',*,*,#465,.T.);
#699=ORIENTED_EDGE('',*,*,#462,.T.);
#700=ORIENTED_EDGE('',*,*,#459,.T.);
#701=ORIENTED_EDGE('',*,*,#497,.F.);
#702=ORIENTED_EDGE('',*,*,#457,.F.);
#703=ORIENTED_EDGE('',*,*,#461,.T.);
#704=ORIENTED_EDGE('',*,*,#464,.T.);
#705=ORIENTED_EDGE('',*,*,#467,.F.);
#706=ORIENTED_EDGE('',*,*,#470,.F.);
#707=ORIENTED_EDGE('',*,*,#473,.F.);
#708=ORIENTED_EDGE('',*,*,#476,.F.);
#709=ORIENTED_EDGE('',*,*,#479,.F.);
#710=ORIENTED_EDGE('',*,*,#482,.F.);
#711=ORIENTED_EDGE('',*,*,#485,.F.);
#712=ORIENTED_EDGE('',*,*,#488,.T.);
#713=ORIENTED_EDGE('',*,*,#491,.T.);
#714=ORIENTED_EDGE('',*,*,#494,.F.);
#715=PLANE('',#805);
#716=PLANE('',#806);
#717=PLANE('',#807);
#718=PLANE('',#808);
#719=PLANE('',#809);
#720=PLANE('',#810);
#721=PLANE('',#811);
#722=PLANE('',#812);
#723=PLANE('',#813);
#724=PLANE('',#814);
#725=PLANE('',#815);
#726=PLANE('',#816);
#727=PLANE('',#817);
#728=PLANE('',#818);
#729=PLANE('',#819);
#730=PLANE('',#820);
#731=PLANE('',#833);
#732=PLANE('',#846);
#733=PLANE('',#847);
#734=PLANE('',#848);
#735=PLANE('',#849);
#736=PLANE('',#850);
#737=PLANE('',#851);
#738=PLANE('',#852);
#739=PLANE('',#856);
#740=PLANE('',#860);
#741=PLANE('',#861);
#742=PLANE('',#862);
#743=PLANE('',#863);
#744=PLANE('',#864);
#745=PLANE('',#865);
#746=PLANE('',#866);
#747=ADVANCED_FACE('',(#57),#715,.F.);
#748=ADVANCED_FACE('',(#58),#716,.F.);
#749=ADVANCED_FACE('',(#59),#717,.F.);
#750=ADVANCED_FACE('',(#60),#718,.F.);
#751=ADVANCED_FACE('',(#61),#719,.F.);
#752=ADVANCED_FACE('',(#62),#720,.F.);
#753=ADVANCED_FACE('',(#63),#721,.F.);
#754=ADVANCED_FACE('',(#64),#722,.F.);
#755=ADVANCED_FACE('',(#65),#723,.F.);
#756=ADVANCED_FACE('',(#66),#724,.F.);
#757=ADVANCED_FACE('',(#67),#55,.F.);
#758=ADVANCED_FACE('',(#68),#725,.F.);
#759=ADVANCED_FACE('',(#69),#726,.F.);
#760=ADVANCED_FACE('',(#70),#56,.F.);
#761=ADVANCED_FACE('',(#71,#45,#46,#47),#727,.T.);
#762=ADVANCED_FACE('',(#72),#728,.T.);
#763=ADVANCED_FACE('',(#73),#729,.T.);
#764=ADVANCED_FACE('',(#74),#730,.T.);
#765=ADVANCED_FACE('',(#75),#35,.F.);
#766=ADVANCED_FACE('',(#76),#36,.F.);
#767=ADVANCED_FACE('',(#77),#37,.T.);
#768=ADVANCED_FACE('',(#78),#38,.F.);
#769=ADVANCED_FACE('',(#79),#731,.T.);
#770=ADVANCED_FACE('',(#80),#39,.F.);
#771=ADVANCED_FACE('',(#81),#40,.F.);
#772=ADVANCED_FACE('',(#82),#41,.T.);
#773=ADVANCED_FACE('',(#83),#42,.F.);
#774=ADVANCED_FACE('',(#84),#732,.T.);
#775=ADVANCED_FACE('',(#85),#733,.T.);
#776=ADVANCED_FACE('',(#86),#734,.T.);
#777=ADVANCED_FACE('',(#87),#735,.T.);
#778=ADVANCED_FACE('',(#88),#736,.T.);
#779=ADVANCED_FACE('',(#89),#737,.T.);
#780=ADVANCED_FACE('',(#90),#738,.T.);
#781=ADVANCED_FACE('',(#91),#43,.T.);
#782=ADVANCED_FACE('',(#92,#48,#49,#50),#739,.T.);
#783=ADVANCED_FACE('',(#93),#44,.T.);
#784=ADVANCED_FACE('',(#94),#740,.T.);
#785=ADVANCED_FACE('',(#95),#741,.T.);
#786=ADVANCED_FACE('',(#96),#742,.T.);
#787=ADVANCED_FACE('',(#97),#743,.T.);
#788=ADVANCED_FACE('',(#98),#744,.T.);
#789=ADVANCED_FACE('',(#99),#745,.T.);
#790=ADVANCED_FACE('',(#100),#746,.F.);
#791=CLOSED_SHELL('',(#747,#748,#749,#750,#751,#752,#753,#754,#755,#756,
#757,#758,#759,#760,#761,#762,#763,#764,#765,#766,#767,#768,#769,#770,#771,
#772,#773,#774,#775,#776,#777,#778,#779,#780,#781,#782,#783,#784,#785,#786,
#787,#788,#789,#790));
#792=DERIVED_UNIT_ELEMENT(#794,1.);
#793=DERIVED_UNIT_ELEMENT(#1421,-3.);
#794=(
MASS_UNIT()
NAMED_UNIT(*)
SI_UNIT(.KILO.,.GRAM.)
);
#795=DERIVED_UNIT((#792,#793));
#796=MEASURE_REPRESENTATION_ITEM('density measure',
POSITIVE_RATIO_MEASURE(7850.),#795);
#797=PROPERTY_DEFINITION_REPRESENTATION(#802,#799);
#798=PROPERTY_DEFINITION_REPRESENTATION(#803,#800);
#799=REPRESENTATION('material name',(#801),#1418);
#800=REPRESENTATION('density',(#796),#1418);
#801=DESCRIPTIVE_REPRESENTATION_ITEM('Steel','Steel');
#802=PROPERTY_DEFINITION('material property','material name',#1428);
#803=PROPERTY_DEFINITION('material property','density of part',#1428);
#804=AXIS2_PLACEMENT_3D('',#1077,#867,#868);
#805=AXIS2_PLACEMENT_3D('',#1078,#869,#870);
#806=AXIS2_PLACEMENT_3D('',#1087,#875,#876);
#807=AXIS2_PLACEMENT_3D('',#1093,#880,#881);
#808=AXIS2_PLACEMENT_3D('',#1099,#885,#886);
#809=AXIS2_PLACEMENT_3D('',#1102,#889,#890);
#810=AXIS2_PLACEMENT_3D('',#1111,#895,#896);
#811=AXIS2_PLACEMENT_3D('',#1117,#900,#901);
#812=AXIS2_PLACEMENT_3D('',#1120,#904,#905);
#813=AXIS2_PLACEMENT_3D('',#1129,#910,#911);
#814=AXIS2_PLACEMENT_3D('',#1135,#915,#916);
#815=AXIS2_PLACEMENT_3D('',#1204,#921,#922);
#816=AXIS2_PLACEMENT_3D('',#1210,#926,#927);
#817=AXIS2_PLACEMENT_3D('',#1276,#931,#932);
#818=AXIS2_PLACEMENT_3D('',#1277,#933,#934);
#819=AXIS2_PLACEMENT_3D('',#1278,#935,#936);
#820=AXIS2_PLACEMENT_3D('',#1279,#937,#938);
#821=AXIS2_PLACEMENT_3D('',#1280,#939,#940);
#822=AXIS2_PLACEMENT_3D('',#1283,#941,#942);
#823=AXIS2_PLACEMENT_3D('',#1287,#944,#945);
#824=AXIS2_PLACEMENT_3D('',#1289,#947,#948);
#825=AXIS2_PLACEMENT_3D('',#1291,#949,#950);
#826=AXIS2_PLACEMENT_3D('',#1294,#952,#953);
#827=AXIS2_PLACEMENT_3D('',#1295,#954,#955);
#828=AXIS2_PLACEMENT_3D('',#1297,#956,#957);
#829=AXIS2_PLACEMENT_3D('',#1300,#959,#960);
#830=AXIS2_PLACEMENT_3D('',#1301,#961,#962);
#831=AXIS2_PLACEMENT_3D('',#1302,#963,#964);
#832=AXIS2_PLACEMENT_3D('',#1303,#965,#966);
#833=AXIS2_PLACEMENT_3D('',#1304,#967,#968);
#834=AXIS2_PLACEMENT_3D('',#1305,#969,#970);
#835=AXIS2_PLACEMENT_3D('',#1308,#971,#972);
#836=AXIS2_PLACEMENT_3D('',#1312,#974,#975);
#837=AXIS2_PLACEMENT_3D('',#1314,#977,#978);
#838=AXIS2_PLACEMENT_3D('',#1316,#979,#980);
#839=AXIS2_PLACEMENT_3D('',#1319,#982,#983);
#840=AXIS2_PLACEMENT_3D('',#1320,#984,#985);
#841=AXIS2_PLACEMENT_3D('',#1322,#986,#987);
#842=AXIS2_PLACEMENT_3D('',#1325,#989,#990);
#843=AXIS2_PLACEMENT_3D('',#1326,#991,#992);
#844=AXIS2_PLACEMENT_3D('',#1327,#993,#994);
#845=AXIS2_PLACEMENT_3D('',#1328,#995,#996);
#846=AXIS2_PLACEMENT_3D('',#1329,#997,#998);
#847=AXIS2_PLACEMENT_3D('',#1330,#999,#1000);
#848=AXIS2_PLACEMENT_3D('',#1339,#1005,#1006);
#849=AXIS2_PLACEMENT_3D('',#1345,#1010,#1011);
#850=AXIS2_PLACEMENT_3D('',#1351,#1015,#1016);
#851=AXIS2_PLACEMENT_3D('',#1357,#1020,#1021);
#852=AXIS2_PLACEMENT_3D('',#1363,#1025,#1026);
#853=AXIS2_PLACEMENT_3D('',#1369,#1030,#1031);
#854=AXIS2_PLACEMENT_3D('',#1371,#1032,#1033);
#855=AXIS2_PLACEMENT_3D('',#1373,#1034,#1035);
#856=AXIS2_PLACEMENT_3D('',#1375,#1037,#1038);
#857=AXIS2_PLACEMENT_3D('',#1381,#1042,#1043);
#858=AXIS2_PLACEMENT_3D('',#1383,#1044,#1045);
#859=AXIS2_PLACEMENT_3D('',#1385,#1046,#1047);
#860=AXIS2_PLACEMENT_3D('',#1387,#1049,#1050);
#861=AXIS2_PLACEMENT_3D('',#1393,#1054,#1055);
#862=AXIS2_PLACEMENT_3D('',#1399,#1059,#1060);
#863=AXIS2_PLACEMENT_3D('',#1405,#1064,#1065);
#864=AXIS2_PLACEMENT_3D('',#1411,#1069,#1070);
#865=AXIS2_PLACEMENT_3D('',#1414,#1073,#1074);
#866=AXIS2_PLACEMENT_3D('',#1415,#1075,#1076);
#867=DIRECTION('axis',(0.,0.,1.));
#868=DIRECTION('refdir',(1.,0.,0.));
#869=DIRECTION('center_axis',(-0.0913758892858189,-0.995816472477347,0.));
#870=DIRECTION('ref_axis',(-0.995816472477346,0.0913758892858189,0.));
#871=DIRECTION('',(-0.995816472477346,0.0913758892858189,0.));
#872=DIRECTION('',(0.,0.,-1.));
#873=DIRECTION('',(-0.995816472477346,0.0913758892858189,0.));
#874=DIRECTION('',(0.,0.,-1.));
#875=DIRECTION('center_axis',(-0.0913758892858189,0.995816472477347,0.));
#876=DIRECTION('ref_axis',(0.995816472477346,0.0913758892858189,0.));
#877=DIRECTION('',(0.995816472477346,0.0913758892858189,0.));
#878=DIRECTION('',(0.,0.,-1.));
#879=DIRECTION('',(0.995816472477346,0.0913758892858189,0.));
#880=DIRECTION('center_axis',(0.921502872955749,0.388371542642225,0.));
#881=DIRECTION('ref_axis',(0.388371542642225,-0.921502872955749,0.));
#882=DIRECTION('',(0.388371542642225,-0.921502872955749,0.));
#883=DIRECTION('',(0.,0.,-1.));
#884=DIRECTION('',(0.388371542642225,-0.921502872955749,0.));
#885=DIRECTION('center_axis',(0.921502872955749,-0.388371542642225,0.));
#886=DIRECTION('ref_axis',(-0.388371542642225,-0.921502872955749,0.));
#887=DIRECTION('',(-0.388371542642225,-0.921502872955749,0.));
#888=DIRECTION('',(-0.388371542642225,-0.921502872955749,0.));
#889=DIRECTION('center_axis',(0.44029369479483,-0.897853808993378,0.));
#890=DIRECTION('ref_axis',(-0.897853808993378,-0.44029369479483,0.));
#891=DIRECTION('',(-0.897853808993378,-0.44029369479483,0.));
#892=DIRECTION('',(0.,0.,-1.));
#893=DIRECTION('',(-0.897853808993378,-0.44029369479483,0.));
#894=DIRECTION('',(0.,0.,-1.));
#895=DIRECTION('center_axis',(-0.279885324516479,-0.960033439584427,0.));
#896=DIRECTION('ref_axis',(-0.960033439584427,0.279885324516479,0.));
#897=DIRECTION('',(-0.960033439584427,0.279885324516479,0.));
#898=DIRECTION('',(0.,0.,-1.));
#899=DIRECTION('',(-0.960033439584427,0.279885324516479,0.));
#900=DIRECTION('center_axis',(0.0988056061151582,0.995106754172745,0.));
#901=DIRECTION('ref_axis',(0.995106754172745,-0.0988056061151582,0.));
#902=DIRECTION('',(0.995106754172745,-0.0988056061151582,0.));
#903=DIRECTION('',(0.995106754172745,-0.0988056061151582,0.));
#904=DIRECTION('center_axis',(0.0988056061151582,-0.995106754172745,0.));
#905=DIRECTION('ref_axis',(-0.995106754172745,-0.0988056061151582,0.));
#906=DIRECTION('',(-0.995106754172745,-0.0988056061151582,0.));
#907=DIRECTION('',(0.,0.,-1.));
#908=DIRECTION('',(-0.995106754172745,-0.0988056061151582,0.));
#909=DIRECTION('',(0.,0.,-1.));
#910=DIRECTION('center_axis',(-0.279885324516479,0.960033439584427,0.));
#911=DIRECTION('ref_axis',(0.960033439584427,0.279885324516479,0.));
#912=DIRECTION('',(0.960033439584427,0.279885324516479,0.));
#913=DIRECTION('',(0.,0.,-1.));
#914=DIRECTION('',(0.960033439584427,0.279885324516479,0.));
#915=DIRECTION('center_axis',(0.44029369479483,0.897853808993378,0.));
#916=DIRECTION('ref_axis',(0.897853808993378,-0.44029369479483,0.));
#917=DIRECTION('',(0.897853808993378,-0.44029369479483,0.));
#918=DIRECTION('',(0.897853808993378,-0.44029369479483,0.));
#919=DIRECTION('',(0.,0.,-1.));
#920=DIRECTION('',(0.,0.,-1.));
#921=DIRECTION('center_axis',(0.388371542642226,-0.921502872955748,0.));
#922=DIRECTION('ref_axis',(-0.921502872955748,-0.388371542642226,0.));
#923=DIRECTION('',(-0.921502872955748,-0.388371542642226,0.));
#924=DIRECTION('',(0.,0.,-1.));
#925=DIRECTION('',(-0.921502872955748,-0.388371542642226,0.));
#926=DIRECTION('center_axis',(0.388371542642226,0.921502872955748,0.));
#927=DIRECTION('ref_axis',(0.921502872955748,-0.388371542642226,0.));
#928=DIRECTION('',(0.921502872955748,-0.388371542642226,0.));
#929=DIRECTION('',(0.,0.,-1.));
#930=DIRECTION('',(0.921502872955748,-0.388371542642226,0.));
#931=DIRECTION('center_axis',(0.,0.,1.));
#932=DIRECTION('ref_axis',(-1.,0.,0.));
#933=DIRECTION('center_axis',(0.,0.,1.));
#934=DIRECTION('ref_axis',(0.,1.,0.));
#935=DIRECTION('center_axis',(0.,0.,1.));
#936=DIRECTION('ref_axis',(0.,1.,0.));
#937=DIRECTION('center_axis',(0.,0.,1.));
#938=DIRECTION('ref_axis',(0.,1.,0.));
#939=DIRECTION('center_axis',(0.,0.,-1.));
#940=DIRECTION('ref_axis',(-0.766044443118978,0.642787609686539,0.));
#941=DIRECTION('center_axis',(0.,0.,-1.));
#942=DIRECTION('ref_axis',(-0.766044443118978,0.642787609686539,0.));
#943=DIRECTION('',(0.,0.,-1.));
#944=DIRECTION('center_axis',(0.,0.,-1.));
#945=DIRECTION('ref_axis',(-0.766044443118978,0.642787609686539,0.));
#946=DIRECTION('',(0.,0.,-1.));
#947=DIRECTION('center_axis',(0.,0.,-1.));
#948=DIRECTION('ref_axis',(0.642787615394015,-0.766044438329837,0.));
#949=DIRECTION('center_axis',(0.,0.,-1.));
#950=DIRECTION('ref_axis',(-0.766044443118978,-0.642787609686539,0.));
#951=DIRECTION('',(0.,0.,-1.));
#952=DIRECTION('center_axis',(0.,0.,-1.));
#953=DIRECTION('ref_axis',(-0.766044443118978,-0.642787609686539,0.));
#954=DIRECTION('center_axis',(0.,0.,-1.));
#955=DIRECTION('ref_axis',(-0.766044443118978,0.642787609686539,0.));
#956=DIRECTION('center_axis',(0.,0.,1.));
#957=DIRECTION('ref_axis',(-0.766044443118978,0.642787609686539,0.));
#958=DIRECTION('',(0.,0.,-1.));
#959=DIRECTION('center_axis',(0.,0.,1.));
#960=DIRECTION('ref_axis',(-0.766044443118978,0.642787609686539,0.));
#961=DIRECTION('center_axis',(0.,0.,-1.));
#962=DIRECTION('ref_axis',(0.766044443118978,-0.642787609686539,0.));
#963=DIRECTION('center_axis',(0.,0.,-1.));
#964=DIRECTION('ref_axis',(0.766044443118978,-0.642787609686539,0.));
#965=DIRECTION('center_axis',(0.,0.,-1.));
#966=DIRECTION('ref_axis',(0.766044443118978,-0.642787609686539,0.));
#967=DIRECTION('center_axis',(0.,0.,1.));
#968=DIRECTION('ref_axis',(-1.,0.,0.));
#969=DIRECTION('center_axis',(0.,0.,-1.));
#970=DIRECTION('ref_axis',(0.766044443118978,-0.642787609686539,0.));
#971=DIRECTION('center_axis',(0.,0.,-1.));
#972=DIRECTION('ref_axis',(0.766044443118978,-0.642787609686539,0.));
#973=DIRECTION('',(0.,0.,-1.));
#974=DIRECTION('center_axis',(0.,0.,-1.));
#975=DIRECTION('ref_axis',(0.766044443118978,-0.642787609686539,0.));
#976=DIRECTION('',(0.,0.,-1.));
#977=DIRECTION('center_axis',(0.,0.,-1.));
#978=DIRECTION('ref_axis',(0.766044443118977,0.64278760968654,0.));
#979=DIRECTION('center_axis',(0.,0.,-1.));
#980=DIRECTION('ref_axis',(0.766044443118977,0.64278760968654,0.));
#981=DIRECTION('',(0.,0.,-1.));
#982=DIRECTION('center_axis',(0.,0.,-1.));
#983=DIRECTION('ref_axis',(0.766044443118977,0.64278760968654,0.));
#984=DIRECTION('center_axis',(0.,0.,-1.));
#985=DIRECTION('ref_axis',(0.766044443118978,-0.642787609686539,0.));
#986=DIRECTION('center_axis',(0.,0.,1.));
#987=DIRECTION('ref_axis',(0.766044443118978,-0.642787609686539,0.));
#988=DIRECTION('',(0.,0.,-1.));
#989=DIRECTION('center_axis',(0.,0.,1.));
#990=DIRECTION('ref_axis',(0.766044443118978,-0.642787609686539,0.));
#991=DIRECTION('center_axis',(0.,0.,-1.));
#992=DIRECTION('ref_axis',(-0.766044443118977,0.64278760968654,0.));
#993=DIRECTION('center_axis',(0.,0.,-1.));
#994=DIRECTION('ref_axis',(-0.766044443118977,0.64278760968654,0.));
#995=DIRECTION('center_axis',(0.,0.,-1.));
#996=DIRECTION('ref_axis',(-0.766044443118977,0.64278760968654,0.));
#997=DIRECTION('center_axis',(0.,0.,1.));
#998=DIRECTION('ref_axis',(-1.,0.,0.));
#999=DIRECTION('center_axis',(0.,0.,-1.));
#1000=DIRECTION('ref_axis',(0.,-1.,0.));
#1001=DIRECTION('',(0.,-1.,0.));
#1002=DIRECTION('',(-1.,0.,0.));
#1003=DIRECTION('',(0.,-1.,0.));
#1004=DIRECTION('',(-1.,0.,0.));
#1005=DIRECTION('center_axis',(0.,1.,0.));
#1006=DIRECTION('ref_axis',(0.,0.,-1.));
#1007=DIRECTION('',(0.,0.,1.));
#1008=DIRECTION('',(0.,0.,-1.));
#1009=DIRECTION('',(-1.,0.,0.));
#1010=DIRECTION('center_axis',(0.,0.,-1.));
#1011=DIRECTION('ref_axis',(0.,-1.,0.));
#1012=DIRECTION('',(0.,1.,0.));
#1013=DIRECTION('',(0.,-1.,0.));
#1014=DIRECTION('',(-1.,0.,0.));
#1015=DIRECTION('center_axis',(0.,1.,0.));
#1016=DIRECTION('ref_axis',(0.,0.,-1.));
#1017=DIRECTION('',(0.,0.,-1.));
#1018=DIRECTION('',(0.,0.,-1.));
#1019=DIRECTION('',(-1.,0.,0.));
#1020=DIRECTION('center_axis',(0.,0.,-1.));
#1021=DIRECTION('ref_axis',(0.,-1.,0.));
#1022=DIRECTION('',(0.,-1.,0.));
#1023=DIRECTION('',(0.,-1.,0.));
#1024=DIRECTION('',(-1.,0.,0.));
#1025=DIRECTION('center_axis',(0.,1.,0.));
#1026=DIRECTION('ref_axis',(0.,0.,-1.));
#1027=DIRECTION('',(0.,0.,-1.));
#1028=DIRECTION('',(0.,0.,-1.));
#1029=DIRECTION('',(-1.,0.,0.));
#1030=DIRECTION('center_axis',(-1.,0.,0.));
#1031=DIRECTION('ref_axis',(0.,-1.77635683940025E-15,1.));
#1032=DIRECTION('center_axis',(-1.,0.,0.));
#1033=DIRECTION('ref_axis',(0.,-1.77635683940025E-15,1.));
#1034=DIRECTION('center_axis',(-1.,0.,0.));
#1035=DIRECTION('ref_axis',(0.,-1.77635683940025E-15,1.));
#1036=DIRECTION('',(-1.,0.,0.));
#1037=DIRECTION('center_axis',(0.,0.,1.));
#1038=DIRECTION('ref_axis',(0.,1.,0.));
#1039=DIRECTION('',(0.,1.,0.));
#1040=DIRECTION('',(0.,1.,0.));
#1041=DIRECTION('',(-1.,0.,0.));
#1042=DIRECTION('center_axis',(-1.,0.,0.));
#1043=DIRECTION('ref_axis',(0.,-0.333333333333333,0.942809041582064));
#1044=DIRECTION('center_axis',(-1.,0.,0.));
#1045=DIRECTION('ref_axis',(0.,-0.333333333333333,0.942809041582064));
#1046=DIRECTION('center_axis',(-1.,0.,0.));
#1047=DIRECTION('ref_axis',(0.,-0.333333333333333,0.942809041582064));
#1048=DIRECTION('',(-1.,0.,0.));
#1049=DIRECTION('center_axis',(0.,-1.,0.));
#1050=DIRECTION('ref_axis',(0.,0.,1.));
#1051=DIRECTION('',(0.,0.,1.));
#1052=DIRECTION('',(0.,0.,1.));
#1053=DIRECTION('',(-1.,0.,0.));
#1054=DIRECTION('center_axis',(0.,0.,-1.));
#1055=DIRECTION('ref_axis',(0.,-1.,0.));
#1056=DIRECTION('',(0.,1.,0.));
#1057=DIRECTION('',(0.,-1.,0.));
#1058=DIRECTION('',(-1.,0.,0.));
#1059=DIRECTION('center_axis',(0.,-1.,0.));
#1060=DIRECTION('ref_axis',(0.,0.,1.));
#1061=DIRECTION('',(0.,0.,-1.));
#1062=DIRECTION('',(0.,0.,1.));
#1063=DIRECTION('',(-1.,0.,0.));
#1064=DIRECTION('center_axis',(0.,0.,-1.));
#1065=DIRECTION('ref_axis',(0.,-1.,0.));
#1066=DIRECTION('',(0.,-1.,0.));
#1067=DIRECTION('',(0.,-1.,0.));
#1068=DIRECTION('',(-1.,0.,0.));
#1069=DIRECTION('center_axis',(0.,-1.,0.));
#1070=DIRECTION('ref_axis',(0.,0.,1.));
#1071=DIRECTION('',(0.,0.,1.));
#1072=DIRECTION('',(0.,0.,1.));
#1073=DIRECTION('center_axis',(-1.,0.,0.));
#1074=DIRECTION('ref_axis',(0.,-1.,0.));
#1075=DIRECTION('center_axis',(-1.,0.,0.));
#1076=DIRECTION('ref_axis',(0.,-1.,0.));
#1077=CARTESIAN_POINT('',(0.,0.,0.));
#1078=CARTESIAN_POINT('Origin',(21.8977322866814,38.5350018303143,336.2));
#1079=CARTESIAN_POINT('',(21.8977322866814,38.5350018303143,336.2));
#1080=CARTESIAN_POINT('',(16.2260610902904,39.0554330680279,336.2));
#1081=CARTESIAN_POINT('',(43.5177188851177,36.5511568584944,336.2));
#1082=CARTESIAN_POINT('',(21.8977322866814,38.5350018303143,335.7));
#1083=CARTESIAN_POINT('',(21.8977322866814,38.5350018303143,336.2));
#1084=CARTESIAN_POINT('',(16.2260610902904,39.0554330680279,335.7));
#1085=CARTESIAN_POINT('',(16.2260610902904,39.0554330680279,335.7));
#1086=CARTESIAN_POINT('',(16.2260610902904,39.0554330680279,336.2));
#1087=CARTESIAN_POINT('Origin',(16.2260610902904,38.0145705926007,336.2));
#1088=CARTESIAN_POINT('',(16.2260610902904,38.0145705926007,336.2));
#1089=CARTESIAN_POINT('',(35.9697787293786,39.8262495584965,336.2));
#1090=CARTESIAN_POINT('',(16.2260610902904,38.0145705926007,335.7));
#1091=CARTESIAN_POINT('',(16.2260610902904,38.0145705926007,336.2));
#1092=CARTESIAN_POINT('',(16.2260610902904,38.0145705926007,335.7));
#1093=CARTESIAN_POINT('Origin',(16.0067229975271,38.5350018303143,336.2));
#1094=CARTESIAN_POINT('',(16.0067229975271,38.5350018303143,336.2));
#1095=CARTESIAN_POINT('',(28.6476425954386,8.54144553875826,336.2));
#1096=CARTESIAN_POINT('',(16.0067229975271,38.5350018303143,335.7));
#1097=CARTESIAN_POINT('',(16.0067229975271,38.5350018303143,336.2));
#1098=CARTESIAN_POINT('',(16.0067229975271,38.5350018303143,335.7));
#1099=CARTESIAN_POINT('Origin',(16.2260610902904,39.0554330680279,336.2));
#1100=CARTESIAN_POINT('',(10.2242107670344,24.8146308756134,336.2));
#1101=CARTESIAN_POINT('',(16.0067229975271,38.5350018303143,335.7));
#1102=CARTESIAN_POINT('Origin',(16.9100009931717,39.9300018965732,336.2));
#1103=CARTESIAN_POINT('',(16.9100009931717,39.9300018965732,336.2));
#1104=CARTESIAN_POINT('',(15.8700009437744,39.4200018723495,336.2));
#1105=CARTESIAN_POINT('',(24.0690789986286,43.4407036107877,336.2));
#1106=CARTESIAN_POINT('',(16.9100009931717,39.9300018965732,335.7));
#1107=CARTESIAN_POINT('',(16.9100009931717,39.9300018965732,336.2));
#1108=CARTESIAN_POINT('',(15.8700009437744,39.4200018723495,335.7));
#1109=CARTESIAN_POINT('',(16.9100009931717,39.9300018965732,335.7));
#1110=CARTESIAN_POINT('',(15.8700009437744,39.4200018723495,336.2));
#1111=CARTESIAN_POINT('Origin',(20.099999461323,38.9999991282821,336.2));
#1112=CARTESIAN_POINT('',(20.099999461323,38.9999991282821,336.2));
#1113=CARTESIAN_POINT('',(45.8525930107697,31.4921637701221,336.2));
#1114=CARTESIAN_POINT('',(20.099999461323,38.9999991282821,335.7));
#1115=CARTESIAN_POINT('',(20.099999461323,38.9999991282821,336.2));
#1116=CARTESIAN_POINT('',(20.099999461323,38.9999991282821,335.7));
#1117=CARTESIAN_POINT('Origin',(15.8700009437744,39.4200018723495,336.2));
#1118=CARTESIAN_POINT('',(40.6802421840004,36.9565567059646,336.2));
#1119=CARTESIAN_POINT('',(15.8700009437744,39.4200018723495,335.7));
#1120=CARTESIAN_POINT('Origin',(20.099999461323,38.0700045323465,336.2));
#1121=CARTESIAN_POINT('',(20.099999461323,38.0700045323465,336.2));
#1122=CARTESIAN_POINT('',(15.8700009437744,37.650001788279,336.2));
#1123=CARTESIAN_POINT('',(37.7036299681464,39.8178947710174,336.2));
#1124=CARTESIAN_POINT('',(20.099999461323,38.0700045323465,335.7));
#1125=CARTESIAN_POINT('',(20.099999461323,38.0700045323465,336.2));
#1126=CARTESIAN_POINT('',(15.8700009437744,37.650001788279,335.7));
#1127=CARTESIAN_POINT('',(15.8700009437744,37.650001788279,335.7));
#1128=CARTESIAN_POINT('',(15.8700009437744,37.650001788279,336.2));
#1129=CARTESIAN_POINT('Origin',(16.9100009931717,37.1400017640553,336.2));
#1130=CARTESIAN_POINT('',(16.9100009931717,37.1400017640553,336.2));
#1131=CARTESIAN_POINT('',(30.3430015473012,41.0562192251367,336.2));
#1132=CARTESIAN_POINT('',(16.9100009931717,37.1400017640553,335.7));
#1133=CARTESIAN_POINT('',(16.9100009931717,37.1400017640553,336.2));
#1134=CARTESIAN_POINT('',(20.099999461323,38.0700045323465,335.7));
#1135=CARTESIAN_POINT('Origin',(15.8700009437744,37.650001788279,336.2));
#1136=CARTESIAN_POINT('',(44.0206933219948,23.8453353335748,336.2));
#1137=CARTESIAN_POINT('',(16.9100009931717,37.1400017640553,335.7));
#1138=CARTESIAN_POINT('Ctrl Pts',(2.29999985918403,26.1200047994498,336.2));
#1139=CARTESIAN_POINT('Ctrl Pts',(2.29999985918403,26.1200047994498,335.7));
#1140=CARTESIAN_POINT('Ctrl Pts',(2.30512647305381,26.3791605276192,336.2));
#1141=CARTESIAN_POINT('Ctrl Pts',(2.30512647305381,26.3791605276192,335.7));
#1142=CARTESIAN_POINT('Ctrl Pts',(2.34692912332994,26.9023853713307,336.2));
#1143=CARTESIAN_POINT('Ctrl Pts',(2.34692912332994,26.9023853713307,335.7));
#1144=CARTESIAN_POINT('Ctrl Pts',(2.50427954736811,27.7019588916132,336.2));
#1145=CARTESIAN_POINT('Ctrl Pts',(2.50427954736811,27.7019588916132,335.7));
#1146=CARTESIAN_POINT('Ctrl Pts',(2.90650462794384,28.7980494155179,336.2));
#1147=CARTESIAN_POINT('Ctrl Pts',(2.90650462794384,28.7980494155179,335.7));
#1148=CARTESIAN_POINT('Ctrl Pts',(3.74100411711223,30.2141096096426,336.2));
#1149=CARTESIAN_POINT('Ctrl Pts',(3.74100411711223,30.2141096096426,335.7));
#1150=CARTESIAN_POINT('Ctrl Pts',(4.90487572577934,31.6588012630823,336.2));
#1151=CARTESIAN_POINT('Ctrl Pts',(4.90487572577934,31.6588012630823,335.7));
#1152=CARTESIAN_POINT('Ctrl Pts',(6.36167290236143,33.0908517125404,336.2));
#1153=CARTESIAN_POINT('Ctrl Pts',(6.36167290236143,33.0908517125404,335.7));
#1154=CARTESIAN_POINT('Ctrl Pts',(8.01032962890308,34.434438165105,336.2));
#1155=CARTESIAN_POINT('Ctrl Pts',(8.01032962890308,34.434438165105,335.7));
#1156=CARTESIAN_POINT('Ctrl Pts',(9.79027554019612,35.660297807185,336.2));
#1157=CARTESIAN_POINT('Ctrl Pts',(9.79027554019612,35.660297807185,335.7));
#1158=CARTESIAN_POINT('Ctrl Pts',(11.6589171982144,36.7560083569349,336.2));
#1159=CARTESIAN_POINT('Ctrl Pts',(11.6589171982144,36.7560083569349,335.7));
#1160=CARTESIAN_POINT('Ctrl Pts',(13.206968316688,37.5294936752929,336.2));
#1161=CARTESIAN_POINT('Ctrl Pts',(13.206968316688,37.5294936752929,335.7));
#1162=CARTESIAN_POINT('Ctrl Pts',(14.3934440041024,38.0536367618564,336.2));
#1163=CARTESIAN_POINT('Ctrl Pts',(14.3934440041024,38.0536367618564,335.7));
#1164=CARTESIAN_POINT('Ctrl Pts',(15.1955766766683,38.3786218918709,336.2));
#1165=CARTESIAN_POINT('Ctrl Pts',(15.1955766766683,38.3786218918709,335.7));
#1166=CARTESIAN_POINT('Ctrl Pts',(15.5994287090309,38.5350018303143,336.2));
#1167=CARTESIAN_POINT('Ctrl Pts',(15.5994287090309,38.5350018303143,335.7));
#1168=CARTESIAN_POINT('',(2.29999985918403,26.1200047994498,336.2));
#1169=CARTESIAN_POINT('',(15.5994287090309,38.5350018303143,336.2));
#1170=CARTESIAN_POINT('Ctrl Pts',(2.29999985918403,26.1200047994498,336.2));
#1171=CARTESIAN_POINT('Ctrl Pts',(2.30512647305381,26.3791605276192,336.2));
#1172=CARTESIAN_POINT('Ctrl Pts',(2.34692912332994,26.9023853713307,336.2));
#1173=CARTESIAN_POINT('Ctrl Pts',(2.50427954736811,27.7019588916132,336.2));
#1174=CARTESIAN_POINT('Ctrl Pts',(2.90650462794384,28.7980494155179,336.2));
#1175=CARTESIAN_POINT('Ctrl Pts',(3.74100411711223,30.2141096096426,336.2));
#1176=CARTESIAN_POINT('Ctrl Pts',(4.90487572577934,31.6588012630823,336.2));
#1177=CARTESIAN_POINT('Ctrl Pts',(6.36167290236143,33.0908517125404,336.2));
#1178=CARTESIAN_POINT('Ctrl Pts',(8.01032962890308,34.434438165105,336.2));
#1179=CARTESIAN_POINT('Ctrl Pts',(9.79027554019612,35.660297807185,336.2));
#1180=CARTESIAN_POINT('Ctrl Pts',(11.6589171982144,36.7560083569349,336.2));
#1181=CARTESIAN_POINT('Ctrl Pts',(13.206968316688,37.5294936752929,336.2));
#1182=CARTESIAN_POINT('Ctrl Pts',(14.3934440041024,38.0536367618564,336.2));
#1183=CARTESIAN_POINT('Ctrl Pts',(15.1955766766683,38.3786218918709,336.2));
#1184=CARTESIAN_POINT('Ctrl Pts',(15.5994287090309,38.5350018303143,336.2));
#1185=CARTESIAN_POINT('',(2.29999985918403,26.1200047994498,335.7));
#1186=CARTESIAN_POINT('',(2.29999985918403,26.1200047994498,336.2));
#1187=CARTESIAN_POINT('',(15.5994287090309,38.5350018303143,335.7));
#1188=CARTESIAN_POINT('Ctrl Pts',(2.29999985918403,26.1200047994498,335.7));
#1189=CARTESIAN_POINT('Ctrl Pts',(2.30512647305381,26.3791605276192,335.7));
#1190=CARTESIAN_POINT('Ctrl Pts',(2.34692912332994,26.9023853713307,335.7));
#1191=CARTESIAN_POINT('Ctrl Pts',(2.50427954736811,27.7019588916132,335.7));
#1192=CARTESIAN_POINT('Ctrl Pts',(2.90650462794384,28.7980494155179,335.7));
#1193=CARTESIAN_POINT('Ctrl Pts',(3.74100411711223,30.2141096096426,335.7));
#1194=CARTESIAN_POINT('Ctrl Pts',(4.90487572577934,31.6588012630823,335.7));
#1195=CARTESIAN_POINT('Ctrl Pts',(6.36167290236143,33.0908517125404,335.7));
#1196=CARTESIAN_POINT('Ctrl Pts',(8.01032962890308,34.434438165105,335.7));
#1197=CARTESIAN_POINT('Ctrl Pts',(9.79027554019612,35.660297807185,335.7));
#1198=CARTESIAN_POINT('Ctrl Pts',(11.6589171982144,36.7560083569349,335.7));
#1199=CARTESIAN_POINT('Ctrl Pts',(13.206968316688,37.5294936752929,335.7));
#1200=CARTESIAN_POINT('Ctrl Pts',(14.3934440041024,38.0536367618564,335.7));
#1201=CARTESIAN_POINT('Ctrl Pts',(15.1955766766683,38.3786218918709,335.7));
#1202=CARTESIAN_POINT('Ctrl Pts',(15.5994287090309,38.5350018303143,335.7));
#1203=CARTESIAN_POINT('',(15.5994287090309,38.5350018303143,336.2));
#1204=CARTESIAN_POINT('Origin',(31.7575016983901,38.5350018303143,336.2));
#1205=CARTESIAN_POINT('',(31.7575016983901,38.5350018303143,336.2));
#1206=CARTESIAN_POINT('',(34.8006955621477,39.8175696118296,336.2));
#1207=CARTESIAN_POINT('',(31.7575016983901,38.5350018303143,335.7));
#1208=CARTESIAN_POINT('',(31.7575016983901,38.5350018303143,336.2));
#1209=CARTESIAN_POINT('',(2.29999985918403,26.1200047994498,335.7));
#1210=CARTESIAN_POINT('Origin',(2.29999985918403,50.9499988611788,336.2));
#1211=CARTESIAN_POINT('',(2.29999985918403,50.9499988611788,336.2));
#1212=CARTESIAN_POINT('',(38.6050455173305,35.6490735990305,336.2));
#1213=CARTESIAN_POINT('',(2.29999985918403,50.9499988611788,335.7));
#1214=CARTESIAN_POINT('',(2.29999985918403,50.9499988611788,336.2));
#1215=CARTESIAN_POINT('',(2.29999985918403,50.9499988611788,335.7));
#1216=CARTESIAN_POINT('Ctrl Pts',(15.5994287090309,38.5350018303143,336.2));
#1217=CARTESIAN_POINT('Ctrl Pts',(15.5994287090309,38.5350018303143,335.7));
#1218=CARTESIAN_POINT('Ctrl Pts',(15.1955766766683,38.6913817687576,336.2));
#1219=CARTESIAN_POINT('Ctrl Pts',(15.1955766766683,38.6913817687576,335.7));
#1220=CARTESIAN_POINT('Ctrl Pts',(14.3934440041024,39.0163668987722,336.2));
#1221=CARTESIAN_POINT('Ctrl Pts',(14.3934440041024,39.0163668987722,335.7));
#1222=CARTESIAN_POINT('Ctrl Pts',(13.206968316688,39.5405099853361,336.2));
#1223=CARTESIAN_POINT('Ctrl Pts',(13.206968316688,39.5405099853361,335.7));
#1224=CARTESIAN_POINT('Ctrl Pts',(11.6589171982144,40.3139953036944,336.2));
#1225=CARTESIAN_POINT('Ctrl Pts',(11.6589171982144,40.3139953036944,335.7));
#1226=CARTESIAN_POINT('Ctrl Pts',(9.79027554019612,41.4097058534444,336.2));
#1227=CARTESIAN_POINT('Ctrl Pts',(9.79027554019612,41.4097058534444,335.7));
#1228=CARTESIAN_POINT('Ctrl Pts',(8.01032962890308,42.6355654955239,336.2));
#1229=CARTESIAN_POINT('Ctrl Pts',(8.01032962890308,42.6355654955239,335.7));
#1230=CARTESIAN_POINT('Ctrl Pts',(6.36167290236143,43.9791519480881,336.2));
#1231=CARTESIAN_POINT('Ctrl Pts',(6.36167290236143,43.9791519480881,335.7));
#1232=CARTESIAN_POINT('Ctrl Pts',(4.90487572577934,45.4112023975463,336.2));
#1233=CARTESIAN_POINT('Ctrl Pts',(4.90487572577934,45.4112023975463,335.7));
#1234=CARTESIAN_POINT('Ctrl Pts',(3.74100411711223,46.8558940509862,336.2));
#1235=CARTESIAN_POINT('Ctrl Pts',(3.74100411711223,46.8558940509862,335.7));
#1236=CARTESIAN_POINT('Ctrl Pts',(2.90650462794384,48.271954245111,336.2));
#1237=CARTESIAN_POINT('Ctrl Pts',(2.90650462794384,48.271954245111,335.7));
#1238=CARTESIAN_POINT('Ctrl Pts',(2.50427954736811,49.3680447690156,336.2));
#1239=CARTESIAN_POINT('Ctrl Pts',(2.50427954736811,49.3680447690156,335.7));
#1240=CARTESIAN_POINT('Ctrl Pts',(2.34692912332994,50.1676182892979,336.2));
#1241=CARTESIAN_POINT('Ctrl Pts',(2.34692912332994,50.1676182892979,335.7));
#1242=CARTESIAN_POINT('Ctrl Pts',(2.30512647305381,50.6908431330094,336.2));
#1243=CARTESIAN_POINT('Ctrl Pts',(2.30512647305381,50.6908431330094,335.7));
#1244=CARTESIAN_POINT('Ctrl Pts',(2.29999985918403,50.9499988611788,336.2));
#1245=CARTESIAN_POINT('Ctrl Pts',(2.29999985918403,50.9499988611788,335.7));
#1246=CARTESIAN_POINT('Ctrl Pts',(15.5994287090309,38.5350018303143,336.2));
#1247=CARTESIAN_POINT('Ctrl Pts',(15.1955766766683,38.6913817687576,336.2));
#1248=CARTESIAN_POINT('Ctrl Pts',(14.3934440041024,39.0163668987722,336.2));
#1249=CARTESIAN_POINT('Ctrl Pts',(13.206968316688,39.5405099853361,336.2));
#1250=CARTESIAN_POINT('Ctrl Pts',(11.6589171982144,40.3139953036944,336.2));
#1251=CARTESIAN_POINT('Ctrl Pts',(9.79027554019612,41.4097058534444,336.2));
#1252=CARTESIAN_POINT('Ctrl Pts',(8.01032962890308,42.6355654955239,336.2));
#1253=CARTESIAN_POINT('Ctrl Pts',(6.36167290236143,43.9791519480881,336.2));
#1254=CARTESIAN_POINT('Ctrl Pts',(4.90487572577934,45.4112023975463,336.2));
#1255=CARTESIAN_POINT('Ctrl Pts',(3.74100411711223,46.8558940509862,336.2));
#1256=CARTESIAN_POINT('Ctrl Pts',(2.90650462794384,48.271954245111,336.2));
#1257=CARTESIAN_POINT('Ctrl Pts',(2.50427954736811,49.3680447690156,336.2));
#1258=CARTESIAN_POINT('Ctrl Pts',(2.34692912332994,50.1676182892979,336.2));
#1259=CARTESIAN_POINT('Ctrl Pts',(2.30512647305381,50.6908431330094,336.2));
#1260=CARTESIAN_POINT('Ctrl Pts',(2.29999985918403,50.9499988611788,336.2));
#1261=CARTESIAN_POINT('Ctrl Pts',(15.5994287090309,38.5350018303143,335.7));
#1262=CARTESIAN_POINT('Ctrl Pts',(15.1955766766683,38.6913817687576,335.7));
#1263=CARTESIAN_POINT('Ctrl Pts',(14.3934440041024,39.0163668987722,335.7));
#1264=CARTESIAN_POINT('Ctrl Pts',(13.206968316688,39.5405099853361,335.7));
#1265=CARTESIAN_POINT('Ctrl Pts',(11.6589171982144,40.3139953036944,335.7));
#1266=CARTESIAN_POINT('Ctrl Pts',(9.79027554019612,41.4097058534444,335.7));
#1267=CARTESIAN_POINT('Ctrl Pts',(8.01032962890308,42.6355654955239,335.7));
#1268=CARTESIAN_POINT('Ctrl Pts',(6.36167290236143,43.9791519480881,335.7));
#1269=CARTESIAN_POINT('Ctrl Pts',(4.90487572577934,45.4112023975463,335.7));
#1270=CARTESIAN_POINT('Ctrl Pts',(3.74100411711223,46.8558940509862,335.7));
#1271=CARTESIAN_POINT('Ctrl Pts',(2.90650462794384,48.271954245111,335.7));
#1272=CARTESIAN_POINT('Ctrl Pts',(2.50427954736811,49.3680447690156,335.7));
#1273=CARTESIAN_POINT('Ctrl Pts',(2.34692912332994,50.1676182892979,335.7));
#1274=CARTESIAN_POINT('Ctrl Pts',(2.30512647305381,50.6908431330094,335.7));
#1275=CARTESIAN_POINT('Ctrl Pts',(2.29999985918403,50.9499988611788,335.7));
#1276=CARTESIAN_POINT('Origin',(17.0287507787871,38.5350018303143,335.7));
#1277=CARTESIAN_POINT('Origin',(60.75,-13.25,336.2));
#1278=CARTESIAN_POINT('Origin',(60.75,-13.25,336.2));
#1279=CARTESIAN_POINT('Origin',(60.75,-13.25,336.2));
#1280=CARTESIAN_POINT('Origin',(19.25,38.,336.2));
#1281=CARTESIAN_POINT('',(-7.56155550916423,15.5024336609711,336.2));
#1282=CARTESIAN_POINT('',(-7.56155550916422,60.4975663390289,336.2));
#1283=CARTESIAN_POINT('Origin',(19.25,38.,336.2));
#1284=CARTESIAN_POINT('',(-7.56155550916423,15.5024336609711,332.2));
#1285=CARTESIAN_POINT('',(-7.56155550916423,15.5024336609711,336.2));
#1286=CARTESIAN_POINT('',(-7.56155550916422,60.4975663390289,332.2));
#1287=CARTESIAN_POINT('Origin',(19.25,38.,332.2));
#1288=CARTESIAN_POINT('',(-7.56155550916422,60.4975663390289,336.2));
#1289=CARTESIAN_POINT('Origin',(-3.73133329356935,18.7163717094038,336.2));
#1290=CARTESIAN_POINT('',(0.0988888741341297,21.9303098149113,336.2));
#1291=CARTESIAN_POINT('Origin',(-3.73133329356935,18.7163717094038,336.2));
#1292=CARTESIAN_POINT('',(0.0988888741341297,21.9303098149113,332.2));
#1293=CARTESIAN_POINT('',(0.0988888741341297,21.9303098149113,336.2));
#1294=CARTESIAN_POINT('Origin',(-3.73133329356935,18.7163717094038,332.2));
#1295=CARTESIAN_POINT('Origin',(19.25,38.,336.2));
#1296=CARTESIAN_POINT('',(0.098888922025544,54.0696902421635,336.2));
#1297=CARTESIAN_POINT('Origin',(19.25,38.,336.2));
#1298=CARTESIAN_POINT('',(0.098888922025544,54.0696902421635,332.2));
#1299=CARTESIAN_POINT('',(0.098888922025544,54.0696902421635,336.2));
#1300=CARTESIAN_POINT('Origin',(19.25,38.,332.2));
#1301=CARTESIAN_POINT('Origin',(-3.73133329356934,57.2836282905962,336.2));
#1302=CARTESIAN_POINT('Origin',(-3.73133329356934,57.2836282905962,336.2));
#1303=CARTESIAN_POINT('Origin',(-3.73133329356934,57.2836282905962,332.2));
#1304=CARTESIAN_POINT('Origin',(-7.24066664678467,38.,332.2));
#1305=CARTESIAN_POINT('Origin',(19.25,38.,336.2));
#1306=CARTESIAN_POINT('',(46.0615555091642,60.4975663390289,336.2));
#1307=CARTESIAN_POINT('',(46.0615555091642,15.5024336609711,336.2));
#1308=CARTESIAN_POINT('Origin',(19.25,38.,336.2));
#1309=CARTESIAN_POINT('',(46.0615555091642,60.4975663390289,332.2));
#1310=CARTESIAN_POINT('',(46.0615555091642,60.4975663390289,336.2));
#1311=CARTESIAN_POINT('',(46.0615555091642,15.5024336609711,332.2));
#1312=CARTESIAN_POINT('Origin',(19.25,38.,332.2));
#1313=CARTESIAN_POINT('',(46.0615555091642,15.5024336609711,336.2));
#1314=CARTESIAN_POINT('Origin',(42.2313332935693,57.2836282905962,336.2));
#1315=CARTESIAN_POINT('',(38.4011110779745,54.0696902421635,336.2));
#1316=CARTESIAN_POINT('Origin',(42.2313332935693,57.2836282905962,336.2));
#1317=CARTESIAN_POINT('',(38.4011110779745,54.0696902421635,332.2));
#1318=CARTESIAN_POINT('',(38.4011110779745,54.0696902421635,336.2));
#1319=CARTESIAN_POINT('Origin',(42.2313332935693,57.2836282905962,332.2));
#1320=CARTESIAN_POINT('Origin',(19.25,38.,336.2));
#1321=CARTESIAN_POINT('',(38.4011110779744,21.9303097578365,336.2));
#1322=CARTESIAN_POINT('Origin',(19.25,38.,336.2));
#1323=CARTESIAN_POINT('',(38.4011110779744,21.9303097578365,332.2));
#1324=CARTESIAN_POINT('',(38.4011110779744,21.9303097578365,336.2));
#1325=CARTESIAN_POINT('Origin',(19.25,38.,332.2));
#1326=CARTESIAN_POINT('Origin',(42.2313332935693,18.7163717094038,336.2));
#1327=CARTESIAN_POINT('Origin',(42.2313332935693,18.7163717094038,336.2));
#1328=CARTESIAN_POINT('Origin',(42.2313332935693,18.7163717094038,332.2));
#1329=CARTESIAN_POINT('Origin',(45.7406666467847,38.,332.2));
#1330=CARTESIAN_POINT('Origin',(60.75,88.75,331.2));
#1331=CARTESIAN_POINT('',(60.75,88.75,331.2));
#1332=CARTESIAN_POINT('',(60.75,-12.75,331.2));
#1333=CARTESIAN_POINT('',(60.75,89.25,331.2));
#1334=CARTESIAN_POINT('',(-22.25,-12.75,331.2));
#1335=CARTESIAN_POINT('',(60.75,-12.75,331.2));
#1336=CARTESIAN_POINT('',(-22.25,88.75,331.2));
#1337=CARTESIAN_POINT('',(-22.25,89.25,331.2));
#1338=CARTESIAN_POINT('',(60.75,88.75,331.2));
#1339=CARTESIAN_POINT('Origin',(60.75,88.75,332.2));
#1340=CARTESIAN_POINT('',(60.75,88.75,332.2));
#1341=CARTESIAN_POINT('',(60.75,88.75,331.2));
#1342=CARTESIAN_POINT('',(-22.25,88.75,332.2));
#1343=CARTESIAN_POINT('',(-22.25,88.75,331.2));
#1344=CARTESIAN_POINT('',(60.75,88.75,332.2));
#1345=CARTESIAN_POINT('Origin',(60.75,89.25,332.2));
#1346=CARTESIAN_POINT('',(60.75,89.25,332.2));
#1347=CARTESIAN_POINT('',(60.75,88.75,332.2));
#1348=CARTESIAN_POINT('',(-22.25,89.25,332.2));
#1349=CARTESIAN_POINT('',(-22.25,88.75,332.2));
#1350=CARTESIAN_POINT('',(60.75,89.25,332.2));
#1351=CARTESIAN_POINT('Origin',(60.75,89.25,334.2));
#1352=CARTESIAN_POINT('',(60.75,89.25,334.2));
#1353=CARTESIAN_POINT('',(60.75,89.25,334.2));
#1354=CARTESIAN_POINT('',(-22.25,89.25,334.2));
#1355=CARTESIAN_POINT('',(-22.25,89.25,334.2));
#1356=CARTESIAN_POINT('',(60.75,89.25,334.2));
#1357=CARTESIAN_POINT('Origin',(60.75,99.25,334.2));
#1358=CARTESIAN_POINT('',(60.75,99.25,334.2));
#1359=CARTESIAN_POINT('',(60.75,99.25,334.2));
#1360=CARTESIAN_POINT('',(-22.25,99.25,334.2));
#1361=CARTESIAN_POINT('',(-22.25,99.25,334.2));
#1362=CARTESIAN_POINT('',(60.75,99.25,334.2));
#1363=CARTESIAN_POINT('Origin',(60.75,99.25,334.484271247462));
#1364=CARTESIAN_POINT('',(60.75,99.25,334.484271247462));
#1365=CARTESIAN_POINT('',(60.75,99.25,334.484271247462));
#1366=CARTESIAN_POINT('',(-22.25,99.25,334.484271247462));
#1367=CARTESIAN_POINT('',(-22.25,99.25,334.484271247462));
#1368=CARTESIAN_POINT('',(60.75,99.25,334.484271247462));
#1369=CARTESIAN_POINT('Origin',(60.75,89.25,306.2));
#1370=CARTESIAN_POINT('',(60.75,89.25,336.2));
#1371=CARTESIAN_POINT('Origin',(60.75,89.25,306.2));
#1372=CARTESIAN_POINT('',(-22.25,89.25,336.2));
#1373=CARTESIAN_POINT('Origin',(-22.25,89.25,306.2));
#1374=CARTESIAN_POINT('',(60.75,89.25,336.2));
#1375=CARTESIAN_POINT('Origin',(60.75,-13.25,336.2));
#1376=CARTESIAN_POINT('',(60.75,-13.25,336.2));
#1377=CARTESIAN_POINT('',(60.75,-13.25,336.2));
#1378=CARTESIAN_POINT('',(-22.25,-13.25,336.2));
#1379=CARTESIAN_POINT('',(-22.25,-13.25,336.2));
#1380=CARTESIAN_POINT('',(60.75,-13.25,336.2));
#1381=CARTESIAN_POINT('Origin',(60.75,-13.2500000000001,306.2));
#1382=CARTESIAN_POINT('',(60.75,-23.25,334.484271247462));
#1383=CARTESIAN_POINT('Origin',(60.75,-13.2500000000001,306.2));
#1384=CARTESIAN_POINT('',(-22.25,-23.25,334.484271247462));
#1385=CARTESIAN_POINT('Origin',(-22.25,-13.2500000000001,306.2));
#1386=CARTESIAN_POINT('',(60.75,-23.25,334.484271247462));
#1387=CARTESIAN_POINT('Origin',(60.75,-23.25,334.2));
#1388=CARTESIAN_POINT('',(60.75,-23.25,334.2));
#1389=CARTESIAN_POINT('',(60.75,-23.25,332.2));
#1390=CARTESIAN_POINT('',(-22.25,-23.25,334.2));
#1391=CARTESIAN_POINT('',(-22.25,-23.25,332.2));
#1392=CARTESIAN_POINT('',(60.75,-23.25,334.2));
#1393=CARTESIAN_POINT('Origin',(60.75,-13.25,334.2));
#1394=CARTESIAN_POINT('',(60.75,-13.25,334.2));
#1395=CARTESIAN_POINT('',(60.75,-23.25,334.2));
#1396=CARTESIAN_POINT('',(-22.25,-13.25,334.2));
#1397=CARTESIAN_POINT('',(-22.25,-23.25,334.2));
#1398=CARTESIAN_POINT('',(60.75,-13.25,334.2));
#1399=CARTESIAN_POINT('Origin',(60.75,-13.25,332.2));
#1400=CARTESIAN_POINT('',(60.75,-13.25,332.2));
#1401=CARTESIAN_POINT('',(60.75,-13.25,334.2));
#1402=CARTESIAN_POINT('',(-22.25,-13.25,332.2));
#1403=CARTESIAN_POINT('',(-22.25,-13.25,334.2));
#1404=CARTESIAN_POINT('',(60.75,-13.25,332.2));
#1405=CARTESIAN_POINT('Origin',(60.75,-12.75,332.2));
#1406=CARTESIAN_POINT('',(60.75,-12.75,332.2));
#1407=CARTESIAN_POINT('',(60.75,-12.75,332.2));
#1408=CARTESIAN_POINT('',(-22.25,-12.75,332.2));
#1409=CARTESIAN_POINT('',(-22.25,-12.75,332.2));
#1410=CARTESIAN_POINT('',(60.75,-12.75,332.2));
#1411=CARTESIAN_POINT('Origin',(60.75,-12.75,331.2));
#1412=CARTESIAN_POINT('',(60.75,-12.75,331.2));
#1413=CARTESIAN_POINT('',(-22.25,-12.75,331.2));
#1414=CARTESIAN_POINT('Origin',(-22.25,38.,333.7));
#1415=CARTESIAN_POINT('Origin',(60.75,38.,333.7));
#1416=UNCERTAINTY_MEASURE_WITH_UNIT(LENGTH_MEASURE(0.01),#1420,
'DISTANCE_ACCURACY_VALUE',
'Maximum model space distance between geometric entities at asserted c
onnectivities');
#1417=UNCERTAINTY_MEASURE_WITH_UNIT(LENGTH_MEASURE(0.01),#1420,
'DISTANCE_ACCURACY_VALUE',
'Maximum model space distance between geometric entities at asserted c
onnectivities');
#1418=(
GEOMETRIC_REPRESENTATION_CONTEXT(3)
GLOBAL_UNCERTAINTY_ASSIGNED_CONTEXT((#1416))
GLOBAL_UNIT_ASSIGNED_CONTEXT((#1420,#1422,#1423))
REPRESENTATION_CONTEXT('','3D')
);
#1419=(
GEOMETRIC_REPRESENTATION_CONTEXT(3)
GLOBAL_UNCERTAINTY_ASSIGNED_CONTEXT((#1417))
GLOBAL_UNIT_ASSIGNED_CONTEXT((#1420,#1422,#1423))
REPRESENTATION_CONTEXT('','3D')
);
#1420=(
LENGTH_UNIT()
NAMED_UNIT(*)
SI_UNIT(.MILLI.,.METRE.)
);
#1421=(
LENGTH_UNIT()
NAMED_UNIT(*)
SI_UNIT($,.METRE.)
);
#1422=(
NAMED_UNIT(*)
PLANE_ANGLE_UNIT()
SI_UNIT($,.RADIAN.)
);
#1423=(
NAMED_UNIT(*)
SI_UNIT($,.STERADIAN.)
SOLID_ANGLE_UNIT()
);
#1424=SHAPE_DEFINITION_REPRESENTATION(#1425,#1426);
#1425=PRODUCT_DEFINITION_SHAPE('',$,#1428);
#1426=SHAPE_REPRESENTATION('',(#804),#1418);
#1427=PRODUCT_DEFINITION_CONTEXT('part definition',#1432,'design');
#1428=PRODUCT_DEFINITION('FusionComponent','FusionComponent',#1429,#1427);
#1429=PRODUCT_DEFINITION_FORMATION('',$,#1434);
#1430=PRODUCT_RELATED_PRODUCT_CATEGORY('FusionComponent',
'FusionComponent',(#1434));
#1431=APPLICATION_PROTOCOL_DEFINITION('international standard',
'automotive_design',2009,#1432);
#1432=APPLICATION_CONTEXT(
'Core Data for Automotive Mechanical Design Process');
#1433=PRODUCT_CONTEXT('part definition',#1432,'mechanical');
#1434=PRODUCT('FusionComponent','FusionComponent',$,(#1433));
#1435=PRESENTATION_STYLE_ASSIGNMENT((#1436));
#1436=SURFACE_STYLE_USAGE(.BOTH.,#1437);
#1437=SURFACE_SIDE_STYLE('',(#1438));
#1438=SURFACE_STYLE_FILL_AREA(#1439);
#1439=FILL_AREA_STYLE('Steel - Satin',(#1440));
#1440=FILL_AREA_STYLE_COLOUR('Steel - Satin',#1441);
#1441=COLOUR_RGB('Steel - Satin',0.627450980392157,0.627450980392157,0.627450980392157);
ENDSEC;
END-ISO-10303-21;
