%TF.GenerationSoftware,KiCad,Pcbnew,9.0.5*%
%TF.CreationDate,2026-07-29T10:51:06+02:00*%
%TF.ProjectId,axis_pcb_v3,61786973-5f70-4636-925f-76332e6b6963,rev?*%
%TF.SameCoordinates,Original*%
%TF.FileFunction,Soldermask,Top*%
%TF.FilePolarity,Negative*%
%FSLAX46Y46*%
G04 Gerber Fmt 4.6, Leading zero omitted, Abs format (unit mm)*
G04 Created by KiCad (PCBNEW 9.0.5) date 2026-07-29 10:51:06*
%MOMM*%
%LPD*%
G01*
G04 APERTURE LIST*
G04 Aperture macros list*
%AMRoundRect*
0 Rectangle with rounded corners*
0 $1 Rounding radius*
0 $2 $3 $4 $5 $6 $7 $8 $9 X,Y pos of 4 corners*
0 Add a 4 corners polygon primitive as box body*
4,1,4,$2,$3,$4,$5,$6,$7,$8,$9,$2,$3,0*
0 Add four circle primitives for the rounded corners*
1,1,$1+$1,$2,$3*
1,1,$1+$1,$4,$5*
1,1,$1+$1,$6,$7*
1,1,$1+$1,$8,$9*
0 Add four rect primitives between the rounded corners*
20,1,$1+$1,$2,$3,$4,$5,0*
20,1,$1+$1,$4,$5,$6,$7,0*
20,1,$1+$1,$6,$7,$8,$9,0*
20,1,$1+$1,$8,$9,$2,$3,0*%
G04 Aperture macros list end*
%ADD10RoundRect,0.243750X0.243750X0.456250X-0.243750X0.456250X-0.243750X-0.456250X0.243750X-0.456250X0*%
%ADD11R,1.700000X1.700000*%
%ADD12RoundRect,0.250000X-0.475000X0.250000X-0.475000X-0.250000X0.475000X-0.250000X0.475000X0.250000X0*%
%ADD13C,1.500000*%
%ADD14C,1.700000*%
%ADD15RoundRect,0.250000X-1.050000X1.050000X-1.050000X-1.050000X1.050000X-1.050000X1.050000X1.050000X0*%
%ADD16C,2.600000*%
%ADD17RoundRect,0.250000X1.050000X-1.050000X1.050000X1.050000X-1.050000X1.050000X-1.050000X-1.050000X0*%
%ADD18RoundRect,0.250000X-1.050000X-1.050000X1.050000X-1.050000X1.050000X1.050000X-1.050000X1.050000X0*%
%ADD19RoundRect,0.250000X-0.750000X-0.750000X0.750000X-0.750000X0.750000X0.750000X-0.750000X0.750000X0*%
%ADD20C,2.000000*%
%ADD21RoundRect,0.250000X1.050000X1.050000X-1.050000X1.050000X-1.050000X-1.050000X1.050000X-1.050000X0*%
%ADD22RoundRect,0.250000X0.650000X-1.000000X0.650000X1.000000X-0.650000X1.000000X-0.650000X-1.000000X0*%
%ADD23RoundRect,0.250000X0.550000X-0.550000X0.550000X0.550000X-0.550000X0.550000X-0.550000X-0.550000X0*%
%ADD24C,1.600000*%
%ADD25RoundRect,0.250000X0.750000X-0.600000X0.750000X0.600000X-0.750000X0.600000X-0.750000X-0.600000X0*%
%ADD26O,2.000000X1.700000*%
%ADD27C,2.780000*%
%ADD28RoundRect,0.250000X-0.550000X-0.550000X0.550000X-0.550000X0.550000X0.550000X-0.550000X0.550000X0*%
%ADD29RoundRect,0.250000X-0.250000X-0.475000X0.250000X-0.475000X0.250000X0.475000X-0.250000X0.475000X0*%
%ADD30RoundRect,0.250000X-0.450000X0.262500X-0.450000X-0.262500X0.450000X-0.262500X0.450000X0.262500X0*%
%TA.AperFunction,Profile*%
%ADD31C,0.050000*%
%TD*%
G04 APERTURE END LIST*
D10*
%TO.C,D1*%
X216042677Y-133487500D03*
X214167677Y-133487500D03*
%TD*%
D11*
%TO.C,J4*%
X183652651Y-79500000D03*
%TD*%
D12*
%TO.C,C5*%
X174000000Y-66800000D03*
X174000000Y-68700000D03*
%TD*%
D13*
%TO.C,TP2*%
X210867677Y-77000000D03*
%TD*%
D11*
%TO.C,J6*%
X169500000Y-104320000D03*
D14*
X169500000Y-101780000D03*
X169500000Y-99240000D03*
X169500000Y-96700000D03*
X169500000Y-94160000D03*
X169500000Y-91620000D03*
X169500000Y-89080000D03*
X169500000Y-86540000D03*
X169500000Y-84000000D03*
X169500000Y-81460000D03*
X169500000Y-78920000D03*
X169500000Y-76380000D03*
X169500000Y-73840000D03*
X169500000Y-71300000D03*
X169500000Y-68760000D03*
%TD*%
D15*
%TO.C,J14*%
X145500000Y-143500000D03*
D16*
X145500000Y-148500000D03*
%TD*%
D13*
%TO.C,TP4*%
X139000000Y-68700000D03*
%TD*%
D17*
%TO.C,J13*%
X168000000Y-148500000D03*
D16*
X168000000Y-143500000D03*
%TD*%
D18*
%TO.C,J15*%
X121500000Y-129000000D03*
D16*
X126500000Y-129000000D03*
X131500000Y-129000000D03*
X136500000Y-129000000D03*
%TD*%
D13*
%TO.C,TP1*%
X214200000Y-114000000D03*
%TD*%
D19*
%TO.C,C1*%
X214200000Y-122000000D03*
D20*
X219200000Y-122000000D03*
%TD*%
D21*
%TO.C,J1*%
X215867677Y-67500000D03*
D16*
X210867677Y-67500000D03*
%TD*%
D22*
%TO.C,D2*%
X215867677Y-82000000D03*
X215867677Y-78000000D03*
%TD*%
D11*
%TO.C,J10*%
X125500000Y-104400000D03*
D14*
X125500000Y-101860000D03*
X125500000Y-99320000D03*
X125500000Y-96780000D03*
X125500000Y-94240000D03*
X125500000Y-91700000D03*
X125500000Y-89160000D03*
X125500000Y-86620000D03*
X125500000Y-84080000D03*
X125500000Y-81540000D03*
%TD*%
D23*
%TO.C,C4*%
X178500000Y-132000000D03*
D24*
X178500000Y-128500000D03*
%TD*%
D11*
%TO.C,J9*%
X168040000Y-117260000D03*
D14*
X165500000Y-117260000D03*
X162960000Y-117260000D03*
X160420000Y-117260000D03*
X157880000Y-117260000D03*
X155340000Y-117260000D03*
X152800000Y-117260000D03*
X150260000Y-117260000D03*
%TD*%
D11*
%TO.C,J3*%
X200952651Y-119500000D03*
%TD*%
%TO.C,J8*%
X144100000Y-104260000D03*
D14*
X144100000Y-101720000D03*
X144100000Y-99180000D03*
X144100000Y-96640000D03*
X144100000Y-94100000D03*
X144100000Y-91560000D03*
X144100000Y-89020000D03*
X144100000Y-86480000D03*
X144100000Y-83940000D03*
X144100000Y-81400000D03*
X144100000Y-78860000D03*
X144100000Y-76320000D03*
X144100000Y-73780000D03*
X144100000Y-71240000D03*
X144100000Y-68700000D03*
%TD*%
D11*
%TO.C,J11*%
X168080000Y-132500000D03*
D14*
X165540000Y-132500000D03*
X163000000Y-132500000D03*
X160460000Y-132500000D03*
X157920000Y-132500000D03*
X155380000Y-132500000D03*
X152840000Y-132500000D03*
X150300000Y-132500000D03*
%TD*%
D11*
%TO.C,J7*%
X125500000Y-71820000D03*
D14*
X125500000Y-69280000D03*
X125500000Y-66740000D03*
X125500000Y-64200000D03*
%TD*%
D11*
%TO.C,J5*%
X200952651Y-79500000D03*
%TD*%
D25*
%TO.C,J16*%
X214200000Y-108500000D03*
D26*
X214200000Y-106000000D03*
%TD*%
D27*
%TO.C,F1*%
X217567677Y-88040000D03*
X214167677Y-88040000D03*
X217567677Y-97960000D03*
X214167677Y-97960000D03*
%TD*%
D11*
%TO.C,J2*%
X183652651Y-119500000D03*
%TD*%
D28*
%TO.C,C2*%
X183600000Y-68700000D03*
D24*
X187100000Y-68700000D03*
%TD*%
D13*
%TO.C,TP3*%
X183600000Y-75100000D03*
%TD*%
D29*
%TO.C,C6*%
X166150000Y-135900000D03*
X168050000Y-135900000D03*
%TD*%
D30*
%TO.C,R1*%
X214167677Y-128575000D03*
X214167677Y-130400000D03*
%TD*%
D18*
%TO.C,J12*%
X99500000Y-129000000D03*
D16*
X104500000Y-129000000D03*
X109500000Y-129000000D03*
X114500000Y-129000000D03*
%TD*%
D31*
X92900000Y-131600000D02*
G75*
G02*
X88100000Y-131600000I-2400000J0D01*
G01*
X88100000Y-131600000D02*
G75*
G02*
X92900000Y-131600000I2400000J0D01*
G01*
X139500000Y-136000000D02*
X86500000Y-136000000D01*
X86500000Y-136000000D02*
X86500000Y-61500000D01*
X139500000Y-152500000D02*
X139500000Y-136000000D01*
X92900000Y-65600000D02*
G75*
G02*
X88100000Y-65600000I-2400000J0D01*
G01*
X88100000Y-65600000D02*
G75*
G02*
X92900000Y-65600000I2400000J0D01*
G01*
X86500000Y-61500000D02*
X227000000Y-61500000D01*
X174000000Y-136000000D02*
X174000000Y-152500000D01*
X225400000Y-65600000D02*
G75*
G02*
X220600000Y-65600000I-2400000J0D01*
G01*
X220600000Y-65600000D02*
G75*
G02*
X225400000Y-65600000I2400000J0D01*
G01*
X174000000Y-152500000D02*
X139500000Y-152500000D01*
X225400000Y-131600000D02*
G75*
G02*
X220600000Y-131600000I-2400000J0D01*
G01*
X220600000Y-131600000D02*
G75*
G02*
X225400000Y-131600000I2400000J0D01*
G01*
X227000000Y-136000000D02*
X174000000Y-136000000D01*
X227000000Y-61500000D02*
X227000000Y-136000000D01*
M02*
