M48
; DRILL file {KiCad 9.0.5} date 2026-07-29T10:51:35+0200
; FORMAT={-:-/ absolute / metric / decimal}
; #@! TF.CreationDate,2026-07-29T10:51:35+02:00
; #@! TF.GenerationSoftware,Kicad,Pcbnew,9.0.5
; #@! TF.FileFunction,Plated,1,2,PTH
FMAT,2
METRIC
; #@! TA.AperFunction,Plated,PTH,ViaDrill
T1C0.300
; #@! TA.AperFunction,Plated,PTH,ComponentDrill
T2C0.800
; #@! TA.AperFunction,Plated,PTH,ComponentDrill
T3C1.000
; #@! TA.AperFunction,Plated,PTH,ComponentDrill
T4C1.300
; #@! TA.AperFunction,Plated,PTH,ComponentDrill
T5C1.780
%
G90
G05
T1
X107.3Y-119.9
X107.3Y-120.7
X117.2Y-99.3
X118.2Y-96.8
X131.6Y-119.9
X131.6Y-120.7
X160.4Y-123.9
X166.2Y-137.3
X175.6Y-66.8
X209.4Y-77.0
X216.1Y-131.9
T2
X178.5Y-128.5
X178.5Y-132.0
X183.6Y-68.7
X187.1Y-68.7
T3
X125.5Y-64.2
X125.5Y-66.74
X125.5Y-69.28
X125.5Y-71.82
X125.5Y-81.54
X125.5Y-84.08
X125.5Y-86.62
X125.5Y-89.16
X125.5Y-91.7
X125.5Y-94.24
X125.5Y-96.78
X125.5Y-99.32
X125.5Y-101.86
X125.5Y-104.4
X144.1Y-68.7
X144.1Y-71.24
X144.1Y-73.78
X144.1Y-76.32
X144.1Y-78.86
X144.1Y-81.4
X144.1Y-83.94
X144.1Y-86.48
X144.1Y-89.02
X144.1Y-91.56
X144.1Y-94.1
X144.1Y-96.64
X144.1Y-99.18
X144.1Y-101.72
X144.1Y-104.26
X150.26Y-117.26
X150.3Y-132.5
X152.8Y-117.26
X152.84Y-132.5
X155.34Y-117.26
X155.38Y-132.5
X157.88Y-117.26
X157.92Y-132.5
X160.42Y-117.26
X160.46Y-132.5
X162.96Y-117.26
X163.0Y-132.5
X165.5Y-117.26
X165.54Y-132.5
X168.04Y-117.26
X168.08Y-132.5
X169.5Y-68.76
X169.5Y-71.3
X169.5Y-73.84
X169.5Y-76.38
X169.5Y-78.92
X169.5Y-81.46
X169.5Y-84.0
X169.5Y-86.54
X169.5Y-89.08
X169.5Y-91.62
X169.5Y-94.16
X169.5Y-96.7
X169.5Y-99.24
X169.5Y-101.78
X169.5Y-104.32
X183.653Y-79.5
X183.653Y-119.5
X200.953Y-79.5
X200.953Y-119.5
X214.2Y-106.0
X214.2Y-108.5
X214.2Y-122.0
X219.2Y-122.0
T4
X99.5Y-129.0
X104.5Y-129.0
X109.5Y-129.0
X114.5Y-129.0
X121.5Y-129.0
X126.5Y-129.0
X131.5Y-129.0
X136.5Y-129.0
X145.5Y-143.5
X145.5Y-148.5
X168.0Y-143.5
X168.0Y-148.5
X210.868Y-67.5
X215.868Y-67.5
T5
X214.168Y-88.04
X214.168Y-97.96
X217.568Y-88.04
X217.568Y-97.96
M30
