%TF.GenerationSoftware,KiCad,Pcbnew,9.0.5*%
%TF.CreationDate,2026-07-28T17:19:36+02:00*%
%TF.ProjectId,axis_pcb_v3,61786973-5f70-4636-925f-76332e6b6963,rev?*%
%TF.SameCoordinates,Original*%
%TF.FileFunction,Copper,L1,Top*%
%TF.FilePolarity,Positive*%
%FSLAX46Y46*%
G04 Gerber Fmt 4.6, Leading zero omitted, Abs format (unit mm)*
G04 Created by KiCad (PCBNEW 9.0.5) date 2026-07-28 17:19:36*
%MOMM*%
%LPD*%
G01*
G04 APERTURE LIST*
G04 Aperture macros list*
%AMRoundRect*
0 Rectangle with rounded corners*
0 $1 Rounding radius*
0 $2 $3 $4 $5 $6 $7 $8 $9 X,Y pos of 4 corners*
0 Add a 4 corners polygon primitive as box body*
4,1,4,$2,$3,$4,$5,$6,$7,$8,$9,$2,$3,0*
0 Add four circle primitives for the rounded corners*
1,1,$1+$1,$2,$3*
1,1,$1+$1,$4,$5*
1,1,$1+$1,$6,$7*
1,1,$1+$1,$8,$9*
0 Add four rect primitives between the rounded corners*
20,1,$1+$1,$2,$3,$4,$5,0*
20,1,$1+$1,$4,$5,$6,$7,0*
20,1,$1+$1,$6,$7,$8,$9,0*
20,1,$1+$1,$8,$9,$2,$3,0*%
G04 Aperture macros list end*
%TA.AperFunction,SMDPad,CuDef*%
%ADD10RoundRect,0.243750X0.243750X0.456250X-0.243750X0.456250X-0.243750X-0.456250X0.243750X-0.456250X0*%
%TD*%
%TA.AperFunction,ComponentPad*%
%ADD11R,1.700000X1.700000*%
%TD*%
%TA.AperFunction,SMDPad,CuDef*%
%ADD12RoundRect,0.250000X-0.475000X0.250000X-0.475000X-0.250000X0.475000X-0.250000X0.475000X0.250000X0*%
%TD*%
%TA.AperFunction,SMDPad,CuDef*%
%ADD13C,1.500000*%
%TD*%
%TA.AperFunction,ComponentPad*%
%ADD14C,1.700000*%
%TD*%
%TA.AperFunction,ComponentPad*%
%ADD15RoundRect,0.250000X-1.050000X1.050000X-1.050000X-1.050000X1.050000X-1.050000X1.050000X1.050000X0*%
%TD*%
%TA.AperFunction,ComponentPad*%
%ADD16C,2.600000*%
%TD*%
%TA.AperFunction,ComponentPad*%
%ADD17RoundRect,0.250000X1.050000X-1.050000X1.050000X1.050000X-1.050000X1.050000X-1.050000X-1.050000X0*%
%TD*%
%TA.AperFunction,ComponentPad*%
%ADD18RoundRect,0.250000X-1.050000X-1.050000X1.050000X-1.050000X1.050000X1.050000X-1.050000X1.050000X0*%
%TD*%
%TA.AperFunction,ComponentPad*%
%ADD19RoundRect,0.250000X-0.750000X-0.750000X0.750000X-0.750000X0.750000X0.750000X-0.750000X0.750000X0*%
%TD*%
%TA.AperFunction,ComponentPad*%
%ADD20C,2.000000*%
%TD*%
%TA.AperFunction,ComponentPad*%
%ADD21RoundRect,0.250000X1.050000X1.050000X-1.050000X1.050000X-1.050000X-1.050000X1.050000X-1.050000X0*%
%TD*%
%TA.AperFunction,SMDPad,CuDef*%
%ADD22RoundRect,0.250000X0.650000X-1.000000X0.650000X1.000000X-0.650000X1.000000X-0.650000X-1.000000X0*%
%TD*%
%TA.AperFunction,ComponentPad*%
%ADD23RoundRect,0.250000X0.550000X-0.550000X0.550000X0.550000X-0.550000X0.550000X-0.550000X-0.550000X0*%
%TD*%
%TA.AperFunction,ComponentPad*%
%ADD24C,1.600000*%
%TD*%
%TA.AperFunction,ComponentPad*%
%ADD25RoundRect,0.250000X0.750000X-0.600000X0.750000X0.600000X-0.750000X0.600000X-0.750000X-0.600000X0*%
%TD*%
%TA.AperFunction,ComponentPad*%
%ADD26O,2.000000X1.700000*%
%TD*%
%TA.AperFunction,ComponentPad*%
%ADD27C,2.780000*%
%TD*%
%TA.AperFunction,ComponentPad*%
%ADD28RoundRect,0.250000X-0.550000X-0.550000X0.550000X-0.550000X0.550000X0.550000X-0.550000X0.550000X0*%
%TD*%
%TA.AperFunction,SMDPad,CuDef*%
%ADD29RoundRect,0.250000X-0.250000X-0.475000X0.250000X-0.475000X0.250000X0.475000X-0.250000X0.475000X0*%
%TD*%
%TA.AperFunction,SMDPad,CuDef*%
%ADD30RoundRect,0.250000X-0.450000X0.262500X-0.450000X-0.262500X0.450000X-0.262500X0.450000X0.262500X0*%
%TD*%
%TA.AperFunction,ViaPad*%
%ADD31C,0.600000*%
%TD*%
%TA.AperFunction,Conductor*%
%ADD32C,2.000000*%
%TD*%
%TA.AperFunction,Conductor*%
%ADD33C,0.250000*%
%TD*%
%TA.AperFunction,Conductor*%
%ADD34C,0.500000*%
%TD*%
%TA.AperFunction,Profile*%
%ADD35C,0.050000*%
%TD*%
G04 APERTURE END LIST*
D10*
%TO.P,D1,1,K*%
%TO.N,GND*%
X216042677Y-133487500D03*
%TO.P,D1,2,A*%
%TO.N,Net-(D1-A)*%
X214167677Y-133487500D03*
%TD*%
D11*
%TO.P,J4,1,Pin_1*%
%TO.N,Net-(J4-Pin_1)*%
X183652651Y-79500000D03*
%TD*%
D12*
%TO.P,C5,1*%
%TO.N,GND*%
X174000000Y-66800000D03*
%TO.P,C5,2*%
%TO.N,Net-(J4-Pin_1)*%
X174000000Y-68700000D03*
%TD*%
D13*
%TO.P,TP2,1,1*%
%TO.N,GND*%
X210867677Y-77000000D03*
%TD*%
D11*
%TO.P,J6,1,Pin_1*%
%TO.N,unconnected-(J6-Pin_1-Pad1)*%
X169500000Y-104320000D03*
D14*
%TO.P,J6,2,Pin_2*%
%TO.N,unconnected-(J6-Pin_2-Pad2)*%
X169500000Y-101780000D03*
%TO.P,J6,3,Pin_3*%
%TO.N,unconnected-(J6-Pin_3-Pad3)*%
X169500000Y-99240000D03*
%TO.P,J6,4,Pin_4*%
%TO.N,unconnected-(J6-Pin_4-Pad4)*%
X169500000Y-96700000D03*
%TO.P,J6,5,Pin_5*%
%TO.N,unconnected-(J6-Pin_5-Pad5)*%
X169500000Y-94160000D03*
%TO.P,J6,6,Pin_6*%
%TO.N,Net-(J12-Pin_1)*%
X169500000Y-91620000D03*
%TO.P,J6,7,Pin_7*%
%TO.N,Net-(J12-Pin_2)*%
X169500000Y-89080000D03*
%TO.P,J6,8,Pin_8*%
%TO.N,Net-(J6-Pin_8)*%
X169500000Y-86540000D03*
%TO.P,J6,9,Pin_9*%
%TO.N,Net-(J6-Pin_9)*%
X169500000Y-84000000D03*
%TO.P,J6,10,Pin_10*%
%TO.N,Net-(J6-Pin_10)*%
X169500000Y-81460000D03*
%TO.P,J6,11,Pin_11*%
%TO.N,Net-(J15-Pin_3)*%
X169500000Y-78920000D03*
%TO.P,J6,12,Pin_12*%
%TO.N,unconnected-(J6-Pin_12-Pad12)*%
X169500000Y-76380000D03*
%TO.P,J6,13,Pin_13*%
%TO.N,Net-(J15-Pin_4)*%
X169500000Y-73840000D03*
%TO.P,J6,14,Pin_14*%
%TO.N,GND*%
X169500000Y-71300000D03*
%TO.P,J6,15,Pin_15*%
%TO.N,Net-(J4-Pin_1)*%
X169500000Y-68760000D03*
%TD*%
D15*
%TO.P,J14,1,Pin_1*%
%TO.N,Net-(J11-Pin_7)*%
X145500000Y-143500000D03*
D16*
%TO.P,J14,2,Pin_2*%
%TO.N,Net-(J11-Pin_6)*%
X145500000Y-148500000D03*
%TD*%
D13*
%TO.P,TP4,1,1*%
%TO.N,Net-(J10-Pin_1)*%
X139000000Y-68700000D03*
%TD*%
D17*
%TO.P,J13,1,Pin_1*%
%TO.N,Net-(J11-Pin_5)*%
X168000000Y-148500000D03*
D16*
%TO.P,J13,2,Pin_2*%
%TO.N,Net-(J11-Pin_4)*%
X168000000Y-143500000D03*
%TD*%
D18*
%TO.P,J15,1,Pin_1*%
%TO.N,GND*%
X121500000Y-129000000D03*
D16*
%TO.P,J15,2,Pin_2*%
%TO.N,Net-(J10-Pin_1)*%
X126500000Y-129000000D03*
%TO.P,J15,3,Pin_3*%
%TO.N,Net-(J15-Pin_3)*%
X131500000Y-129000000D03*
%TO.P,J15,4,Pin_4*%
%TO.N,Net-(J15-Pin_4)*%
X136500000Y-129000000D03*
%TD*%
D13*
%TO.P,TP1,1,1*%
%TO.N,Net-(J11-Pin_1)*%
X214200000Y-114000000D03*
%TD*%
D19*
%TO.P,C1,1*%
%TO.N,Net-(J11-Pin_1)*%
X214200000Y-122000000D03*
D20*
%TO.P,C1,2*%
%TO.N,GND*%
X219200000Y-122000000D03*
%TD*%
D21*
%TO.P,J1,1,Pin_1*%
%TO.N,Net-(D2-A)*%
X215867677Y-67500000D03*
D16*
%TO.P,J1,2,Pin_2*%
%TO.N,GND*%
X210867677Y-67500000D03*
%TD*%
D22*
%TO.P,D2,1,K*%
%TO.N,Net-(D2-K)*%
X215867677Y-82000000D03*
%TO.P,D2,2,A*%
%TO.N,Net-(D2-A)*%
X215867677Y-78000000D03*
%TD*%
D11*
%TO.P,J10,1,Pin_1*%
%TO.N,Net-(J10-Pin_1)*%
X125500000Y-104400000D03*
D14*
%TO.P,J10,2,Pin_2*%
%TO.N,GND*%
X125500000Y-101860000D03*
%TO.P,J10,3,Pin_3*%
%TO.N,Net-(J10-Pin_3)*%
X125500000Y-99320000D03*
%TO.P,J10,4,Pin_4*%
%TO.N,Net-(J10-Pin_4)*%
X125500000Y-96780000D03*
%TO.P,J10,5,Pin_5*%
%TO.N,unconnected-(J10-Pin_5-Pad5)*%
X125500000Y-94240000D03*
%TO.P,J10,6,Pin_6*%
%TO.N,GND*%
X125500000Y-91700000D03*
%TO.P,J10,7,Pin_7*%
%TO.N,unconnected-(J10-Pin_7-Pad7)*%
X125500000Y-89160000D03*
%TO.P,J10,8,Pin_8*%
%TO.N,unconnected-(J10-Pin_8-Pad8)*%
X125500000Y-86620000D03*
%TO.P,J10,9,Pin_9*%
%TO.N,unconnected-(J10-Pin_9-Pad9)*%
X125500000Y-84080000D03*
%TO.P,J10,10,Pin_10*%
%TO.N,unconnected-(J10-Pin_10-Pad10)*%
X125500000Y-81540000D03*
%TD*%
D23*
%TO.P,C4,1*%
%TO.N,Net-(J11-Pin_1)*%
X178500000Y-132000000D03*
D24*
%TO.P,C4,2*%
%TO.N,GND*%
X178500000Y-128500000D03*
%TD*%
D11*
%TO.P,J9,1,Pin_1*%
%TO.N,Net-(J6-Pin_8)*%
X168040000Y-117260000D03*
D14*
%TO.P,J9,2,Pin_2*%
%TO.N,Net-(J6-Pin_9)*%
X165500000Y-117260000D03*
%TO.P,J9,3,Pin_3*%
%TO.N,Net-(J6-Pin_10)*%
X162960000Y-117260000D03*
%TO.P,J9,4,Pin_4*%
%TO.N,Net-(J10-Pin_1)*%
X160420000Y-117260000D03*
%TO.P,J9,5,Pin_5*%
%TO.N,Net-(J8-Pin_10)*%
X157880000Y-117260000D03*
%TO.P,J9,6,Pin_6*%
%TO.N,Net-(J8-Pin_9)*%
X155340000Y-117260000D03*
%TO.P,J9,7,Pin_7*%
%TO.N,Net-(J8-Pin_7)*%
X152800000Y-117260000D03*
%TO.P,J9,8,Pin_8*%
%TO.N,GND*%
X150260000Y-117260000D03*
%TD*%
D11*
%TO.P,J3,1,Pin_1*%
%TO.N,GND*%
X200952651Y-119500000D03*
%TD*%
%TO.P,J8,1,Pin_1*%
%TO.N,unconnected-(J8-Pin_1-Pad1)*%
X144100000Y-104260000D03*
D14*
%TO.P,J8,2,Pin_2*%
%TO.N,Net-(J10-Pin_3)*%
X144100000Y-101720000D03*
%TO.P,J8,3,Pin_3*%
%TO.N,unconnected-(J8-Pin_3-Pad3)*%
X144100000Y-99180000D03*
%TO.P,J8,4,Pin_4*%
%TO.N,unconnected-(J8-Pin_4-Pad4)*%
X144100000Y-96640000D03*
%TO.P,J8,5,Pin_5*%
%TO.N,Net-(J10-Pin_4)*%
X144100000Y-94100000D03*
%TO.P,J8,6,Pin_6*%
%TO.N,unconnected-(J8-Pin_6-Pad6)*%
X144100000Y-91560000D03*
%TO.P,J8,7,Pin_7*%
%TO.N,Net-(J8-Pin_7)*%
X144100000Y-89020000D03*
%TO.P,J8,8,Pin_8*%
%TO.N,unconnected-(J8-Pin_8-Pad8)*%
X144100000Y-86480000D03*
%TO.P,J8,9,Pin_9*%
%TO.N,Net-(J8-Pin_9)*%
X144100000Y-83940000D03*
%TO.P,J8,10,Pin_10*%
%TO.N,Net-(J8-Pin_10)*%
X144100000Y-81400000D03*
%TO.P,J8,11,Pin_11*%
%TO.N,unconnected-(J8-Pin_11-Pad11)*%
X144100000Y-78860000D03*
%TO.P,J8,12,Pin_12*%
%TO.N,unconnected-(J8-Pin_12-Pad12)*%
X144100000Y-76320000D03*
%TO.P,J8,13,Pin_13*%
%TO.N,unconnected-(J8-Pin_13-Pad13)*%
X144100000Y-73780000D03*
%TO.P,J8,14,Pin_14*%
%TO.N,GND*%
X144100000Y-71240000D03*
%TO.P,J8,15,Pin_15*%
%TO.N,Net-(J10-Pin_1)*%
X144100000Y-68700000D03*
%TD*%
D11*
%TO.P,J11,1,Pin_1*%
%TO.N,Net-(J11-Pin_1)*%
X168080000Y-132500000D03*
D14*
%TO.P,J11,2,Pin_2*%
%TO.N,Net-(J10-Pin_1)*%
X165540000Y-132500000D03*
%TO.P,J11,3,Pin_3*%
%TO.N,GND*%
X163000000Y-132500000D03*
%TO.P,J11,4,Pin_4*%
%TO.N,Net-(J11-Pin_4)*%
X160460000Y-132500000D03*
%TO.P,J11,5,Pin_5*%
%TO.N,Net-(J11-Pin_5)*%
X157920000Y-132500000D03*
%TO.P,J11,6,Pin_6*%
%TO.N,Net-(J11-Pin_6)*%
X155380000Y-132500000D03*
%TO.P,J11,7,Pin_7*%
%TO.N,Net-(J11-Pin_7)*%
X152840000Y-132500000D03*
%TO.P,J11,8,Pin_8*%
%TO.N,GND*%
X150300000Y-132500000D03*
%TD*%
D11*
%TO.P,J7,1,Pin_1*%
%TO.N,GND*%
X125500000Y-71820000D03*
D14*
%TO.P,J7,2,Pin_2*%
%TO.N,Net-(J4-Pin_1)*%
X125500000Y-69280000D03*
%TO.P,J7,3,Pin_3*%
%TO.N,Net-(J10-Pin_4)*%
X125500000Y-66740000D03*
%TO.P,J7,4,Pin_4*%
%TO.N,Net-(J10-Pin_3)*%
X125500000Y-64200000D03*
%TD*%
D11*
%TO.P,J5,1,Pin_1*%
%TO.N,GND*%
X200952651Y-79500000D03*
%TD*%
D25*
%TO.P,J16,1,Pin_1*%
%TO.N,Net-(J11-Pin_1)*%
X214200000Y-108500000D03*
D26*
%TO.P,J16,2,Pin_2*%
%TO.N,Net-(J16-Pin_2)*%
X214200000Y-106000000D03*
%TD*%
D27*
%TO.P,F1,1*%
%TO.N,Net-(D2-K)*%
X217567677Y-88040000D03*
X214167677Y-88040000D03*
%TO.P,F1,2*%
%TO.N,Net-(J16-Pin_2)*%
X217567677Y-97960000D03*
X214167677Y-97960000D03*
%TD*%
D11*
%TO.P,J2,1,Pin_1*%
%TO.N,Net-(J11-Pin_1)*%
X183652651Y-119500000D03*
%TD*%
D28*
%TO.P,C2,1*%
%TO.N,Net-(J4-Pin_1)*%
X183600000Y-68700000D03*
D24*
%TO.P,C2,2*%
%TO.N,GND*%
X187100000Y-68700000D03*
%TD*%
D13*
%TO.P,TP3,1,1*%
%TO.N,Net-(J4-Pin_1)*%
X183600000Y-75100000D03*
%TD*%
D29*
%TO.P,C6,1*%
%TO.N,GND*%
X166150000Y-135900000D03*
%TO.P,C6,2*%
%TO.N,Net-(J11-Pin_1)*%
X168050000Y-135900000D03*
%TD*%
D30*
%TO.P,R1,1*%
%TO.N,Net-(J11-Pin_1)*%
X214167677Y-128575000D03*
%TO.P,R1,2*%
%TO.N,Net-(D1-A)*%
X214167677Y-130400000D03*
%TD*%
D18*
%TO.P,J12,1,Pin_1*%
%TO.N,Net-(J12-Pin_1)*%
X99500000Y-129000000D03*
D16*
%TO.P,J12,2,Pin_2*%
%TO.N,Net-(J12-Pin_2)*%
X104500000Y-129000000D03*
%TO.P,J12,3,Pin_3*%
%TO.N,Net-(J10-Pin_1)*%
X109500000Y-129000000D03*
%TO.P,J12,4,Pin_4*%
%TO.N,GND*%
X114500000Y-129000000D03*
%TD*%
D31*
%TO.N,Net-(J12-Pin_1)*%
X131600000Y-119900000D03*
X107300000Y-119900000D03*
%TO.N,Net-(J12-Pin_2)*%
X131600000Y-120700000D03*
X107300000Y-120700000D03*
%TO.N,Net-(J10-Pin_3)*%
X117200000Y-99300000D03*
%TO.N,Net-(J10-Pin_4)*%
X118200000Y-96800000D03*
%TO.N,Net-(J10-Pin_1)*%
X160400000Y-123900000D03*
%TD*%
D32*
%TO.N,Net-(J11-Pin_1)*%
X211400000Y-125100000D02*
X214200000Y-122300000D01*
X170800000Y-135900000D02*
X174700000Y-132000000D01*
X204500000Y-132000000D02*
X211400000Y-125100000D01*
X178500000Y-132000000D02*
X204500000Y-132000000D01*
X183652651Y-122452651D02*
X186300000Y-125100000D01*
D33*
X214167677Y-128575000D02*
X214167677Y-122032323D01*
D32*
X214200000Y-114000000D02*
X214200000Y-122000000D01*
X168050000Y-132530000D02*
X168080000Y-132500000D01*
X214200000Y-122300000D02*
X214200000Y-122000000D01*
X214200000Y-108500000D02*
X214200000Y-114000000D01*
X170800000Y-135900000D02*
X168050000Y-135900000D01*
X168050000Y-135900000D02*
X168050000Y-132530000D01*
X174700000Y-132000000D02*
X178500000Y-132000000D01*
X186300000Y-125100000D02*
X211400000Y-125100000D01*
X183652651Y-119500000D02*
X183652651Y-122452651D01*
D33*
X214167677Y-122032323D02*
X214200000Y-122000000D01*
D34*
%TO.N,Net-(J4-Pin_1)*%
X183652651Y-79500000D02*
X183652651Y-75152651D01*
X125500000Y-69280000D02*
X125580000Y-69280000D01*
X140600000Y-64400000D02*
X179300000Y-64400000D01*
X125580000Y-69280000D02*
X125700000Y-69400000D01*
X125500000Y-69280000D02*
X135720000Y-69280000D01*
X183600000Y-75100000D02*
X183600000Y-68700000D01*
X169560000Y-68700000D02*
X169500000Y-68760000D01*
X174000000Y-68700000D02*
X169560000Y-68700000D01*
X183652651Y-75152651D02*
X183600000Y-75100000D01*
X183600000Y-68700000D02*
X174000000Y-68700000D01*
X179300000Y-64400000D02*
X183600000Y-68700000D01*
X135720000Y-69280000D02*
X140600000Y-64400000D01*
D33*
%TO.N,Net-(D1-A)*%
X214167677Y-130400000D02*
X214167677Y-133487500D01*
D32*
%TO.N,Net-(D2-K)*%
X214167677Y-85532323D02*
X214167677Y-88040000D01*
X214167677Y-88040000D02*
X217567677Y-88040000D01*
X215867677Y-83832323D02*
X214167677Y-85532323D01*
X215867677Y-82000000D02*
X215867677Y-83832323D01*
%TO.N,Net-(J16-Pin_2)*%
X214167677Y-97960000D02*
X214167677Y-105967677D01*
X214167677Y-105967677D02*
X214200000Y-106000000D01*
X217567677Y-97960000D02*
X214167677Y-97960000D01*
D33*
%TO.N,Net-(J6-Pin_9)*%
X167900000Y-84000000D02*
X163600000Y-88300000D01*
X165500000Y-115200000D02*
X165500000Y-117260000D01*
X163600000Y-113300000D02*
X165500000Y-115200000D01*
X169500000Y-84000000D02*
X167900000Y-84000000D01*
X163600000Y-88300000D02*
X163600000Y-113300000D01*
%TO.N,Net-(J12-Pin_1)*%
X99500000Y-123300000D02*
X102900000Y-119900000D01*
X176300000Y-114200000D02*
X176300000Y-95300000D01*
X176300000Y-95300000D02*
X172600000Y-91600000D01*
X170600000Y-119900000D02*
X176300000Y-114200000D01*
X172580000Y-91620000D02*
X169500000Y-91620000D01*
X102900000Y-119900000D02*
X107300000Y-119900000D01*
X172600000Y-91600000D02*
X172580000Y-91620000D01*
X131600000Y-119900000D02*
X170600000Y-119900000D01*
X99500000Y-129000000D02*
X99500000Y-123300000D01*
%TO.N,Net-(J6-Pin_10)*%
X161800000Y-87500000D02*
X167840000Y-81460000D01*
X167840000Y-81460000D02*
X169500000Y-81460000D01*
X162960000Y-117260000D02*
X162960000Y-115260000D01*
X161800000Y-114100000D02*
X161800000Y-87500000D01*
X162960000Y-115260000D02*
X161800000Y-114100000D01*
%TO.N,Net-(J6-Pin_8)*%
X167760000Y-86540000D02*
X169500000Y-86540000D01*
X165400000Y-88900000D02*
X167760000Y-86540000D01*
X165400000Y-112300000D02*
X165400000Y-88900000D01*
X168040000Y-114940000D02*
X165400000Y-112300000D01*
X168040000Y-117260000D02*
X168040000Y-114940000D01*
%TO.N,Net-(J12-Pin_2)*%
X104500000Y-121900000D02*
X105700000Y-120700000D01*
X177300000Y-93100000D02*
X173280000Y-89080000D01*
X173280000Y-89080000D02*
X169500000Y-89080000D01*
X131600000Y-120700000D02*
X171000000Y-120700000D01*
X105700000Y-120700000D02*
X107300000Y-120700000D01*
X171000000Y-120700000D02*
X177300000Y-114400000D01*
X104500000Y-129000000D02*
X104500000Y-121900000D01*
X177300000Y-114400000D02*
X177300000Y-93100000D01*
%TO.N,Net-(J15-Pin_4)*%
X137600000Y-122500000D02*
X171800000Y-122500000D01*
X180000000Y-79200000D02*
X174640000Y-73840000D01*
X171800000Y-122500000D02*
X180000000Y-114300000D01*
X136500000Y-129000000D02*
X136500000Y-123600000D01*
X174640000Y-73840000D02*
X169500000Y-73840000D01*
X180000000Y-114300000D02*
X180000000Y-79200000D01*
X136500000Y-123600000D02*
X137600000Y-122500000D01*
%TO.N,Net-(J15-Pin_3)*%
X131500000Y-129000000D02*
X131500000Y-122800000D01*
X173720000Y-78920000D02*
X169500000Y-78920000D01*
X132700000Y-121600000D02*
X171400000Y-121600000D01*
X178700000Y-83900000D02*
X173720000Y-78920000D01*
X178700000Y-114300000D02*
X178700000Y-83900000D01*
X171400000Y-121600000D02*
X178700000Y-114300000D01*
X131500000Y-122800000D02*
X132700000Y-121600000D01*
D34*
%TO.N,Net-(J10-Pin_3)*%
X138480000Y-99320000D02*
X138500000Y-99300000D01*
X141300000Y-101800000D02*
X141380000Y-101720000D01*
D33*
X125500000Y-64200000D02*
X117200000Y-72500000D01*
D34*
X125500000Y-99320000D02*
X138480000Y-99320000D01*
X141000000Y-101800000D02*
X141300000Y-101800000D01*
X138500000Y-99300000D02*
X141000000Y-101800000D01*
X141380000Y-101720000D02*
X144100000Y-101720000D01*
D33*
X117200000Y-72500000D02*
X117200000Y-99300000D01*
D34*
%TO.N,Net-(J10-Pin_4)*%
X138520000Y-96780000D02*
X141200000Y-94100000D01*
D33*
X125500000Y-66740000D02*
X118200000Y-74040000D01*
X118200000Y-74040000D02*
X118200000Y-96800000D01*
D34*
X141200000Y-94100000D02*
X144100000Y-94100000D01*
X125500000Y-96780000D02*
X138520000Y-96780000D01*
%TO.N,Net-(J10-Pin_1)*%
X139000000Y-68700000D02*
X131100000Y-76600000D01*
X160400000Y-127360000D02*
X165540000Y-132500000D01*
X155800000Y-112640000D02*
X160420000Y-117260000D01*
D32*
X165600000Y-132520000D02*
X165580000Y-132500000D01*
D34*
X120200000Y-110700000D02*
X126500000Y-117000000D01*
X120200000Y-101700000D02*
X120200000Y-110700000D01*
X131100000Y-76600000D02*
X122300000Y-76600000D01*
X160400000Y-123900000D02*
X160400000Y-127360000D01*
X109500000Y-121400000D02*
X109500000Y-129000000D01*
X144100000Y-68700000D02*
X155800000Y-80400000D01*
X144100000Y-68700000D02*
X139000000Y-68700000D01*
X126500000Y-117000000D02*
X126500000Y-129000000D01*
X120200000Y-110700000D02*
X109500000Y-121400000D01*
X122900000Y-104400000D02*
X125500000Y-104400000D01*
X122300000Y-76600000D02*
X120200000Y-78700000D01*
X120200000Y-78700000D02*
X120200000Y-101700000D01*
X120200000Y-101700000D02*
X122900000Y-104400000D01*
X155800000Y-80400000D02*
X155800000Y-112640000D01*
D33*
%TO.N,Net-(J8-Pin_7)*%
X145920000Y-89020000D02*
X147300000Y-90400000D01*
X147300000Y-90400000D02*
X147300000Y-111760000D01*
X144100000Y-89020000D02*
X145920000Y-89020000D01*
X144120000Y-89000000D02*
X144100000Y-89020000D01*
X147300000Y-111760000D02*
X152800000Y-117260000D01*
%TO.N,Net-(J8-Pin_9)*%
X149100000Y-87000000D02*
X146100000Y-84000000D01*
X146100000Y-84000000D02*
X145600000Y-84000000D01*
X149100000Y-111020000D02*
X149100000Y-87000000D01*
X155340000Y-117260000D02*
X149100000Y-111020000D01*
X145540000Y-83940000D02*
X144100000Y-83940000D01*
X145600000Y-84000000D02*
X145540000Y-83940000D01*
%TO.N,Net-(J8-Pin_10)*%
X145900000Y-81400000D02*
X144100000Y-81400000D01*
X150800000Y-86300000D02*
X145900000Y-81400000D01*
X150800000Y-110180000D02*
X150800000Y-86300000D01*
X157880000Y-117260000D02*
X150800000Y-110180000D01*
D32*
%TO.N,Net-(J11-Pin_4)*%
X168000000Y-143500000D02*
X160460000Y-135960000D01*
X160460000Y-135960000D02*
X160460000Y-132500000D01*
%TO.N,Net-(J11-Pin_6)*%
X155380000Y-132500000D02*
X155380000Y-138620000D01*
X155380000Y-138620000D02*
X145500000Y-148500000D01*
%TO.N,Net-(J11-Pin_7)*%
X145500000Y-143500000D02*
X152840000Y-136160000D01*
X152840000Y-136160000D02*
X152840000Y-132500000D01*
%TO.N,Net-(J11-Pin_5)*%
X168000000Y-148500000D02*
X157920000Y-138420000D01*
X157920000Y-138420000D02*
X157920000Y-132500000D01*
%TO.N,Net-(D2-A)*%
X215867677Y-67500000D02*
X215867677Y-78000000D01*
%TD*%
D35*
X92900000Y-131600000D02*
G75*
G02*
X88100000Y-131600000I-2400000J0D01*
G01*
X88100000Y-131600000D02*
G75*
G02*
X92900000Y-131600000I2400000J0D01*
G01*
X139500000Y-136000000D02*
X86500000Y-136000000D01*
X86500000Y-136000000D02*
X86500000Y-61500000D01*
X139500000Y-152500000D02*
X139500000Y-136000000D01*
X92900000Y-65600000D02*
G75*
G02*
X88100000Y-65600000I-2400000J0D01*
G01*
X88100000Y-65600000D02*
G75*
G02*
X92900000Y-65600000I2400000J0D01*
G01*
X86500000Y-61500000D02*
X227000000Y-61500000D01*
X174000000Y-136000000D02*
X174000000Y-152500000D01*
X225400000Y-65600000D02*
G75*
G02*
X220600000Y-65600000I-2400000J0D01*
G01*
X220600000Y-65600000D02*
G75*
G02*
X225400000Y-65600000I2400000J0D01*
G01*
X174000000Y-152500000D02*
X139500000Y-152500000D01*
X225400000Y-131600000D02*
G75*
G02*
X220600000Y-131600000I-2400000J0D01*
G01*
X220600000Y-131600000D02*
G75*
G02*
X225400000Y-131600000I2400000J0D01*
G01*
X227000000Y-136000000D02*
X174000000Y-136000000D01*
X227000000Y-61500000D02*
X227000000Y-136000000D01*
M02*
