%TF.GenerationSoftware,KiCad,Pcbnew,9.0.5*%
%TF.CreationDate,2026-07-28T17:19:36+02:00*%
%TF.ProjectId,axis_pcb_v3,61786973-5f70-4636-925f-76332e6b6963,rev?*%
%TF.SameCoordinates,Original*%
%TF.FileFunction,Copper,L2,Bot*%
%TF.FilePolarity,Positive*%
%FSLAX46Y46*%
G04 Gerber Fmt 4.6, Leading zero omitted, Abs format (unit mm)*
G04 Created by KiCad (PCBNEW 9.0.5) date 2026-07-28 17:19:36*
%MOMM*%
%LPD*%
G01*
G04 APERTURE LIST*
G04 Aperture macros list*
%AMRoundRect*
0 Rectangle with rounded corners*
0 $1 Rounding radius*
0 $2 $3 $4 $5 $6 $7 $8 $9 X,Y pos of 4 corners*
0 Add a 4 corners polygon primitive as box body*
4,1,4,$2,$3,$4,$5,$6,$7,$8,$9,$2,$3,0*
0 Add four circle primitives for the rounded corners*
1,1,$1+$1,$2,$3*
1,1,$1+$1,$4,$5*
1,1,$1+$1,$6,$7*
1,1,$1+$1,$8,$9*
0 Add four rect primitives between the rounded corners*
20,1,$1+$1,$2,$3,$4,$5,0*
20,1,$1+$1,$4,$5,$6,$7,0*
20,1,$1+$1,$6,$7,$8,$9,0*
20,1,$1+$1,$8,$9,$2,$3,0*%
G04 Aperture macros list end*
%TA.AperFunction,ComponentPad*%
%ADD10R,1.700000X1.700000*%
%TD*%
%TA.AperFunction,ComponentPad*%
%ADD11C,1.700000*%
%TD*%
%TA.AperFunction,ComponentPad*%
%ADD12RoundRect,0.250000X-1.050000X1.050000X-1.050000X-1.050000X1.050000X-1.050000X1.050000X1.050000X0*%
%TD*%
%TA.AperFunction,ComponentPad*%
%ADD13C,2.600000*%
%TD*%
%TA.AperFunction,ComponentPad*%
%ADD14RoundRect,0.250000X1.050000X-1.050000X1.050000X1.050000X-1.050000X1.050000X-1.050000X-1.050000X0*%
%TD*%
%TA.AperFunction,ComponentPad*%
%ADD15RoundRect,0.250000X-1.050000X-1.050000X1.050000X-1.050000X1.050000X1.050000X-1.050000X1.050000X0*%
%TD*%
%TA.AperFunction,ComponentPad*%
%ADD16RoundRect,0.250000X-0.750000X-0.750000X0.750000X-0.750000X0.750000X0.750000X-0.750000X0.750000X0*%
%TD*%
%TA.AperFunction,ComponentPad*%
%ADD17C,2.000000*%
%TD*%
%TA.AperFunction,ComponentPad*%
%ADD18RoundRect,0.250000X1.050000X1.050000X-1.050000X1.050000X-1.050000X-1.050000X1.050000X-1.050000X0*%
%TD*%
%TA.AperFunction,ComponentPad*%
%ADD19RoundRect,0.250000X0.550000X-0.550000X0.550000X0.550000X-0.550000X0.550000X-0.550000X-0.550000X0*%
%TD*%
%TA.AperFunction,ComponentPad*%
%ADD20C,1.600000*%
%TD*%
%TA.AperFunction,ComponentPad*%
%ADD21RoundRect,0.250000X0.750000X-0.600000X0.750000X0.600000X-0.750000X0.600000X-0.750000X-0.600000X0*%
%TD*%
%TA.AperFunction,ComponentPad*%
%ADD22O,2.000000X1.700000*%
%TD*%
%TA.AperFunction,ComponentPad*%
%ADD23C,2.780000*%
%TD*%
%TA.AperFunction,ComponentPad*%
%ADD24RoundRect,0.250000X-0.550000X-0.550000X0.550000X-0.550000X0.550000X0.550000X-0.550000X0.550000X0*%
%TD*%
%TA.AperFunction,ViaPad*%
%ADD25C,0.600000*%
%TD*%
%TA.AperFunction,Conductor*%
%ADD26C,0.250000*%
%TD*%
%TA.AperFunction,Conductor*%
%ADD27C,0.500000*%
%TD*%
%TA.AperFunction,Profile*%
%ADD28C,0.050000*%
%TD*%
G04 APERTURE END LIST*
D10*
%TO.P,J4,1,Pin_1*%
%TO.N,Net-(J4-Pin_1)*%
X183652651Y-79500000D03*
%TD*%
%TO.P,J6,1,Pin_1*%
%TO.N,unconnected-(J6-Pin_1-Pad1)*%
X169500000Y-104320000D03*
D11*
%TO.P,J6,2,Pin_2*%
%TO.N,unconnected-(J6-Pin_2-Pad2)*%
X169500000Y-101780000D03*
%TO.P,J6,3,Pin_3*%
%TO.N,unconnected-(J6-Pin_3-Pad3)*%
X169500000Y-99240000D03*
%TO.P,J6,4,Pin_4*%
%TO.N,unconnected-(J6-Pin_4-Pad4)*%
X169500000Y-96700000D03*
%TO.P,J6,5,Pin_5*%
%TO.N,unconnected-(J6-Pin_5-Pad5)*%
X169500000Y-94160000D03*
%TO.P,J6,6,Pin_6*%
%TO.N,Net-(J12-Pin_1)*%
X169500000Y-91620000D03*
%TO.P,J6,7,Pin_7*%
%TO.N,Net-(J12-Pin_2)*%
X169500000Y-89080000D03*
%TO.P,J6,8,Pin_8*%
%TO.N,Net-(J6-Pin_8)*%
X169500000Y-86540000D03*
%TO.P,J6,9,Pin_9*%
%TO.N,Net-(J6-Pin_9)*%
X169500000Y-84000000D03*
%TO.P,J6,10,Pin_10*%
%TO.N,Net-(J6-Pin_10)*%
X169500000Y-81460000D03*
%TO.P,J6,11,Pin_11*%
%TO.N,Net-(J15-Pin_3)*%
X169500000Y-78920000D03*
%TO.P,J6,12,Pin_12*%
%TO.N,unconnected-(J6-Pin_12-Pad12)*%
X169500000Y-76380000D03*
%TO.P,J6,13,Pin_13*%
%TO.N,Net-(J15-Pin_4)*%
X169500000Y-73840000D03*
%TO.P,J6,14,Pin_14*%
%TO.N,GND*%
X169500000Y-71300000D03*
%TO.P,J6,15,Pin_15*%
%TO.N,Net-(J4-Pin_1)*%
X169500000Y-68760000D03*
%TD*%
D12*
%TO.P,J14,1,Pin_1*%
%TO.N,Net-(J11-Pin_7)*%
X145500000Y-143500000D03*
D13*
%TO.P,J14,2,Pin_2*%
%TO.N,Net-(J11-Pin_6)*%
X145500000Y-148500000D03*
%TD*%
D14*
%TO.P,J13,1,Pin_1*%
%TO.N,Net-(J11-Pin_5)*%
X168000000Y-148500000D03*
D13*
%TO.P,J13,2,Pin_2*%
%TO.N,Net-(J11-Pin_4)*%
X168000000Y-143500000D03*
%TD*%
D15*
%TO.P,J15,1,Pin_1*%
%TO.N,GND*%
X121500000Y-129000000D03*
D13*
%TO.P,J15,2,Pin_2*%
%TO.N,Net-(J10-Pin_1)*%
X126500000Y-129000000D03*
%TO.P,J15,3,Pin_3*%
%TO.N,Net-(J15-Pin_3)*%
X131500000Y-129000000D03*
%TO.P,J15,4,Pin_4*%
%TO.N,Net-(J15-Pin_4)*%
X136500000Y-129000000D03*
%TD*%
D16*
%TO.P,C1,1*%
%TO.N,Net-(J11-Pin_1)*%
X214200000Y-122000000D03*
D17*
%TO.P,C1,2*%
%TO.N,GND*%
X219200000Y-122000000D03*
%TD*%
D18*
%TO.P,J1,1,Pin_1*%
%TO.N,Net-(D2-A)*%
X215867677Y-67500000D03*
D13*
%TO.P,J1,2,Pin_2*%
%TO.N,GND*%
X210867677Y-67500000D03*
%TD*%
D10*
%TO.P,J10,1,Pin_1*%
%TO.N,Net-(J10-Pin_1)*%
X125500000Y-104400000D03*
D11*
%TO.P,J10,2,Pin_2*%
%TO.N,GND*%
X125500000Y-101860000D03*
%TO.P,J10,3,Pin_3*%
%TO.N,Net-(J10-Pin_3)*%
X125500000Y-99320000D03*
%TO.P,J10,4,Pin_4*%
%TO.N,Net-(J10-Pin_4)*%
X125500000Y-96780000D03*
%TO.P,J10,5,Pin_5*%
%TO.N,unconnected-(J10-Pin_5-Pad5)*%
X125500000Y-94240000D03*
%TO.P,J10,6,Pin_6*%
%TO.N,GND*%
X125500000Y-91700000D03*
%TO.P,J10,7,Pin_7*%
%TO.N,unconnected-(J10-Pin_7-Pad7)*%
X125500000Y-89160000D03*
%TO.P,J10,8,Pin_8*%
%TO.N,unconnected-(J10-Pin_8-Pad8)*%
X125500000Y-86620000D03*
%TO.P,J10,9,Pin_9*%
%TO.N,unconnected-(J10-Pin_9-Pad9)*%
X125500000Y-84080000D03*
%TO.P,J10,10,Pin_10*%
%TO.N,unconnected-(J10-Pin_10-Pad10)*%
X125500000Y-81540000D03*
%TD*%
D19*
%TO.P,C4,1*%
%TO.N,Net-(J11-Pin_1)*%
X178500000Y-132000000D03*
D20*
%TO.P,C4,2*%
%TO.N,GND*%
X178500000Y-128500000D03*
%TD*%
D10*
%TO.P,J9,1,Pin_1*%
%TO.N,Net-(J6-Pin_8)*%
X168040000Y-117260000D03*
D11*
%TO.P,J9,2,Pin_2*%
%TO.N,Net-(J6-Pin_9)*%
X165500000Y-117260000D03*
%TO.P,J9,3,Pin_3*%
%TO.N,Net-(J6-Pin_10)*%
X162960000Y-117260000D03*
%TO.P,J9,4,Pin_4*%
%TO.N,Net-(J10-Pin_1)*%
X160420000Y-117260000D03*
%TO.P,J9,5,Pin_5*%
%TO.N,Net-(J8-Pin_10)*%
X157880000Y-117260000D03*
%TO.P,J9,6,Pin_6*%
%TO.N,Net-(J8-Pin_9)*%
X155340000Y-117260000D03*
%TO.P,J9,7,Pin_7*%
%TO.N,Net-(J8-Pin_7)*%
X152800000Y-117260000D03*
%TO.P,J9,8,Pin_8*%
%TO.N,GND*%
X150260000Y-117260000D03*
%TD*%
D10*
%TO.P,J3,1,Pin_1*%
%TO.N,GND*%
X200952651Y-119500000D03*
%TD*%
%TO.P,J8,1,Pin_1*%
%TO.N,unconnected-(J8-Pin_1-Pad1)*%
X144100000Y-104260000D03*
D11*
%TO.P,J8,2,Pin_2*%
%TO.N,Net-(J10-Pin_3)*%
X144100000Y-101720000D03*
%TO.P,J8,3,Pin_3*%
%TO.N,unconnected-(J8-Pin_3-Pad3)*%
X144100000Y-99180000D03*
%TO.P,J8,4,Pin_4*%
%TO.N,unconnected-(J8-Pin_4-Pad4)*%
X144100000Y-96640000D03*
%TO.P,J8,5,Pin_5*%
%TO.N,Net-(J10-Pin_4)*%
X144100000Y-94100000D03*
%TO.P,J8,6,Pin_6*%
%TO.N,unconnected-(J8-Pin_6-Pad6)*%
X144100000Y-91560000D03*
%TO.P,J8,7,Pin_7*%
%TO.N,Net-(J8-Pin_7)*%
X144100000Y-89020000D03*
%TO.P,J8,8,Pin_8*%
%TO.N,unconnected-(J8-Pin_8-Pad8)*%
X144100000Y-86480000D03*
%TO.P,J8,9,Pin_9*%
%TO.N,Net-(J8-Pin_9)*%
X144100000Y-83940000D03*
%TO.P,J8,10,Pin_10*%
%TO.N,Net-(J8-Pin_10)*%
X144100000Y-81400000D03*
%TO.P,J8,11,Pin_11*%
%TO.N,unconnected-(J8-Pin_11-Pad11)*%
X144100000Y-78860000D03*
%TO.P,J8,12,Pin_12*%
%TO.N,unconnected-(J8-Pin_12-Pad12)*%
X144100000Y-76320000D03*
%TO.P,J8,13,Pin_13*%
%TO.N,unconnected-(J8-Pin_13-Pad13)*%
X144100000Y-73780000D03*
%TO.P,J8,14,Pin_14*%
%TO.N,GND*%
X144100000Y-71240000D03*
%TO.P,J8,15,Pin_15*%
%TO.N,Net-(J10-Pin_1)*%
X144100000Y-68700000D03*
%TD*%
D10*
%TO.P,J11,1,Pin_1*%
%TO.N,Net-(J11-Pin_1)*%
X168080000Y-132500000D03*
D11*
%TO.P,J11,2,Pin_2*%
%TO.N,Net-(J10-Pin_1)*%
X165540000Y-132500000D03*
%TO.P,J11,3,Pin_3*%
%TO.N,GND*%
X163000000Y-132500000D03*
%TO.P,J11,4,Pin_4*%
%TO.N,Net-(J11-Pin_4)*%
X160460000Y-132500000D03*
%TO.P,J11,5,Pin_5*%
%TO.N,Net-(J11-Pin_5)*%
X157920000Y-132500000D03*
%TO.P,J11,6,Pin_6*%
%TO.N,Net-(J11-Pin_6)*%
X155380000Y-132500000D03*
%TO.P,J11,7,Pin_7*%
%TO.N,Net-(J11-Pin_7)*%
X152840000Y-132500000D03*
%TO.P,J11,8,Pin_8*%
%TO.N,GND*%
X150300000Y-132500000D03*
%TD*%
D10*
%TO.P,J7,1,Pin_1*%
%TO.N,GND*%
X125500000Y-71820000D03*
D11*
%TO.P,J7,2,Pin_2*%
%TO.N,Net-(J4-Pin_1)*%
X125500000Y-69280000D03*
%TO.P,J7,3,Pin_3*%
%TO.N,Net-(J10-Pin_4)*%
X125500000Y-66740000D03*
%TO.P,J7,4,Pin_4*%
%TO.N,Net-(J10-Pin_3)*%
X125500000Y-64200000D03*
%TD*%
D10*
%TO.P,J5,1,Pin_1*%
%TO.N,GND*%
X200952651Y-79500000D03*
%TD*%
D21*
%TO.P,J16,1,Pin_1*%
%TO.N,Net-(J11-Pin_1)*%
X214200000Y-108500000D03*
D22*
%TO.P,J16,2,Pin_2*%
%TO.N,Net-(J16-Pin_2)*%
X214200000Y-106000000D03*
%TD*%
D23*
%TO.P,F1,1*%
%TO.N,Net-(D2-K)*%
X217567677Y-88040000D03*
X214167677Y-88040000D03*
%TO.P,F1,2*%
%TO.N,Net-(J16-Pin_2)*%
X217567677Y-97960000D03*
X214167677Y-97960000D03*
%TD*%
D10*
%TO.P,J2,1,Pin_1*%
%TO.N,Net-(J11-Pin_1)*%
X183652651Y-119500000D03*
%TD*%
D24*
%TO.P,C2,1*%
%TO.N,Net-(J4-Pin_1)*%
X183600000Y-68700000D03*
D20*
%TO.P,C2,2*%
%TO.N,GND*%
X187100000Y-68700000D03*
%TD*%
D15*
%TO.P,J12,1,Pin_1*%
%TO.N,Net-(J12-Pin_1)*%
X99500000Y-129000000D03*
D13*
%TO.P,J12,2,Pin_2*%
%TO.N,Net-(J12-Pin_2)*%
X104500000Y-129000000D03*
%TO.P,J12,3,Pin_3*%
%TO.N,Net-(J10-Pin_1)*%
X109500000Y-129000000D03*
%TO.P,J12,4,Pin_4*%
%TO.N,GND*%
X114500000Y-129000000D03*
%TD*%
D25*
%TO.N,Net-(J12-Pin_1)*%
X131600000Y-119900000D03*
X107300000Y-119900000D03*
%TO.N,Net-(J12-Pin_2)*%
X131600000Y-120700000D03*
X107300000Y-120700000D03*
%TO.N,Net-(J10-Pin_3)*%
X117200000Y-99300000D03*
%TO.N,Net-(J10-Pin_4)*%
X118200000Y-96800000D03*
%TO.N,Net-(J10-Pin_1)*%
X160400000Y-123900000D03*
%TD*%
D26*
%TO.N,Net-(J12-Pin_1)*%
X107300000Y-119900000D02*
X131700000Y-119900000D01*
%TO.N,Net-(J12-Pin_2)*%
X107300000Y-120700000D02*
X131600000Y-120700000D01*
%TO.N,Net-(J10-Pin_3)*%
X117220000Y-99320000D02*
X125500000Y-99320000D01*
X117200000Y-99300000D02*
X117220000Y-99320000D01*
%TO.N,Net-(J10-Pin_4)*%
X118620000Y-96780000D02*
X125500000Y-96780000D01*
X118600000Y-96800000D02*
X118620000Y-96780000D01*
X118200000Y-96800000D02*
X118600000Y-96800000D01*
D27*
%TO.N,Net-(J10-Pin_1)*%
X160420000Y-123880000D02*
X160400000Y-123900000D01*
X160420000Y-117260000D02*
X160420000Y-123880000D01*
%TD*%
%TA.AperFunction,Conductor*%
%TO.N,GND*%
G36*
X226442539Y-62020185D02*
G01*
X226488294Y-62072989D01*
X226499500Y-62124500D01*
X226499500Y-135375500D01*
X226479815Y-135442539D01*
X226427011Y-135488294D01*
X226375500Y-135499500D01*
X173934108Y-135499500D01*
X173806812Y-135533608D01*
X173692686Y-135599500D01*
X173692683Y-135599502D01*
X173599502Y-135692683D01*
X173599500Y-135692686D01*
X173533608Y-135806812D01*
X173499500Y-135934108D01*
X173499500Y-151875500D01*
X173479815Y-151942539D01*
X173427011Y-151988294D01*
X173375500Y-151999500D01*
X140124500Y-151999500D01*
X140057461Y-151979815D01*
X140011706Y-151927011D01*
X140000500Y-151875500D01*
X140000500Y-148381995D01*
X143699500Y-148381995D01*
X143699500Y-148618004D01*
X143699501Y-148618020D01*
X143730306Y-148852010D01*
X143791394Y-149079993D01*
X143881714Y-149298045D01*
X143881719Y-149298056D01*
X143952677Y-149420957D01*
X143999727Y-149502450D01*
X143999729Y-149502453D01*
X143999730Y-149502454D01*
X144143406Y-149689697D01*
X144143412Y-149689704D01*
X144310295Y-149856587D01*
X144310302Y-149856593D01*
X144326909Y-149869336D01*
X144497550Y-150000273D01*
X144628918Y-150076118D01*
X144701943Y-150118280D01*
X144701948Y-150118282D01*
X144701951Y-150118284D01*
X144920007Y-150208606D01*
X145147986Y-150269693D01*
X145381989Y-150300500D01*
X145381996Y-150300500D01*
X145618004Y-150300500D01*
X145618011Y-150300500D01*
X145852014Y-150269693D01*
X146079993Y-150208606D01*
X146298049Y-150118284D01*
X146502450Y-150000273D01*
X146689699Y-149856592D01*
X146856592Y-149689699D01*
X147000273Y-149502450D01*
X147118284Y-149298049D01*
X147208606Y-149079993D01*
X147269693Y-148852014D01*
X147300500Y-148618011D01*
X147300500Y-148381989D01*
X147269693Y-148147986D01*
X147208606Y-147920007D01*
X147118284Y-147701951D01*
X147118282Y-147701948D01*
X147118280Y-147701943D01*
X147062510Y-147605348D01*
X147000273Y-147497550D01*
X146925414Y-147399992D01*
X146925407Y-147399983D01*
X166199500Y-147399983D01*
X166199500Y-149600001D01*
X166199501Y-149600018D01*
X166210000Y-149702796D01*
X166210001Y-149702799D01*
X166260962Y-149856587D01*
X166265186Y-149869334D01*
X166357288Y-150018656D01*
X166481344Y-150142712D01*
X166630666Y-150234814D01*
X166797203Y-150289999D01*
X166899991Y-150300500D01*
X169100008Y-150300499D01*
X169202797Y-150289999D01*
X169369334Y-150234814D01*
X169518656Y-150142712D01*
X169642712Y-150018656D01*
X169734814Y-149869334D01*
X169789999Y-149702797D01*
X169800500Y-149600009D01*
X169800499Y-147399992D01*
X169789999Y-147297203D01*
X169734814Y-147130666D01*
X169642712Y-146981344D01*
X169518656Y-146857288D01*
X169369334Y-146765186D01*
X169202797Y-146710001D01*
X169202795Y-146710000D01*
X169100010Y-146699500D01*
X166899998Y-146699500D01*
X166899981Y-146699501D01*
X166797203Y-146710000D01*
X166797200Y-146710001D01*
X166630668Y-146765185D01*
X166630663Y-146765187D01*
X166481342Y-146857289D01*
X166357289Y-146981342D01*
X166265187Y-147130663D01*
X166265185Y-147130668D01*
X166260962Y-147143412D01*
X166210001Y-147297203D01*
X166210001Y-147297204D01*
X166210000Y-147297204D01*
X166199500Y-147399983D01*
X146925407Y-147399983D01*
X146856593Y-147310302D01*
X146856587Y-147310295D01*
X146689704Y-147143412D01*
X146689697Y-147143406D01*
X146502454Y-146999730D01*
X146502453Y-146999729D01*
X146502450Y-146999727D01*
X146420957Y-146952677D01*
X146298056Y-146881719D01*
X146298045Y-146881714D01*
X146079993Y-146791394D01*
X145852010Y-146730306D01*
X145618020Y-146699501D01*
X145618017Y-146699500D01*
X145618011Y-146699500D01*
X145381989Y-146699500D01*
X145381983Y-146699500D01*
X145381979Y-146699501D01*
X145147989Y-146730306D01*
X144920006Y-146791394D01*
X144701954Y-146881714D01*
X144701943Y-146881719D01*
X144497545Y-146999730D01*
X144310302Y-147143406D01*
X144310295Y-147143412D01*
X144143412Y-147310295D01*
X144143406Y-147310302D01*
X143999730Y-147497545D01*
X143881719Y-147701943D01*
X143881714Y-147701954D01*
X143791394Y-147920006D01*
X143730306Y-148147989D01*
X143699501Y-148381979D01*
X143699500Y-148381995D01*
X140000500Y-148381995D01*
X140000500Y-142399983D01*
X143699500Y-142399983D01*
X143699500Y-144600001D01*
X143699501Y-144600018D01*
X143710000Y-144702796D01*
X143710001Y-144702799D01*
X143760962Y-144856587D01*
X143765186Y-144869334D01*
X143857288Y-145018656D01*
X143981344Y-145142712D01*
X144130666Y-145234814D01*
X144297203Y-145289999D01*
X144399991Y-145300500D01*
X146600008Y-145300499D01*
X146702797Y-145289999D01*
X146869334Y-145234814D01*
X147018656Y-145142712D01*
X147142712Y-145018656D01*
X147234814Y-144869334D01*
X147289999Y-144702797D01*
X147300500Y-144600009D01*
X147300499Y-143381995D01*
X166199500Y-143381995D01*
X166199500Y-143618004D01*
X166199501Y-143618020D01*
X166230306Y-143852010D01*
X166291394Y-144079993D01*
X166381714Y-144298045D01*
X166381719Y-144298056D01*
X166452677Y-144420957D01*
X166499727Y-144502450D01*
X166499729Y-144502453D01*
X166499730Y-144502454D01*
X166643406Y-144689697D01*
X166643412Y-144689704D01*
X166810295Y-144856587D01*
X166810302Y-144856593D01*
X166826909Y-144869336D01*
X166997550Y-145000273D01*
X167128918Y-145076118D01*
X167201943Y-145118280D01*
X167201948Y-145118282D01*
X167201951Y-145118284D01*
X167420007Y-145208606D01*
X167647986Y-145269693D01*
X167881989Y-145300500D01*
X167881996Y-145300500D01*
X168118004Y-145300500D01*
X168118011Y-145300500D01*
X168352014Y-145269693D01*
X168579993Y-145208606D01*
X168798049Y-145118284D01*
X169002450Y-145000273D01*
X169189699Y-144856592D01*
X169356592Y-144689699D01*
X169500273Y-144502450D01*
X169618284Y-144298049D01*
X169708606Y-144079993D01*
X169769693Y-143852014D01*
X169800500Y-143618011D01*
X169800500Y-143381989D01*
X169769693Y-143147986D01*
X169708606Y-142920007D01*
X169618284Y-142701951D01*
X169618282Y-142701948D01*
X169618280Y-142701943D01*
X169576118Y-142628918D01*
X169500273Y-142497550D01*
X169356592Y-142310301D01*
X169356587Y-142310295D01*
X169189704Y-142143412D01*
X169189697Y-142143406D01*
X169002454Y-141999730D01*
X169002453Y-141999729D01*
X169002450Y-141999727D01*
X168920957Y-141952677D01*
X168798056Y-141881719D01*
X168798045Y-141881714D01*
X168579993Y-141791394D01*
X168352010Y-141730306D01*
X168118020Y-141699501D01*
X168118017Y-141699500D01*
X168118011Y-141699500D01*
X167881989Y-141699500D01*
X167881983Y-141699500D01*
X167881979Y-141699501D01*
X167647989Y-141730306D01*
X167420006Y-141791394D01*
X167201954Y-141881714D01*
X167201943Y-141881719D01*
X166997545Y-141999730D01*
X166810302Y-142143406D01*
X166810295Y-142143412D01*
X166643412Y-142310295D01*
X166643406Y-142310302D01*
X166499730Y-142497545D01*
X166381719Y-142701943D01*
X166381714Y-142701954D01*
X166291394Y-142920006D01*
X166230306Y-143147989D01*
X166199501Y-143381979D01*
X166199500Y-143381995D01*
X147300499Y-143381995D01*
X147300499Y-142399992D01*
X147289999Y-142297203D01*
X147234814Y-142130666D01*
X147142712Y-141981344D01*
X147018656Y-141857288D01*
X146869334Y-141765186D01*
X146702797Y-141710001D01*
X146702795Y-141710000D01*
X146600010Y-141699500D01*
X144399998Y-141699500D01*
X144399981Y-141699501D01*
X144297203Y-141710000D01*
X144297200Y-141710001D01*
X144130668Y-141765185D01*
X144130663Y-141765187D01*
X143981342Y-141857289D01*
X143857289Y-141981342D01*
X143765187Y-142130663D01*
X143765185Y-142130668D01*
X143760962Y-142143412D01*
X143710001Y-142297203D01*
X143710001Y-142297204D01*
X143710000Y-142297204D01*
X143699500Y-142399983D01*
X140000500Y-142399983D01*
X140000500Y-135934110D01*
X140000500Y-135934108D01*
X139966392Y-135806814D01*
X139900500Y-135692686D01*
X139807314Y-135599500D01*
X139750250Y-135566554D01*
X139693187Y-135533608D01*
X139629539Y-135516554D01*
X139565892Y-135499500D01*
X139565891Y-135499500D01*
X87124500Y-135499500D01*
X87057461Y-135479815D01*
X87011706Y-135427011D01*
X87000500Y-135375500D01*
X87000500Y-131437106D01*
X87599500Y-131437106D01*
X87599500Y-131762893D01*
X87635974Y-132086604D01*
X87635976Y-132086620D01*
X87708467Y-132404226D01*
X87708471Y-132404238D01*
X87816066Y-132711725D01*
X87957413Y-133005234D01*
X87957415Y-133005237D01*
X88130739Y-133281081D01*
X88333857Y-133535783D01*
X88564217Y-133766143D01*
X88818919Y-133969261D01*
X89094763Y-134142585D01*
X89388278Y-134283935D01*
X89619217Y-134364744D01*
X89695761Y-134391528D01*
X89695773Y-134391532D01*
X90013383Y-134464024D01*
X90337106Y-134500499D01*
X90337107Y-134500500D01*
X90337111Y-134500500D01*
X90662893Y-134500500D01*
X90662893Y-134500499D01*
X90986617Y-134464024D01*
X91304227Y-134391532D01*
X91611722Y-134283935D01*
X91905237Y-134142585D01*
X92181081Y-133969261D01*
X92435783Y-133766143D01*
X92666143Y-133535783D01*
X92666149Y-133535776D01*
X92702097Y-133490699D01*
X92702097Y-133490698D01*
X92724184Y-133463002D01*
X92869261Y-133281081D01*
X93042585Y-133005237D01*
X93183935Y-132711722D01*
X93291532Y-132404227D01*
X93293923Y-132393753D01*
X148950000Y-132393753D01*
X148950000Y-132606246D01*
X148983242Y-132816127D01*
X148983242Y-132816130D01*
X149048904Y-133018217D01*
X149145375Y-133207550D01*
X149184728Y-133261716D01*
X149817037Y-132629408D01*
X149834075Y-132692993D01*
X149899901Y-132807007D01*
X149992993Y-132900099D01*
X150107007Y-132965925D01*
X150170590Y-132982962D01*
X149538282Y-133615269D01*
X149538282Y-133615270D01*
X149592449Y-133654624D01*
X149781782Y-133751095D01*
X149983870Y-133816757D01*
X150193754Y-133850000D01*
X150406246Y-133850000D01*
X150616127Y-133816757D01*
X150616130Y-133816757D01*
X150818217Y-133751095D01*
X151007554Y-133654622D01*
X151061716Y-133615270D01*
X151061717Y-133615270D01*
X150429408Y-132982962D01*
X150492993Y-132965925D01*
X150607007Y-132900099D01*
X150700099Y-132807007D01*
X150765925Y-132692993D01*
X150782962Y-132629408D01*
X151415270Y-133261717D01*
X151415270Y-133261716D01*
X151454622Y-133207555D01*
X151459232Y-133198507D01*
X151507205Y-133147709D01*
X151575025Y-133130912D01*
X151641161Y-133153447D01*
X151680204Y-133198504D01*
X151684949Y-133207817D01*
X151809890Y-133379786D01*
X151960213Y-133530109D01*
X152132179Y-133655048D01*
X152132181Y-133655049D01*
X152132184Y-133655051D01*
X152321588Y-133751557D01*
X152523757Y-133817246D01*
X152733713Y-133850500D01*
X152733714Y-133850500D01*
X152946286Y-133850500D01*
X152946287Y-133850500D01*
X153156243Y-133817246D01*
X153358412Y-133751557D01*
X153547816Y-133655051D01*
X153634138Y-133592335D01*
X153719786Y-133530109D01*
X153719788Y-133530106D01*
X153719792Y-133530104D01*
X153870104Y-133379792D01*
X153870106Y-133379788D01*
X153870109Y-133379786D01*
X153995048Y-133207820D01*
X153995047Y-133207820D01*
X153995051Y-133207816D01*
X153999514Y-133199054D01*
X154047488Y-133148259D01*
X154115308Y-133131463D01*
X154181444Y-133153999D01*
X154220486Y-133199056D01*
X154224951Y-133207820D01*
X154349890Y-133379786D01*
X154500213Y-133530109D01*
X154672179Y-133655048D01*
X154672181Y-133655049D01*
X154672184Y-133655051D01*
X154861588Y-133751557D01*
X155063757Y-133817246D01*
X155273713Y-133850500D01*
X155273714Y-133850500D01*
X155486286Y-133850500D01*
X155486287Y-133850500D01*
X155696243Y-133817246D01*
X155898412Y-133751557D01*
X156087816Y-133655051D01*
X156174138Y-133592335D01*
X156259786Y-133530109D01*
X156259788Y-133530106D01*
X156259792Y-133530104D01*
X156410104Y-133379792D01*
X156410106Y-133379788D01*
X156410109Y-133379786D01*
X156535048Y-133207820D01*
X156535047Y-133207820D01*
X156535051Y-133207816D01*
X156539514Y-133199054D01*
X156587488Y-133148259D01*
X156655308Y-133131463D01*
X156721444Y-133153999D01*
X156760486Y-133199056D01*
X156764951Y-133207820D01*
X156889890Y-133379786D01*
X157040213Y-133530109D01*
X157212179Y-133655048D01*
X157212181Y-133655049D01*
X157212184Y-133655051D01*
X157401588Y-133751557D01*
X157603757Y-133817246D01*
X157813713Y-133850500D01*
X157813714Y-133850500D01*
X158026286Y-133850500D01*
X158026287Y-133850500D01*
X158236243Y-133817246D01*
X158438412Y-133751557D01*
X158627816Y-133655051D01*
X158714138Y-133592335D01*
X158799786Y-133530109D01*
X158799788Y-133530106D01*
X158799792Y-133530104D01*
X158950104Y-133379792D01*
X158950106Y-133379788D01*
X158950109Y-133379786D01*
X159075048Y-133207820D01*
X159075047Y-133207820D01*
X159075051Y-133207816D01*
X159079514Y-133199054D01*
X159127488Y-133148259D01*
X159195308Y-133131463D01*
X159261444Y-133153999D01*
X159300486Y-133199056D01*
X159304951Y-133207820D01*
X159429890Y-133379786D01*
X159580213Y-133530109D01*
X159752179Y-133655048D01*
X159752181Y-133655049D01*
X159752184Y-133655051D01*
X159941588Y-133751557D01*
X160143757Y-133817246D01*
X160353713Y-133850500D01*
X160353714Y-133850500D01*
X160566286Y-133850500D01*
X160566287Y-133850500D01*
X160776243Y-133817246D01*
X160978412Y-133751557D01*
X161167816Y-133655051D01*
X161254138Y-133592335D01*
X161339786Y-133530109D01*
X161339788Y-133530106D01*
X161339792Y-133530104D01*
X161490104Y-133379792D01*
X161490106Y-133379788D01*
X161490109Y-133379786D01*
X161575890Y-133261717D01*
X161615051Y-133207816D01*
X161619793Y-133198508D01*
X161667763Y-133147711D01*
X161735583Y-133130911D01*
X161801719Y-133153445D01*
X161840763Y-133198500D01*
X161845373Y-133207547D01*
X161884728Y-133261716D01*
X162517037Y-132629408D01*
X162534075Y-132692993D01*
X162599901Y-132807007D01*
X162692993Y-132900099D01*
X162807007Y-132965925D01*
X162870590Y-132982962D01*
X162238282Y-133615269D01*
X162238282Y-133615270D01*
X162292449Y-133654624D01*
X162481782Y-133751095D01*
X162683870Y-133816757D01*
X162893754Y-133850000D01*
X163106246Y-133850000D01*
X163316127Y-133816757D01*
X163316130Y-133816757D01*
X163518217Y-133751095D01*
X163707554Y-133654622D01*
X163761716Y-133615270D01*
X163761717Y-133615270D01*
X163129408Y-132982962D01*
X163192993Y-132965925D01*
X163307007Y-132900099D01*
X163400099Y-132807007D01*
X163465925Y-132692993D01*
X163482962Y-132629408D01*
X164115270Y-133261717D01*
X164115270Y-133261716D01*
X164154622Y-133207555D01*
X164159232Y-133198507D01*
X164207205Y-133147709D01*
X164275025Y-133130912D01*
X164341161Y-133153447D01*
X164380204Y-133198504D01*
X164384949Y-133207817D01*
X164509890Y-133379786D01*
X164660213Y-133530109D01*
X164832179Y-133655048D01*
X164832181Y-133655049D01*
X164832184Y-133655051D01*
X165021588Y-133751557D01*
X165223757Y-133817246D01*
X165433713Y-133850500D01*
X165433714Y-133850500D01*
X165646286Y-133850500D01*
X165646287Y-133850500D01*
X165856243Y-133817246D01*
X166058412Y-133751557D01*
X166247816Y-133655051D01*
X166334147Y-133592328D01*
X166419784Y-133530110D01*
X166419784Y-133530109D01*
X166419792Y-133530104D01*
X166533329Y-133416566D01*
X166594648Y-133383084D01*
X166664340Y-133388068D01*
X166720274Y-133429939D01*
X166737189Y-133460917D01*
X166786202Y-133592328D01*
X166786206Y-133592335D01*
X166872452Y-133707544D01*
X166872455Y-133707547D01*
X166987664Y-133793793D01*
X166987671Y-133793797D01*
X167122517Y-133844091D01*
X167122516Y-133844091D01*
X167129444Y-133844835D01*
X167182127Y-133850500D01*
X168977872Y-133850499D01*
X169037483Y-133844091D01*
X169172331Y-133793796D01*
X169287546Y-133707546D01*
X169373796Y-133592331D01*
X169424091Y-133457483D01*
X169430500Y-133397873D01*
X169430499Y-131602128D01*
X169424091Y-131542517D01*
X169422810Y-131539083D01*
X169385917Y-131440167D01*
X169385916Y-131440165D01*
X169373798Y-131407673D01*
X169373793Y-131407664D01*
X169368043Y-131399983D01*
X177199500Y-131399983D01*
X177199500Y-132600001D01*
X177199501Y-132600018D01*
X177210000Y-132702796D01*
X177210001Y-132702799D01*
X177259957Y-132853554D01*
X177265186Y-132869334D01*
X177357288Y-133018656D01*
X177481344Y-133142712D01*
X177630666Y-133234814D01*
X177797203Y-133289999D01*
X177899991Y-133300500D01*
X179100008Y-133300499D01*
X179202797Y-133289999D01*
X179369334Y-133234814D01*
X179518656Y-133142712D01*
X179642712Y-133018656D01*
X179734814Y-132869334D01*
X179789999Y-132702797D01*
X179800500Y-132600009D01*
X179800499Y-131437106D01*
X220099500Y-131437106D01*
X220099500Y-131762893D01*
X220135974Y-132086604D01*
X220135976Y-132086620D01*
X220208467Y-132404226D01*
X220208471Y-132404238D01*
X220316066Y-132711725D01*
X220457413Y-133005234D01*
X220457415Y-133005237D01*
X220630739Y-133281081D01*
X220833857Y-133535783D01*
X221064217Y-133766143D01*
X221318919Y-133969261D01*
X221594763Y-134142585D01*
X221888278Y-134283935D01*
X222119217Y-134364744D01*
X222195761Y-134391528D01*
X222195773Y-134391532D01*
X222513383Y-134464024D01*
X222837106Y-134500499D01*
X222837107Y-134500500D01*
X222837111Y-134500500D01*
X223162893Y-134500500D01*
X223162893Y-134500499D01*
X223486617Y-134464024D01*
X223804227Y-134391532D01*
X224111722Y-134283935D01*
X224405237Y-134142585D01*
X224681081Y-133969261D01*
X224935783Y-133766143D01*
X225166143Y-133535783D01*
X225369261Y-133281081D01*
X225542585Y-133005237D01*
X225683935Y-132711722D01*
X225791532Y-132404227D01*
X225864024Y-132086617D01*
X225900500Y-131762889D01*
X225900500Y-131437111D01*
X225864024Y-131113383D01*
X225791532Y-130795773D01*
X225683935Y-130488278D01*
X225542585Y-130194763D01*
X225369261Y-129918919D01*
X225166143Y-129664217D01*
X224935783Y-129433857D01*
X224681081Y-129230739D01*
X224405237Y-129057415D01*
X224405234Y-129057413D01*
X224111725Y-128916066D01*
X223804238Y-128808471D01*
X223804226Y-128808467D01*
X223486620Y-128735976D01*
X223486604Y-128735974D01*
X223162893Y-128699500D01*
X223162889Y-128699500D01*
X222837111Y-128699500D01*
X222837107Y-128699500D01*
X222513395Y-128735974D01*
X222513379Y-128735976D01*
X222195773Y-128808467D01*
X222195761Y-128808471D01*
X221888274Y-128916066D01*
X221594765Y-129057413D01*
X221318920Y-129230738D01*
X221064217Y-129433856D01*
X220833856Y-129664217D01*
X220630738Y-129918920D01*
X220457413Y-130194765D01*
X220316066Y-130488274D01*
X220208471Y-130795761D01*
X220208467Y-130795773D01*
X220135976Y-131113379D01*
X220135974Y-131113395D01*
X220099500Y-131437106D01*
X179800499Y-131437106D01*
X179800499Y-131399992D01*
X179789999Y-131297203D01*
X179734814Y-131130666D01*
X179642712Y-130981344D01*
X179518656Y-130857288D01*
X179369334Y-130765186D01*
X179202797Y-130710001D01*
X179202795Y-130710000D01*
X179100010Y-130699500D01*
X177899998Y-130699500D01*
X177899981Y-130699501D01*
X177797203Y-130710000D01*
X177797200Y-130710001D01*
X177630668Y-130765185D01*
X177630663Y-130765187D01*
X177481342Y-130857289D01*
X177357289Y-130981342D01*
X177265187Y-131130663D01*
X177265185Y-131130668D01*
X177256821Y-131155909D01*
X177210001Y-131297203D01*
X177210001Y-131297204D01*
X177210000Y-131297204D01*
X177199500Y-131399983D01*
X169368043Y-131399983D01*
X169287547Y-131292455D01*
X169287544Y-131292452D01*
X169172335Y-131206206D01*
X169172328Y-131206202D01*
X169037482Y-131155908D01*
X169037483Y-131155908D01*
X168977883Y-131149501D01*
X168977881Y-131149500D01*
X168977873Y-131149500D01*
X168977864Y-131149500D01*
X167182129Y-131149500D01*
X167182123Y-131149501D01*
X167122516Y-131155908D01*
X166987671Y-131206202D01*
X166987664Y-131206206D01*
X166872455Y-131292452D01*
X166872452Y-131292455D01*
X166786206Y-131407664D01*
X166786203Y-131407669D01*
X166737189Y-131539083D01*
X166695317Y-131595016D01*
X166629853Y-131619433D01*
X166561580Y-131604581D01*
X166533326Y-131583430D01*
X166419786Y-131469890D01*
X166247820Y-131344951D01*
X166058414Y-131248444D01*
X166058413Y-131248443D01*
X166058412Y-131248443D01*
X165856243Y-131182754D01*
X165856241Y-131182753D01*
X165856240Y-131182753D01*
X165694957Y-131157208D01*
X165646287Y-131149500D01*
X165433713Y-131149500D01*
X165385042Y-131157208D01*
X165223760Y-131182753D01*
X165021585Y-131248444D01*
X164832179Y-131344951D01*
X164660213Y-131469890D01*
X164509890Y-131620213D01*
X164384949Y-131792182D01*
X164380202Y-131801499D01*
X164332227Y-131852293D01*
X164264405Y-131869087D01*
X164198271Y-131846548D01*
X164159234Y-131801495D01*
X164154626Y-131792452D01*
X164115270Y-131738282D01*
X164115269Y-131738282D01*
X163482962Y-132370590D01*
X163465925Y-132307007D01*
X163400099Y-132192993D01*
X163307007Y-132099901D01*
X163192993Y-132034075D01*
X163129409Y-132017037D01*
X163761716Y-131384728D01*
X163707550Y-131345375D01*
X163518217Y-131248904D01*
X163316129Y-131183242D01*
X163106246Y-131150000D01*
X162893754Y-131150000D01*
X162683872Y-131183242D01*
X162683869Y-131183242D01*
X162481782Y-131248904D01*
X162292439Y-131345380D01*
X162238282Y-131384727D01*
X162238282Y-131384728D01*
X162870591Y-132017037D01*
X162807007Y-132034075D01*
X162692993Y-132099901D01*
X162599901Y-132192993D01*
X162534075Y-132307007D01*
X162517037Y-132370591D01*
X161884728Y-131738282D01*
X161884727Y-131738282D01*
X161845380Y-131792440D01*
X161845376Y-131792446D01*
X161840760Y-131801505D01*
X161792781Y-131852297D01*
X161724959Y-131869087D01*
X161658826Y-131846543D01*
X161619794Y-131801493D01*
X161615051Y-131792184D01*
X161615049Y-131792181D01*
X161615048Y-131792179D01*
X161490109Y-131620213D01*
X161339786Y-131469890D01*
X161167820Y-131344951D01*
X160978414Y-131248444D01*
X160978413Y-131248443D01*
X160978412Y-131248443D01*
X160776243Y-131182754D01*
X160776241Y-131182753D01*
X160776240Y-131182753D01*
X160614957Y-131157208D01*
X160566287Y-131149500D01*
X160353713Y-131149500D01*
X160305042Y-131157208D01*
X160143760Y-131182753D01*
X159941585Y-131248444D01*
X159752179Y-131344951D01*
X159580213Y-131469890D01*
X159429890Y-131620213D01*
X159304949Y-131792182D01*
X159300484Y-131800946D01*
X159252509Y-131851742D01*
X159184688Y-131868536D01*
X159118553Y-131845998D01*
X159079516Y-131800946D01*
X159075050Y-131792182D01*
X158950109Y-131620213D01*
X158799786Y-131469890D01*
X158627820Y-131344951D01*
X158438414Y-131248444D01*
X158438413Y-131248443D01*
X158438412Y-131248443D01*
X158236243Y-131182754D01*
X158236241Y-131182753D01*
X158236240Y-131182753D01*
X158074957Y-131157208D01*
X158026287Y-131149500D01*
X157813713Y-131149500D01*
X157765042Y-131157208D01*
X157603760Y-131182753D01*
X157401585Y-131248444D01*
X157212179Y-131344951D01*
X157040213Y-131469890D01*
X156889890Y-131620213D01*
X156764949Y-131792182D01*
X156760484Y-131800946D01*
X156712509Y-131851742D01*
X156644688Y-131868536D01*
X156578553Y-131845998D01*
X156539516Y-131800946D01*
X156535050Y-131792182D01*
X156410109Y-131620213D01*
X156259786Y-131469890D01*
X156087820Y-131344951D01*
X155898414Y-131248444D01*
X155898413Y-131248443D01*
X155898412Y-131248443D01*
X155696243Y-131182754D01*
X155696241Y-131182753D01*
X155696240Y-131182753D01*
X155534957Y-131157208D01*
X155486287Y-131149500D01*
X155273713Y-131149500D01*
X155225042Y-131157208D01*
X155063760Y-131182753D01*
X154861585Y-131248444D01*
X154672179Y-131344951D01*
X154500213Y-131469890D01*
X154349890Y-131620213D01*
X154224949Y-131792182D01*
X154220484Y-131800946D01*
X154172509Y-131851742D01*
X154104688Y-131868536D01*
X154038553Y-131845998D01*
X153999516Y-131800946D01*
X153995050Y-131792182D01*
X153870109Y-131620213D01*
X153719786Y-131469890D01*
X153547820Y-131344951D01*
X153358414Y-131248444D01*
X153358413Y-131248443D01*
X153358412Y-131248443D01*
X153156243Y-131182754D01*
X153156241Y-131182753D01*
X153156240Y-131182753D01*
X152994957Y-131157208D01*
X152946287Y-131149500D01*
X152733713Y-131149500D01*
X152685042Y-131157208D01*
X152523760Y-131182753D01*
X152321585Y-131248444D01*
X152132179Y-131344951D01*
X151960213Y-131469890D01*
X151809890Y-131620213D01*
X151684949Y-131792182D01*
X151680202Y-131801499D01*
X151632227Y-131852293D01*
X151564405Y-131869087D01*
X151498271Y-131846548D01*
X151459234Y-131801495D01*
X151454626Y-131792452D01*
X151415270Y-131738282D01*
X151415269Y-131738282D01*
X150782962Y-132370590D01*
X150765925Y-132307007D01*
X150700099Y-132192993D01*
X150607007Y-132099901D01*
X150492993Y-132034075D01*
X150429409Y-132017037D01*
X151061716Y-131384728D01*
X151007550Y-131345375D01*
X150818217Y-131248904D01*
X150616129Y-131183242D01*
X150406246Y-131150000D01*
X150193754Y-131150000D01*
X149983872Y-131183242D01*
X149983869Y-131183242D01*
X149781782Y-131248904D01*
X149592439Y-131345380D01*
X149538282Y-131384727D01*
X149538282Y-131384728D01*
X150170591Y-132017037D01*
X150107007Y-132034075D01*
X149992993Y-132099901D01*
X149899901Y-132192993D01*
X149834075Y-132307007D01*
X149817037Y-132370591D01*
X149184728Y-131738282D01*
X149184727Y-131738282D01*
X149145380Y-131792439D01*
X149048904Y-131981782D01*
X148983242Y-132183869D01*
X148983242Y-132183872D01*
X148950000Y-132393753D01*
X93293923Y-132393753D01*
X93364024Y-132086617D01*
X93400500Y-131762889D01*
X93400500Y-131437111D01*
X93364024Y-131113383D01*
X93291532Y-130795773D01*
X93183935Y-130488278D01*
X93042585Y-130194763D01*
X92869261Y-129918919D01*
X92666143Y-129664217D01*
X92435783Y-129433857D01*
X92181081Y-129230739D01*
X91905237Y-129057415D01*
X91905234Y-129057413D01*
X91611725Y-128916066D01*
X91304238Y-128808471D01*
X91304226Y-128808467D01*
X90986620Y-128735976D01*
X90986604Y-128735974D01*
X90662893Y-128699500D01*
X90662889Y-128699500D01*
X90337111Y-128699500D01*
X90337107Y-128699500D01*
X90013395Y-128735974D01*
X90013379Y-128735976D01*
X89695773Y-128808467D01*
X89695761Y-128808471D01*
X89388274Y-128916066D01*
X89094765Y-129057413D01*
X88818920Y-129230738D01*
X88564217Y-129433856D01*
X88333856Y-129664217D01*
X88130738Y-129918920D01*
X87957413Y-130194765D01*
X87816066Y-130488274D01*
X87708471Y-130795761D01*
X87708467Y-130795773D01*
X87635976Y-131113379D01*
X87635974Y-131113395D01*
X87599500Y-131437106D01*
X87000500Y-131437106D01*
X87000500Y-127899983D01*
X97699500Y-127899983D01*
X97699500Y-130100001D01*
X97699501Y-130100018D01*
X97710000Y-130202796D01*
X97710001Y-130202799D01*
X97757975Y-130347573D01*
X97765186Y-130369334D01*
X97857288Y-130518656D01*
X97981344Y-130642712D01*
X98130666Y-130734814D01*
X98297203Y-130789999D01*
X98399991Y-130800500D01*
X100600008Y-130800499D01*
X100702797Y-130789999D01*
X100869334Y-130734814D01*
X101018656Y-130642712D01*
X101142712Y-130518656D01*
X101234814Y-130369334D01*
X101289999Y-130202797D01*
X101300500Y-130100009D01*
X101300499Y-128881995D01*
X102699500Y-128881995D01*
X102699500Y-129118004D01*
X102699501Y-129118020D01*
X102730306Y-129352010D01*
X102791394Y-129579993D01*
X102881714Y-129798045D01*
X102881719Y-129798056D01*
X102938493Y-129896390D01*
X102999727Y-130002450D01*
X102999729Y-130002453D01*
X102999730Y-130002454D01*
X103143406Y-130189697D01*
X103143412Y-130189704D01*
X103310295Y-130356587D01*
X103310302Y-130356593D01*
X103420306Y-130441001D01*
X103497550Y-130500273D01*
X103628918Y-130576118D01*
X103701943Y-130618280D01*
X103701948Y-130618282D01*
X103701951Y-130618284D01*
X103920007Y-130708606D01*
X104147986Y-130769693D01*
X104381989Y-130800500D01*
X104381996Y-130800500D01*
X104618004Y-130800500D01*
X104618011Y-130800500D01*
X104852014Y-130769693D01*
X105079993Y-130708606D01*
X105298049Y-130618284D01*
X105502450Y-130500273D01*
X105689699Y-130356592D01*
X105856592Y-130189699D01*
X106000273Y-130002450D01*
X106118284Y-129798049D01*
X106208606Y-129579993D01*
X106269693Y-129352014D01*
X106300500Y-129118011D01*
X106300500Y-128881995D01*
X107699500Y-128881995D01*
X107699500Y-129118004D01*
X107699501Y-129118020D01*
X107730306Y-129352010D01*
X107791394Y-129579993D01*
X107881714Y-129798045D01*
X107881719Y-129798056D01*
X107938493Y-129896390D01*
X107999727Y-130002450D01*
X107999729Y-130002453D01*
X107999730Y-130002454D01*
X108143406Y-130189697D01*
X108143412Y-130189704D01*
X108310295Y-130356587D01*
X108310302Y-130356593D01*
X108420306Y-130441001D01*
X108497550Y-130500273D01*
X108628918Y-130576118D01*
X108701943Y-130618280D01*
X108701948Y-130618282D01*
X108701951Y-130618284D01*
X108920007Y-130708606D01*
X109147986Y-130769693D01*
X109381989Y-130800500D01*
X109381996Y-130800500D01*
X109618004Y-130800500D01*
X109618011Y-130800500D01*
X109852014Y-130769693D01*
X110079993Y-130708606D01*
X110298049Y-130618284D01*
X110502450Y-130500273D01*
X110689699Y-130356592D01*
X110698718Y-130347573D01*
X110744648Y-130301644D01*
X110856587Y-130189704D01*
X110856592Y-130189699D01*
X111000273Y-130002450D01*
X111118284Y-129798049D01*
X111208606Y-129579993D01*
X111269693Y-129352014D01*
X111300500Y-129118011D01*
X111300500Y-128882014D01*
X112700000Y-128882014D01*
X112700000Y-129117985D01*
X112730799Y-129351914D01*
X112791870Y-129579837D01*
X112882160Y-129797819D01*
X112882165Y-129797828D01*
X113000144Y-130002171D01*
X113000145Y-130002172D01*
X113062721Y-130083723D01*
X113898958Y-129247487D01*
X113923978Y-129307890D01*
X113995112Y-129414351D01*
X114085649Y-129504888D01*
X114192110Y-129576022D01*
X114252511Y-129601041D01*
X113416275Y-130437277D01*
X113497827Y-130499854D01*
X113497828Y-130499855D01*
X113702171Y-130617834D01*
X113702180Y-130617839D01*
X113920163Y-130708129D01*
X113920161Y-130708129D01*
X114148085Y-130769200D01*
X114382014Y-130799999D01*
X114382029Y-130800000D01*
X114617971Y-130800000D01*
X114617985Y-130799999D01*
X114851914Y-130769200D01*
X115079837Y-130708129D01*
X115297819Y-130617839D01*
X115297828Y-130617834D01*
X115502181Y-130499850D01*
X115583723Y-130437279D01*
X115583723Y-130437276D01*
X114747487Y-129601041D01*
X114807890Y-129576022D01*
X114914351Y-129504888D01*
X115004888Y-129414351D01*
X115076022Y-129307890D01*
X115101041Y-129247487D01*
X115937276Y-130083723D01*
X115937279Y-130083723D01*
X115999850Y-130002181D01*
X116117834Y-129797828D01*
X116117839Y-129797819D01*
X116208129Y-129579837D01*
X116269200Y-129351914D01*
X116291512Y-129182452D01*
X116291512Y-129182451D01*
X116299998Y-129117988D01*
X116300000Y-129117971D01*
X116300000Y-128882021D01*
X116269200Y-128648085D01*
X116208129Y-128420162D01*
X116117839Y-128202180D01*
X116117834Y-128202171D01*
X115999855Y-127997828D01*
X115999848Y-127997817D01*
X115980309Y-127972354D01*
X115980306Y-127972351D01*
X115937277Y-127916275D01*
X115101041Y-128752511D01*
X115076022Y-128692110D01*
X115004888Y-128585649D01*
X114914351Y-128495112D01*
X114807890Y-128423978D01*
X114747488Y-128398958D01*
X115246432Y-127900013D01*
X119700000Y-127900013D01*
X119700000Y-128750000D01*
X120899999Y-128750000D01*
X120874979Y-128810402D01*
X120850000Y-128935981D01*
X120850000Y-129064019D01*
X120874979Y-129189598D01*
X120899999Y-129250000D01*
X119700001Y-129250000D01*
X119700001Y-130099986D01*
X119710494Y-130202697D01*
X119765641Y-130369119D01*
X119765643Y-130369124D01*
X119857684Y-130518345D01*
X119981654Y-130642315D01*
X120130875Y-130734356D01*
X120130880Y-130734358D01*
X120297302Y-130789505D01*
X120297309Y-130789506D01*
X120400019Y-130799999D01*
X121249999Y-130799999D01*
X121250000Y-130799998D01*
X121250000Y-129600001D01*
X121310402Y-129625021D01*
X121435981Y-129650000D01*
X121564019Y-129650000D01*
X121689598Y-129625021D01*
X121750000Y-129600001D01*
X121750000Y-130799999D01*
X122599972Y-130799999D01*
X122599986Y-130799998D01*
X122702697Y-130789505D01*
X122869119Y-130734358D01*
X122869124Y-130734356D01*
X123018345Y-130642315D01*
X123142315Y-130518345D01*
X123234356Y-130369124D01*
X123234358Y-130369119D01*
X123289505Y-130202697D01*
X123289506Y-130202690D01*
X123299999Y-130099986D01*
X123300000Y-130099973D01*
X123300000Y-129250000D01*
X122100001Y-129250000D01*
X122125021Y-129189598D01*
X122150000Y-129064019D01*
X122150000Y-128935981D01*
X122139262Y-128881995D01*
X124699500Y-128881995D01*
X124699500Y-129118004D01*
X124699501Y-129118020D01*
X124730306Y-129352010D01*
X124791394Y-129579993D01*
X124881714Y-129798045D01*
X124881719Y-129798056D01*
X124938493Y-129896390D01*
X124999727Y-130002450D01*
X124999729Y-130002453D01*
X124999730Y-130002454D01*
X125143406Y-130189697D01*
X125143412Y-130189704D01*
X125310295Y-130356587D01*
X125310302Y-130356593D01*
X125420306Y-130441001D01*
X125497550Y-130500273D01*
X125628918Y-130576118D01*
X125701943Y-130618280D01*
X125701948Y-130618282D01*
X125701951Y-130618284D01*
X125920007Y-130708606D01*
X126147986Y-130769693D01*
X126381989Y-130800500D01*
X126381996Y-130800500D01*
X126618004Y-130800500D01*
X126618011Y-130800500D01*
X126852014Y-130769693D01*
X127079993Y-130708606D01*
X127298049Y-130618284D01*
X127502450Y-130500273D01*
X127689699Y-130356592D01*
X127856592Y-130189699D01*
X128000273Y-130002450D01*
X128118284Y-129798049D01*
X128208606Y-129579993D01*
X128269693Y-129352014D01*
X128300500Y-129118011D01*
X128300500Y-128881995D01*
X129699500Y-128881995D01*
X129699500Y-129118004D01*
X129699501Y-129118020D01*
X129730306Y-129352010D01*
X129791394Y-129579993D01*
X129881714Y-129798045D01*
X129881719Y-129798056D01*
X129938493Y-129896390D01*
X129999727Y-130002450D01*
X129999729Y-130002453D01*
X129999730Y-130002454D01*
X130143406Y-130189697D01*
X130143412Y-130189704D01*
X130310295Y-130356587D01*
X130310302Y-130356593D01*
X130420306Y-130441001D01*
X130497550Y-130500273D01*
X130628918Y-130576118D01*
X130701943Y-130618280D01*
X130701948Y-130618282D01*
X130701951Y-130618284D01*
X130920007Y-130708606D01*
X131147986Y-130769693D01*
X131381989Y-130800500D01*
X131381996Y-130800500D01*
X131618004Y-130800500D01*
X131618011Y-130800500D01*
X131852014Y-130769693D01*
X132079993Y-130708606D01*
X132298049Y-130618284D01*
X132502450Y-130500273D01*
X132689699Y-130356592D01*
X132856592Y-130189699D01*
X133000273Y-130002450D01*
X133118284Y-129798049D01*
X133208606Y-129579993D01*
X133269693Y-129352014D01*
X133300500Y-129118011D01*
X133300500Y-128881995D01*
X134699500Y-128881995D01*
X134699500Y-129118004D01*
X134699501Y-129118020D01*
X134730306Y-129352010D01*
X134791394Y-129579993D01*
X134881714Y-129798045D01*
X134881719Y-129798056D01*
X134938493Y-129896390D01*
X134999727Y-130002450D01*
X134999729Y-130002453D01*
X134999730Y-130002454D01*
X135143406Y-130189697D01*
X135143412Y-130189704D01*
X135310295Y-130356587D01*
X135310302Y-130356593D01*
X135420306Y-130441001D01*
X135497550Y-130500273D01*
X135628918Y-130576118D01*
X135701943Y-130618280D01*
X135701948Y-130618282D01*
X135701951Y-130618284D01*
X135920007Y-130708606D01*
X136147986Y-130769693D01*
X136381989Y-130800500D01*
X136381996Y-130800500D01*
X136618004Y-130800500D01*
X136618011Y-130800500D01*
X136852014Y-130769693D01*
X137079993Y-130708606D01*
X137298049Y-130618284D01*
X137502450Y-130500273D01*
X137689699Y-130356592D01*
X137856592Y-130189699D01*
X138000273Y-130002450D01*
X138118284Y-129798049D01*
X138208606Y-129579993D01*
X138269693Y-129352014D01*
X138300500Y-129118011D01*
X138300500Y-128881989D01*
X138269693Y-128647986D01*
X138208606Y-128420007D01*
X138199359Y-128397682D01*
X177200000Y-128397682D01*
X177200000Y-128602317D01*
X177232009Y-128804417D01*
X177295244Y-128999031D01*
X177388141Y-129181350D01*
X177388147Y-129181359D01*
X177420523Y-129225921D01*
X177420524Y-129225922D01*
X178100000Y-128546446D01*
X178100000Y-128552661D01*
X178127259Y-128654394D01*
X178179920Y-128745606D01*
X178254394Y-128820080D01*
X178345606Y-128872741D01*
X178447339Y-128900000D01*
X178453553Y-128900000D01*
X177774076Y-129579474D01*
X177818650Y-129611859D01*
X178000968Y-129704755D01*
X178195582Y-129767990D01*
X178397683Y-129800000D01*
X178602317Y-129800000D01*
X178804417Y-129767990D01*
X178999031Y-129704755D01*
X179181349Y-129611859D01*
X179225921Y-129579474D01*
X178546447Y-128900000D01*
X178552661Y-128900000D01*
X178654394Y-128872741D01*
X178745606Y-128820080D01*
X178820080Y-128745606D01*
X178872741Y-128654394D01*
X178900000Y-128552661D01*
X178900000Y-128546448D01*
X179579474Y-129225922D01*
X179579474Y-129225921D01*
X179611859Y-129181349D01*
X179704755Y-128999031D01*
X179767990Y-128804417D01*
X179800000Y-128602317D01*
X179800000Y-128397682D01*
X179767990Y-128195582D01*
X179704755Y-128000968D01*
X179611859Y-127818650D01*
X179579474Y-127774077D01*
X179579474Y-127774076D01*
X178900000Y-128453551D01*
X178900000Y-128447339D01*
X178872741Y-128345606D01*
X178820080Y-128254394D01*
X178745606Y-128179920D01*
X178654394Y-128127259D01*
X178552661Y-128100000D01*
X178546446Y-128100000D01*
X179225922Y-127420524D01*
X179225921Y-127420523D01*
X179181359Y-127388147D01*
X179181350Y-127388141D01*
X178999031Y-127295244D01*
X178804417Y-127232009D01*
X178602317Y-127200000D01*
X178397683Y-127200000D01*
X178195582Y-127232009D01*
X178000968Y-127295244D01*
X177818644Y-127388143D01*
X177774077Y-127420523D01*
X177774077Y-127420524D01*
X178453554Y-128100000D01*
X178447339Y-128100000D01*
X178345606Y-128127259D01*
X178254394Y-128179920D01*
X178179920Y-128254394D01*
X178127259Y-128345606D01*
X178100000Y-128447339D01*
X178100000Y-128453553D01*
X177420524Y-127774077D01*
X177420523Y-127774077D01*
X177388143Y-127818644D01*
X177295244Y-128000968D01*
X177232009Y-128195582D01*
X177200000Y-128397682D01*
X138199359Y-128397682D01*
X138118284Y-128201951D01*
X138118282Y-128201948D01*
X138118280Y-128201943D01*
X138075161Y-128127259D01*
X138000273Y-127997550D01*
X137925406Y-127899981D01*
X137856593Y-127810302D01*
X137856587Y-127810295D01*
X137689704Y-127643412D01*
X137689697Y-127643406D01*
X137589026Y-127566159D01*
X137502454Y-127499730D01*
X137502453Y-127499729D01*
X137502450Y-127499727D01*
X137420957Y-127452677D01*
X137298056Y-127381719D01*
X137298045Y-127381714D01*
X137079993Y-127291394D01*
X136852010Y-127230306D01*
X136618020Y-127199501D01*
X136618017Y-127199500D01*
X136618011Y-127199500D01*
X136381989Y-127199500D01*
X136381983Y-127199500D01*
X136381979Y-127199501D01*
X136147989Y-127230306D01*
X135920006Y-127291394D01*
X135701954Y-127381714D01*
X135701943Y-127381719D01*
X135497545Y-127499730D01*
X135310302Y-127643406D01*
X135310295Y-127643412D01*
X135143412Y-127810295D01*
X135143406Y-127810302D01*
X134999730Y-127997545D01*
X134999727Y-127997549D01*
X134999727Y-127997550D01*
X134997754Y-128000968D01*
X134881719Y-128201943D01*
X134881714Y-128201954D01*
X134791394Y-128420006D01*
X134730306Y-128647989D01*
X134699501Y-128881979D01*
X134699500Y-128881995D01*
X133300500Y-128881995D01*
X133300500Y-128881989D01*
X133269693Y-128647986D01*
X133208606Y-128420007D01*
X133118284Y-128201951D01*
X133118282Y-128201948D01*
X133118280Y-128201943D01*
X133075161Y-128127259D01*
X133000273Y-127997550D01*
X132925406Y-127899981D01*
X132856593Y-127810302D01*
X132856587Y-127810295D01*
X132689704Y-127643412D01*
X132689697Y-127643406D01*
X132502454Y-127499730D01*
X132502453Y-127499729D01*
X132502450Y-127499727D01*
X132420957Y-127452677D01*
X132298056Y-127381719D01*
X132298045Y-127381714D01*
X132079993Y-127291394D01*
X131852010Y-127230306D01*
X131618020Y-127199501D01*
X131618017Y-127199500D01*
X131618011Y-127199500D01*
X131381989Y-127199500D01*
X131381983Y-127199500D01*
X131381979Y-127199501D01*
X131147989Y-127230306D01*
X130920006Y-127291394D01*
X130701954Y-127381714D01*
X130701943Y-127381719D01*
X130497545Y-127499730D01*
X130310302Y-127643406D01*
X130310295Y-127643412D01*
X130143412Y-127810295D01*
X130143406Y-127810302D01*
X129999730Y-127997545D01*
X129999727Y-127997549D01*
X129999727Y-127997550D01*
X129997754Y-128000968D01*
X129881719Y-128201943D01*
X129881714Y-128201954D01*
X129791394Y-128420006D01*
X129730306Y-128647989D01*
X129699501Y-128881979D01*
X129699500Y-128881995D01*
X128300500Y-128881995D01*
X128300500Y-128881989D01*
X128269693Y-128647986D01*
X128208606Y-128420007D01*
X128118284Y-128201951D01*
X128118282Y-128201948D01*
X128118280Y-128201943D01*
X128075161Y-128127259D01*
X128000273Y-127997550D01*
X127925406Y-127899981D01*
X127856593Y-127810302D01*
X127856587Y-127810295D01*
X127689704Y-127643412D01*
X127689697Y-127643406D01*
X127502454Y-127499730D01*
X127502453Y-127499729D01*
X127502450Y-127499727D01*
X127420957Y-127452677D01*
X127298056Y-127381719D01*
X127298045Y-127381714D01*
X127079993Y-127291394D01*
X126852010Y-127230306D01*
X126618020Y-127199501D01*
X126618017Y-127199500D01*
X126618011Y-127199500D01*
X126381989Y-127199500D01*
X126381983Y-127199500D01*
X126381979Y-127199501D01*
X126147989Y-127230306D01*
X125920006Y-127291394D01*
X125701954Y-127381714D01*
X125701943Y-127381719D01*
X125497545Y-127499730D01*
X125310302Y-127643406D01*
X125310295Y-127643412D01*
X125143412Y-127810295D01*
X125143406Y-127810302D01*
X124999730Y-127997545D01*
X124999727Y-127997549D01*
X124999727Y-127997550D01*
X124997754Y-128000968D01*
X124881719Y-128201943D01*
X124881714Y-128201954D01*
X124791394Y-128420006D01*
X124730306Y-128647989D01*
X124699501Y-128881979D01*
X124699500Y-128881995D01*
X122139262Y-128881995D01*
X122125021Y-128810402D01*
X122100001Y-128750000D01*
X123299999Y-128750000D01*
X123299999Y-127900028D01*
X123299998Y-127900013D01*
X123289505Y-127797302D01*
X123234358Y-127630880D01*
X123234356Y-127630875D01*
X123142315Y-127481654D01*
X123018345Y-127357684D01*
X122869124Y-127265643D01*
X122869119Y-127265641D01*
X122702697Y-127210494D01*
X122702690Y-127210493D01*
X122599986Y-127200000D01*
X121750000Y-127200000D01*
X121750000Y-128399998D01*
X121689598Y-128374979D01*
X121564019Y-128350000D01*
X121435981Y-128350000D01*
X121310402Y-128374979D01*
X121250000Y-128399998D01*
X121250000Y-127200000D01*
X120400028Y-127200000D01*
X120400012Y-127200001D01*
X120297302Y-127210494D01*
X120130880Y-127265641D01*
X120130875Y-127265643D01*
X119981654Y-127357684D01*
X119857684Y-127481654D01*
X119765643Y-127630875D01*
X119765641Y-127630880D01*
X119710494Y-127797302D01*
X119710493Y-127797309D01*
X119700000Y-127900013D01*
X115246432Y-127900013D01*
X115583723Y-127562721D01*
X115502172Y-127500145D01*
X115502171Y-127500144D01*
X115297828Y-127382165D01*
X115297819Y-127382160D01*
X115079836Y-127291870D01*
X115079838Y-127291870D01*
X114851914Y-127230799D01*
X114617985Y-127200000D01*
X114382014Y-127200000D01*
X114148085Y-127230799D01*
X113920162Y-127291870D01*
X113702180Y-127382160D01*
X113702171Y-127382165D01*
X113497828Y-127500144D01*
X113497818Y-127500150D01*
X113416275Y-127562720D01*
X113416275Y-127562721D01*
X114252512Y-128398958D01*
X114192110Y-128423978D01*
X114085649Y-128495112D01*
X113995112Y-128585649D01*
X113923978Y-128692110D01*
X113898958Y-128752511D01*
X113062721Y-127916275D01*
X113062720Y-127916275D01*
X113000150Y-127997818D01*
X113000144Y-127997828D01*
X112882165Y-128202171D01*
X112882160Y-128202180D01*
X112791870Y-128420162D01*
X112730799Y-128648085D01*
X112700000Y-128882014D01*
X111300500Y-128882014D01*
X111300500Y-128881989D01*
X111269693Y-128647986D01*
X111208606Y-128420007D01*
X111118284Y-128201951D01*
X111118282Y-128201948D01*
X111118280Y-128201943D01*
X111075161Y-128127259D01*
X111000273Y-127997550D01*
X110925406Y-127899981D01*
X110856593Y-127810302D01*
X110856587Y-127810295D01*
X110689704Y-127643412D01*
X110689697Y-127643406D01*
X110502454Y-127499730D01*
X110502453Y-127499729D01*
X110502450Y-127499727D01*
X110420957Y-127452677D01*
X110298056Y-127381719D01*
X110298045Y-127381714D01*
X110079993Y-127291394D01*
X109852010Y-127230306D01*
X109618020Y-127199501D01*
X109618017Y-127199500D01*
X109618011Y-127199500D01*
X109381989Y-127199500D01*
X109381983Y-127199500D01*
X109381979Y-127199501D01*
X109147989Y-127230306D01*
X108920006Y-127291394D01*
X108701954Y-127381714D01*
X108701943Y-127381719D01*
X108497545Y-127499730D01*
X108310302Y-127643406D01*
X108310295Y-127643412D01*
X108143412Y-127810295D01*
X108143406Y-127810302D01*
X107999730Y-127997545D01*
X107999727Y-127997549D01*
X107999727Y-127997550D01*
X107997754Y-128000968D01*
X107881719Y-128201943D01*
X107881714Y-128201954D01*
X107791394Y-128420006D01*
X107730306Y-128647989D01*
X107699501Y-128881979D01*
X107699500Y-128881995D01*
X106300500Y-128881995D01*
X106300500Y-128881989D01*
X106269693Y-128647986D01*
X106208606Y-128420007D01*
X106118284Y-128201951D01*
X106118282Y-128201948D01*
X106118280Y-128201943D01*
X106075161Y-128127259D01*
X106000273Y-127997550D01*
X105925406Y-127899981D01*
X105856593Y-127810302D01*
X105856587Y-127810295D01*
X105689704Y-127643412D01*
X105689697Y-127643406D01*
X105502454Y-127499730D01*
X105502453Y-127499729D01*
X105502450Y-127499727D01*
X105420957Y-127452677D01*
X105298056Y-127381719D01*
X105298045Y-127381714D01*
X105079993Y-127291394D01*
X104852010Y-127230306D01*
X104618020Y-127199501D01*
X104618017Y-127199500D01*
X104618011Y-127199500D01*
X104381989Y-127199500D01*
X104381983Y-127199500D01*
X104381979Y-127199501D01*
X104147989Y-127230306D01*
X103920006Y-127291394D01*
X103701954Y-127381714D01*
X103701943Y-127381719D01*
X103497545Y-127499730D01*
X103310302Y-127643406D01*
X103310295Y-127643412D01*
X103143412Y-127810295D01*
X103143406Y-127810302D01*
X102999730Y-127997545D01*
X102999727Y-127997549D01*
X102999727Y-127997550D01*
X102997754Y-128000968D01*
X102881719Y-128201943D01*
X102881714Y-128201954D01*
X102791394Y-128420006D01*
X102730306Y-128647989D01*
X102699501Y-128881979D01*
X102699500Y-128881995D01*
X101300499Y-128881995D01*
X101300499Y-127899992D01*
X101289999Y-127797203D01*
X101234814Y-127630666D01*
X101142712Y-127481344D01*
X101018656Y-127357288D01*
X100869334Y-127265186D01*
X100702797Y-127210001D01*
X100702795Y-127210000D01*
X100600010Y-127199500D01*
X98399998Y-127199500D01*
X98399981Y-127199501D01*
X98297203Y-127210000D01*
X98297200Y-127210001D01*
X98130668Y-127265185D01*
X98130663Y-127265187D01*
X97981342Y-127357289D01*
X97857289Y-127481342D01*
X97765187Y-127630663D01*
X97765185Y-127630668D01*
X97760962Y-127643412D01*
X97710001Y-127797203D01*
X97710001Y-127797204D01*
X97710000Y-127797204D01*
X97699500Y-127899983D01*
X87000500Y-127899983D01*
X87000500Y-119821153D01*
X106499500Y-119821153D01*
X106499500Y-119978846D01*
X106530261Y-120133489D01*
X106530264Y-120133501D01*
X106579574Y-120252548D01*
X106587043Y-120322018D01*
X106579574Y-120347452D01*
X106530264Y-120466498D01*
X106530261Y-120466510D01*
X106499500Y-120621153D01*
X106499500Y-120778846D01*
X106530261Y-120933489D01*
X106530264Y-120933501D01*
X106590602Y-121079172D01*
X106590609Y-121079185D01*
X106678210Y-121210288D01*
X106678213Y-121210292D01*
X106789707Y-121321786D01*
X106789711Y-121321789D01*
X106920814Y-121409390D01*
X106920827Y-121409397D01*
X107066498Y-121469735D01*
X107066503Y-121469737D01*
X107218644Y-121500000D01*
X107221153Y-121500499D01*
X107221156Y-121500500D01*
X107221158Y-121500500D01*
X107378844Y-121500500D01*
X107378845Y-121500499D01*
X107533497Y-121469737D01*
X107679179Y-121409394D01*
X107773459Y-121346398D01*
X107840136Y-121325520D01*
X107842350Y-121325500D01*
X131057650Y-121325500D01*
X131124689Y-121345185D01*
X131126541Y-121346398D01*
X131220821Y-121409394D01*
X131220823Y-121409395D01*
X131220827Y-121409397D01*
X131366498Y-121469735D01*
X131366503Y-121469737D01*
X131518644Y-121500000D01*
X131521153Y-121500499D01*
X131521156Y-121500500D01*
X131521158Y-121500500D01*
X131678844Y-121500500D01*
X131678845Y-121500499D01*
X131833497Y-121469737D01*
X131979179Y-121409394D01*
X132110289Y-121321789D01*
X132221789Y-121210289D01*
X132309394Y-121079179D01*
X132369737Y-120933497D01*
X132400500Y-120778842D01*
X132400500Y-120621158D01*
X132400500Y-120621155D01*
X132400499Y-120621153D01*
X132394765Y-120592328D01*
X132369737Y-120466503D01*
X132341309Y-120397872D01*
X132320425Y-120347452D01*
X132312956Y-120277983D01*
X132320425Y-120252548D01*
X132369735Y-120133501D01*
X132369737Y-120133497D01*
X132400500Y-119978842D01*
X132400500Y-119821158D01*
X132400500Y-119821155D01*
X132400499Y-119821153D01*
X132369738Y-119666510D01*
X132369737Y-119666503D01*
X132328036Y-119565826D01*
X132309397Y-119520827D01*
X132309390Y-119520814D01*
X132221789Y-119389711D01*
X132221786Y-119389707D01*
X132110292Y-119278213D01*
X132110288Y-119278210D01*
X131979185Y-119190609D01*
X131979172Y-119190602D01*
X131833501Y-119130264D01*
X131833489Y-119130261D01*
X131678845Y-119099500D01*
X131678842Y-119099500D01*
X131521158Y-119099500D01*
X131521155Y-119099500D01*
X131366510Y-119130261D01*
X131366498Y-119130264D01*
X131220827Y-119190602D01*
X131220815Y-119190609D01*
X131126541Y-119253602D01*
X131059864Y-119274480D01*
X131057650Y-119274500D01*
X107842350Y-119274500D01*
X107775311Y-119254815D01*
X107773459Y-119253602D01*
X107679184Y-119190609D01*
X107679172Y-119190602D01*
X107533501Y-119130264D01*
X107533489Y-119130261D01*
X107378845Y-119099500D01*
X107378842Y-119099500D01*
X107221158Y-119099500D01*
X107221155Y-119099500D01*
X107066510Y-119130261D01*
X107066498Y-119130264D01*
X106920827Y-119190602D01*
X106920814Y-119190609D01*
X106789711Y-119278210D01*
X106789707Y-119278213D01*
X106678213Y-119389707D01*
X106678210Y-119389711D01*
X106590609Y-119520814D01*
X106590602Y-119520827D01*
X106530264Y-119666498D01*
X106530261Y-119666510D01*
X106499500Y-119821153D01*
X87000500Y-119821153D01*
X87000500Y-117153753D01*
X148910000Y-117153753D01*
X148910000Y-117366246D01*
X148943242Y-117576127D01*
X148943242Y-117576130D01*
X149008904Y-117778217D01*
X149105375Y-117967550D01*
X149144728Y-118021716D01*
X149777037Y-117389408D01*
X149794075Y-117452993D01*
X149859901Y-117567007D01*
X149952993Y-117660099D01*
X150067007Y-117725925D01*
X150130590Y-117742962D01*
X149498282Y-118375269D01*
X149498282Y-118375270D01*
X149552449Y-118414624D01*
X149741782Y-118511095D01*
X149943870Y-118576757D01*
X150153754Y-118610000D01*
X150366246Y-118610000D01*
X150576127Y-118576757D01*
X150576130Y-118576757D01*
X150778217Y-118511095D01*
X150967554Y-118414622D01*
X151021716Y-118375270D01*
X151021717Y-118375270D01*
X150389408Y-117742962D01*
X150452993Y-117725925D01*
X150567007Y-117660099D01*
X150660099Y-117567007D01*
X150725925Y-117452993D01*
X150742962Y-117389408D01*
X151375270Y-118021717D01*
X151375270Y-118021716D01*
X151414622Y-117967555D01*
X151419232Y-117958507D01*
X151467205Y-117907709D01*
X151535025Y-117890912D01*
X151601161Y-117913447D01*
X151640204Y-117958504D01*
X151644949Y-117967817D01*
X151769890Y-118139786D01*
X151920213Y-118290109D01*
X152092179Y-118415048D01*
X152092181Y-118415049D01*
X152092184Y-118415051D01*
X152281588Y-118511557D01*
X152483757Y-118577246D01*
X152693713Y-118610500D01*
X152693714Y-118610500D01*
X152906286Y-118610500D01*
X152906287Y-118610500D01*
X153116243Y-118577246D01*
X153318412Y-118511557D01*
X153507816Y-118415051D01*
X153594138Y-118352335D01*
X153679786Y-118290109D01*
X153679788Y-118290106D01*
X153679792Y-118290104D01*
X153830104Y-118139792D01*
X153830106Y-118139788D01*
X153830109Y-118139786D01*
X153955048Y-117967820D01*
X153955050Y-117967817D01*
X153955051Y-117967816D01*
X153959514Y-117959054D01*
X154007488Y-117908259D01*
X154075308Y-117891463D01*
X154141444Y-117913999D01*
X154180486Y-117959056D01*
X154184951Y-117967820D01*
X154309890Y-118139786D01*
X154460213Y-118290109D01*
X154632179Y-118415048D01*
X154632181Y-118415049D01*
X154632184Y-118415051D01*
X154821588Y-118511557D01*
X155023757Y-118577246D01*
X155233713Y-118610500D01*
X155233714Y-118610500D01*
X155446286Y-118610500D01*
X155446287Y-118610500D01*
X155656243Y-118577246D01*
X155858412Y-118511557D01*
X156047816Y-118415051D01*
X156134138Y-118352335D01*
X156219786Y-118290109D01*
X156219788Y-118290106D01*
X156219792Y-118290104D01*
X156370104Y-118139792D01*
X156370106Y-118139788D01*
X156370109Y-118139786D01*
X156495048Y-117967820D01*
X156495050Y-117967817D01*
X156495051Y-117967816D01*
X156499514Y-117959054D01*
X156547488Y-117908259D01*
X156615308Y-117891463D01*
X156681444Y-117913999D01*
X156720486Y-117959056D01*
X156724951Y-117967820D01*
X156849890Y-118139786D01*
X157000213Y-118290109D01*
X157172179Y-118415048D01*
X157172181Y-118415049D01*
X157172184Y-118415051D01*
X157361588Y-118511557D01*
X157563757Y-118577246D01*
X157773713Y-118610500D01*
X157773714Y-118610500D01*
X157986286Y-118610500D01*
X157986287Y-118610500D01*
X158196243Y-118577246D01*
X158398412Y-118511557D01*
X158587816Y-118415051D01*
X158674138Y-118352335D01*
X158759786Y-118290109D01*
X158759788Y-118290106D01*
X158759792Y-118290104D01*
X158910104Y-118139792D01*
X158910106Y-118139788D01*
X158910109Y-118139786D01*
X159035048Y-117967820D01*
X159035050Y-117967817D01*
X159035051Y-117967816D01*
X159039514Y-117959054D01*
X159087488Y-117908259D01*
X159155308Y-117891463D01*
X159221444Y-117913999D01*
X159260486Y-117959056D01*
X159264951Y-117967820D01*
X159389890Y-118139786D01*
X159389896Y-118139792D01*
X159540208Y-118290104D01*
X159618384Y-118346902D01*
X159661051Y-118402231D01*
X159669500Y-118447220D01*
X159669500Y-123547111D01*
X159660061Y-123594563D01*
X159630263Y-123666501D01*
X159630260Y-123666511D01*
X159599500Y-123821153D01*
X159599500Y-123978846D01*
X159630261Y-124133489D01*
X159630264Y-124133501D01*
X159690602Y-124279172D01*
X159690609Y-124279185D01*
X159778210Y-124410288D01*
X159778213Y-124410292D01*
X159889707Y-124521786D01*
X159889711Y-124521789D01*
X160020814Y-124609390D01*
X160020827Y-124609397D01*
X160166498Y-124669735D01*
X160166503Y-124669737D01*
X160321153Y-124700499D01*
X160321156Y-124700500D01*
X160321158Y-124700500D01*
X160478844Y-124700500D01*
X160478845Y-124700499D01*
X160633497Y-124669737D01*
X160779179Y-124609394D01*
X160910289Y-124521789D01*
X161021789Y-124410289D01*
X161109394Y-124279179D01*
X161169737Y-124133497D01*
X161200500Y-123978842D01*
X161200500Y-123821158D01*
X161200500Y-123821155D01*
X161172883Y-123682318D01*
X161170500Y-123658126D01*
X161170500Y-121199983D01*
X212699500Y-121199983D01*
X212699500Y-122800001D01*
X212699501Y-122800018D01*
X212710000Y-122902796D01*
X212710001Y-122902799D01*
X212765185Y-123069331D01*
X212765186Y-123069334D01*
X212857288Y-123218656D01*
X212981344Y-123342712D01*
X213130666Y-123434814D01*
X213297203Y-123489999D01*
X213399991Y-123500500D01*
X215000008Y-123500499D01*
X215102797Y-123489999D01*
X215269334Y-123434814D01*
X215418656Y-123342712D01*
X215542712Y-123218656D01*
X215634814Y-123069334D01*
X215689999Y-122902797D01*
X215700500Y-122800009D01*
X215700499Y-121881947D01*
X217700000Y-121881947D01*
X217700000Y-122118052D01*
X217736934Y-122351247D01*
X217809897Y-122575802D01*
X217917087Y-122786174D01*
X217977338Y-122869104D01*
X217977340Y-122869105D01*
X218717037Y-122129408D01*
X218734075Y-122192993D01*
X218799901Y-122307007D01*
X218892993Y-122400099D01*
X219007007Y-122465925D01*
X219070590Y-122482962D01*
X218330893Y-123222658D01*
X218413828Y-123282914D01*
X218624197Y-123390102D01*
X218848752Y-123463065D01*
X218848751Y-123463065D01*
X219081948Y-123500000D01*
X219318052Y-123500000D01*
X219551247Y-123463065D01*
X219775802Y-123390102D01*
X219986163Y-123282918D01*
X219986169Y-123282914D01*
X220069104Y-123222658D01*
X220069105Y-123222658D01*
X219329408Y-122482962D01*
X219392993Y-122465925D01*
X219507007Y-122400099D01*
X219600099Y-122307007D01*
X219665925Y-122192993D01*
X219682962Y-122129409D01*
X220422658Y-122869105D01*
X220422658Y-122869104D01*
X220482914Y-122786169D01*
X220482918Y-122786163D01*
X220590102Y-122575802D01*
X220663065Y-122351247D01*
X220700000Y-122118052D01*
X220700000Y-121881947D01*
X220663065Y-121648752D01*
X220590102Y-121424197D01*
X220482914Y-121213828D01*
X220422658Y-121130894D01*
X220422658Y-121130893D01*
X219682962Y-121870590D01*
X219665925Y-121807007D01*
X219600099Y-121692993D01*
X219507007Y-121599901D01*
X219392993Y-121534075D01*
X219329409Y-121517037D01*
X220069105Y-120777340D01*
X220069104Y-120777338D01*
X219986174Y-120717087D01*
X219775802Y-120609897D01*
X219551247Y-120536934D01*
X219551248Y-120536934D01*
X219318052Y-120500000D01*
X219081948Y-120500000D01*
X218848752Y-120536934D01*
X218624197Y-120609897D01*
X218413830Y-120717084D01*
X218330894Y-120777340D01*
X219070591Y-121517037D01*
X219007007Y-121534075D01*
X218892993Y-121599901D01*
X218799901Y-121692993D01*
X218734075Y-121807007D01*
X218717037Y-121870590D01*
X217977340Y-121130894D01*
X217917084Y-121213830D01*
X217809897Y-121424197D01*
X217736934Y-121648752D01*
X217700000Y-121881947D01*
X215700499Y-121881947D01*
X215700499Y-121199992D01*
X215693440Y-121130893D01*
X215689999Y-121097203D01*
X215689998Y-121097200D01*
X215635753Y-120933501D01*
X215634814Y-120930666D01*
X215542712Y-120781344D01*
X215418656Y-120657288D01*
X215313343Y-120592331D01*
X215269336Y-120565187D01*
X215269331Y-120565185D01*
X215267862Y-120564698D01*
X215102797Y-120510001D01*
X215102795Y-120510000D01*
X215000010Y-120499500D01*
X213399998Y-120499500D01*
X213399981Y-120499501D01*
X213297203Y-120510000D01*
X213297200Y-120510001D01*
X213130668Y-120565185D01*
X213130663Y-120565187D01*
X212981342Y-120657289D01*
X212857289Y-120781342D01*
X212765187Y-120930663D01*
X212765185Y-120930668D01*
X212737349Y-121014670D01*
X212710001Y-121097203D01*
X212710001Y-121097204D01*
X212710000Y-121097204D01*
X212699500Y-121199983D01*
X161170500Y-121199983D01*
X161170500Y-118447220D01*
X161190185Y-118380181D01*
X161221614Y-118346902D01*
X161299792Y-118290104D01*
X161450104Y-118139792D01*
X161450106Y-118139788D01*
X161450109Y-118139786D01*
X161575048Y-117967820D01*
X161575050Y-117967817D01*
X161575051Y-117967816D01*
X161579514Y-117959054D01*
X161627488Y-117908259D01*
X161695308Y-117891463D01*
X161761444Y-117913999D01*
X161800486Y-117959056D01*
X161804951Y-117967820D01*
X161929890Y-118139786D01*
X162080213Y-118290109D01*
X162252179Y-118415048D01*
X162252181Y-118415049D01*
X162252184Y-118415051D01*
X162441588Y-118511557D01*
X162643757Y-118577246D01*
X162853713Y-118610500D01*
X162853714Y-118610500D01*
X163066286Y-118610500D01*
X163066287Y-118610500D01*
X163276243Y-118577246D01*
X163478412Y-118511557D01*
X163667816Y-118415051D01*
X163754138Y-118352335D01*
X163839786Y-118290109D01*
X163839788Y-118290106D01*
X163839792Y-118290104D01*
X163990104Y-118139792D01*
X163990106Y-118139788D01*
X163990109Y-118139786D01*
X164115048Y-117967820D01*
X164115050Y-117967817D01*
X164115051Y-117967816D01*
X164119514Y-117959054D01*
X164167488Y-117908259D01*
X164235308Y-117891463D01*
X164301444Y-117913999D01*
X164340486Y-117959056D01*
X164344951Y-117967820D01*
X164469890Y-118139786D01*
X164620213Y-118290109D01*
X164792179Y-118415048D01*
X164792181Y-118415049D01*
X164792184Y-118415051D01*
X164981588Y-118511557D01*
X165183757Y-118577246D01*
X165393713Y-118610500D01*
X165393714Y-118610500D01*
X165606286Y-118610500D01*
X165606287Y-118610500D01*
X165816243Y-118577246D01*
X166018412Y-118511557D01*
X166207816Y-118415051D01*
X166376556Y-118292455D01*
X166379784Y-118290110D01*
X166379784Y-118290109D01*
X166379792Y-118290104D01*
X166493329Y-118176566D01*
X166554648Y-118143084D01*
X166624340Y-118148068D01*
X166680274Y-118189939D01*
X166697189Y-118220917D01*
X166746202Y-118352328D01*
X166746206Y-118352335D01*
X166832452Y-118467544D01*
X166832455Y-118467547D01*
X166947664Y-118553793D01*
X166947671Y-118553797D01*
X167082517Y-118604091D01*
X167082516Y-118604091D01*
X167089444Y-118604835D01*
X167142127Y-118610500D01*
X168937872Y-118610499D01*
X168997483Y-118604091D01*
X169002727Y-118602135D01*
X182302151Y-118602135D01*
X182302151Y-120397870D01*
X182302152Y-120397876D01*
X182308559Y-120457483D01*
X182358853Y-120592328D01*
X182358857Y-120592335D01*
X182445103Y-120707544D01*
X182445106Y-120707547D01*
X182560315Y-120793793D01*
X182560322Y-120793797D01*
X182695168Y-120844091D01*
X182695167Y-120844091D01*
X182702095Y-120844835D01*
X182754778Y-120850500D01*
X184550523Y-120850499D01*
X184610134Y-120844091D01*
X184744982Y-120793796D01*
X184860197Y-120707546D01*
X184946447Y-120592331D01*
X184996742Y-120457483D01*
X185003151Y-120397873D01*
X185003150Y-119434174D01*
X185003150Y-118602155D01*
X199602651Y-118602155D01*
X199602651Y-119250000D01*
X200519639Y-119250000D01*
X200486726Y-119307007D01*
X200452651Y-119434174D01*
X200452651Y-119565826D01*
X200486726Y-119692993D01*
X200519639Y-119750000D01*
X199602651Y-119750000D01*
X199602651Y-120397844D01*
X199609052Y-120457372D01*
X199609054Y-120457379D01*
X199659296Y-120592086D01*
X199659300Y-120592093D01*
X199745460Y-120707187D01*
X199745463Y-120707190D01*
X199860557Y-120793350D01*
X199860564Y-120793354D01*
X199995271Y-120843596D01*
X199995278Y-120843598D01*
X200054806Y-120849999D01*
X200054823Y-120850000D01*
X200702651Y-120850000D01*
X200702651Y-119933012D01*
X200759658Y-119965925D01*
X200886825Y-120000000D01*
X201018477Y-120000000D01*
X201145644Y-119965925D01*
X201202651Y-119933012D01*
X201202651Y-120850000D01*
X201850479Y-120850000D01*
X201850495Y-120849999D01*
X201910023Y-120843598D01*
X201910030Y-120843596D01*
X202044737Y-120793354D01*
X202044744Y-120793350D01*
X202159838Y-120707190D01*
X202159841Y-120707187D01*
X202246001Y-120592093D01*
X202246005Y-120592086D01*
X202296247Y-120457379D01*
X202296249Y-120457372D01*
X202302650Y-120397844D01*
X202302651Y-120397827D01*
X202302651Y-119750000D01*
X201385663Y-119750000D01*
X201418576Y-119692993D01*
X201452651Y-119565826D01*
X201452651Y-119434174D01*
X201418576Y-119307007D01*
X201385663Y-119250000D01*
X202302651Y-119250000D01*
X202302651Y-118602172D01*
X202302650Y-118602155D01*
X202296249Y-118542627D01*
X202296247Y-118542620D01*
X202246005Y-118407913D01*
X202246001Y-118407906D01*
X202159841Y-118292812D01*
X202159838Y-118292809D01*
X202044744Y-118206649D01*
X202044737Y-118206645D01*
X201910030Y-118156403D01*
X201910023Y-118156401D01*
X201850495Y-118150000D01*
X201202651Y-118150000D01*
X201202651Y-119066988D01*
X201145644Y-119034075D01*
X201018477Y-119000000D01*
X200886825Y-119000000D01*
X200759658Y-119034075D01*
X200702651Y-119066988D01*
X200702651Y-118150000D01*
X200054806Y-118150000D01*
X199995278Y-118156401D01*
X199995271Y-118156403D01*
X199860564Y-118206645D01*
X199860557Y-118206649D01*
X199745463Y-118292809D01*
X199745460Y-118292812D01*
X199659300Y-118407906D01*
X199659296Y-118407913D01*
X199609054Y-118542620D01*
X199609052Y-118542627D01*
X199602651Y-118602155D01*
X185003150Y-118602155D01*
X185003150Y-118602129D01*
X185003149Y-118602123D01*
X185003148Y-118602116D01*
X184996742Y-118542517D01*
X184985022Y-118511095D01*
X184946448Y-118407671D01*
X184946444Y-118407664D01*
X184860198Y-118292455D01*
X184860195Y-118292452D01*
X184744986Y-118206206D01*
X184744979Y-118206202D01*
X184610133Y-118155908D01*
X184610134Y-118155908D01*
X184550534Y-118149501D01*
X184550532Y-118149500D01*
X184550524Y-118149500D01*
X184550515Y-118149500D01*
X182754780Y-118149500D01*
X182754774Y-118149501D01*
X182695167Y-118155908D01*
X182560322Y-118206202D01*
X182560315Y-118206206D01*
X182445106Y-118292452D01*
X182445103Y-118292455D01*
X182358857Y-118407664D01*
X182358853Y-118407671D01*
X182308559Y-118542517D01*
X182304826Y-118577246D01*
X182302152Y-118602123D01*
X182302151Y-118602135D01*
X169002727Y-118602135D01*
X169132331Y-118553796D01*
X169247546Y-118467546D01*
X169333796Y-118352331D01*
X169384091Y-118217483D01*
X169390500Y-118157873D01*
X169390499Y-116362128D01*
X169384091Y-116302517D01*
X169382810Y-116299083D01*
X169333797Y-116167671D01*
X169333793Y-116167664D01*
X169247547Y-116052455D01*
X169247544Y-116052452D01*
X169132335Y-115966206D01*
X169132328Y-115966202D01*
X168997482Y-115915908D01*
X168997483Y-115915908D01*
X168937883Y-115909501D01*
X168937881Y-115909500D01*
X168937873Y-115909500D01*
X168937864Y-115909500D01*
X167142129Y-115909500D01*
X167142123Y-115909501D01*
X167082516Y-115915908D01*
X166947671Y-115966202D01*
X166947664Y-115966206D01*
X166832455Y-116052452D01*
X166832452Y-116052455D01*
X166746206Y-116167664D01*
X166746203Y-116167669D01*
X166697189Y-116299083D01*
X166655317Y-116355016D01*
X166589853Y-116379433D01*
X166521580Y-116364581D01*
X166493326Y-116343430D01*
X166379786Y-116229890D01*
X166207820Y-116104951D01*
X166018414Y-116008444D01*
X166018413Y-116008443D01*
X166018412Y-116008443D01*
X165816243Y-115942754D01*
X165816241Y-115942753D01*
X165816240Y-115942753D01*
X165654957Y-115917208D01*
X165606287Y-115909500D01*
X165393713Y-115909500D01*
X165345042Y-115917208D01*
X165183760Y-115942753D01*
X164981585Y-116008444D01*
X164792179Y-116104951D01*
X164620213Y-116229890D01*
X164469890Y-116380213D01*
X164344949Y-116552182D01*
X164340484Y-116560946D01*
X164292509Y-116611742D01*
X164224688Y-116628536D01*
X164158553Y-116605998D01*
X164119516Y-116560946D01*
X164115050Y-116552182D01*
X163990109Y-116380213D01*
X163839786Y-116229890D01*
X163667820Y-116104951D01*
X163478414Y-116008444D01*
X163478413Y-116008443D01*
X163478412Y-116008443D01*
X163276243Y-115942754D01*
X163276241Y-115942753D01*
X163276240Y-115942753D01*
X163114957Y-115917208D01*
X163066287Y-115909500D01*
X162853713Y-115909500D01*
X162805042Y-115917208D01*
X162643760Y-115942753D01*
X162441585Y-116008444D01*
X162252179Y-116104951D01*
X162080213Y-116229890D01*
X161929890Y-116380213D01*
X161804949Y-116552182D01*
X161800484Y-116560946D01*
X161752509Y-116611742D01*
X161684688Y-116628536D01*
X161618553Y-116605998D01*
X161579516Y-116560946D01*
X161575050Y-116552182D01*
X161450109Y-116380213D01*
X161299786Y-116229890D01*
X161127820Y-116104951D01*
X160938414Y-116008444D01*
X160938413Y-116008443D01*
X160938412Y-116008443D01*
X160736243Y-115942754D01*
X160736241Y-115942753D01*
X160736240Y-115942753D01*
X160574957Y-115917208D01*
X160526287Y-115909500D01*
X160313713Y-115909500D01*
X160265042Y-115917208D01*
X160103760Y-115942753D01*
X159901585Y-116008444D01*
X159712179Y-116104951D01*
X159540213Y-116229890D01*
X159389890Y-116380213D01*
X159264949Y-116552182D01*
X159260484Y-116560946D01*
X159212509Y-116611742D01*
X159144688Y-116628536D01*
X159078553Y-116605998D01*
X159039516Y-116560946D01*
X159035050Y-116552182D01*
X158910109Y-116380213D01*
X158759786Y-116229890D01*
X158587820Y-116104951D01*
X158398414Y-116008444D01*
X158398413Y-116008443D01*
X158398412Y-116008443D01*
X158196243Y-115942754D01*
X158196241Y-115942753D01*
X158196240Y-115942753D01*
X158034957Y-115917208D01*
X157986287Y-115909500D01*
X157773713Y-115909500D01*
X157725042Y-115917208D01*
X157563760Y-115942753D01*
X157361585Y-116008444D01*
X157172179Y-116104951D01*
X157000213Y-116229890D01*
X156849890Y-116380213D01*
X156724949Y-116552182D01*
X156720484Y-116560946D01*
X156672509Y-116611742D01*
X156604688Y-116628536D01*
X156538553Y-116605998D01*
X156499516Y-116560946D01*
X156495050Y-116552182D01*
X156370109Y-116380213D01*
X156219786Y-116229890D01*
X156047820Y-116104951D01*
X155858414Y-116008444D01*
X155858413Y-116008443D01*
X155858412Y-116008443D01*
X155656243Y-115942754D01*
X155656241Y-115942753D01*
X155656240Y-115942753D01*
X155494957Y-115917208D01*
X155446287Y-115909500D01*
X155233713Y-115909500D01*
X155185042Y-115917208D01*
X155023760Y-115942753D01*
X154821585Y-116008444D01*
X154632179Y-116104951D01*
X154460213Y-116229890D01*
X154309890Y-116380213D01*
X154184949Y-116552182D01*
X154180484Y-116560946D01*
X154132509Y-116611742D01*
X154064688Y-116628536D01*
X153998553Y-116605998D01*
X153959516Y-116560946D01*
X153955050Y-116552182D01*
X153830109Y-116380213D01*
X153679786Y-116229890D01*
X153507820Y-116104951D01*
X153318414Y-116008444D01*
X153318413Y-116008443D01*
X153318412Y-116008443D01*
X153116243Y-115942754D01*
X153116241Y-115942753D01*
X153116240Y-115942753D01*
X152954957Y-115917208D01*
X152906287Y-115909500D01*
X152693713Y-115909500D01*
X152645042Y-115917208D01*
X152483760Y-115942753D01*
X152281585Y-116008444D01*
X152092179Y-116104951D01*
X151920213Y-116229890D01*
X151769890Y-116380213D01*
X151644949Y-116552182D01*
X151640202Y-116561499D01*
X151592227Y-116612293D01*
X151524405Y-116629087D01*
X151458271Y-116606548D01*
X151419234Y-116561495D01*
X151414626Y-116552452D01*
X151375270Y-116498282D01*
X151375269Y-116498282D01*
X150742962Y-117130590D01*
X150725925Y-117067007D01*
X150660099Y-116952993D01*
X150567007Y-116859901D01*
X150452993Y-116794075D01*
X150389409Y-116777037D01*
X151021716Y-116144728D01*
X150967550Y-116105375D01*
X150778217Y-116008904D01*
X150576129Y-115943242D01*
X150366246Y-115910000D01*
X150153754Y-115910000D01*
X149943872Y-115943242D01*
X149943869Y-115943242D01*
X149741782Y-116008904D01*
X149552439Y-116105380D01*
X149498282Y-116144727D01*
X149498282Y-116144728D01*
X150130591Y-116777037D01*
X150067007Y-116794075D01*
X149952993Y-116859901D01*
X149859901Y-116952993D01*
X149794075Y-117067007D01*
X149777037Y-117130591D01*
X149144728Y-116498282D01*
X149144727Y-116498282D01*
X149105380Y-116552439D01*
X149008904Y-116741782D01*
X148943242Y-116943869D01*
X148943242Y-116943872D01*
X148910000Y-117153753D01*
X87000500Y-117153753D01*
X87000500Y-105893713D01*
X212699500Y-105893713D01*
X212699500Y-106106286D01*
X212732753Y-106316239D01*
X212798444Y-106518414D01*
X212894951Y-106707820D01*
X213019890Y-106879786D01*
X213158705Y-107018601D01*
X213192190Y-107079924D01*
X213187206Y-107149616D01*
X213145334Y-107205549D01*
X213136121Y-107211821D01*
X212981342Y-107307289D01*
X212857289Y-107431342D01*
X212765187Y-107580663D01*
X212765186Y-107580666D01*
X212710001Y-107747203D01*
X212710001Y-107747204D01*
X212710000Y-107747204D01*
X212699500Y-107849983D01*
X212699500Y-109150001D01*
X212699501Y-109150018D01*
X212710000Y-109252796D01*
X212710001Y-109252799D01*
X212765185Y-109419331D01*
X212765186Y-109419334D01*
X212857288Y-109568656D01*
X212981344Y-109692712D01*
X213130666Y-109784814D01*
X213297203Y-109839999D01*
X213399991Y-109850500D01*
X215000008Y-109850499D01*
X215102797Y-109839999D01*
X215269334Y-109784814D01*
X215418656Y-109692712D01*
X215542712Y-109568656D01*
X215634814Y-109419334D01*
X215689999Y-109252797D01*
X215700500Y-109150009D01*
X215700499Y-107849992D01*
X215689999Y-107747203D01*
X215634814Y-107580666D01*
X215542712Y-107431344D01*
X215418656Y-107307288D01*
X215269334Y-107215186D01*
X215269333Y-107215185D01*
X215263878Y-107211821D01*
X215217154Y-107159873D01*
X215205931Y-107090910D01*
X215233775Y-107026828D01*
X215241272Y-107018623D01*
X215380104Y-106879792D01*
X215505051Y-106707816D01*
X215601557Y-106518412D01*
X215667246Y-106316243D01*
X215700500Y-106106287D01*
X215700500Y-105893713D01*
X215667246Y-105683757D01*
X215601557Y-105481588D01*
X215505051Y-105292184D01*
X215505049Y-105292181D01*
X215505048Y-105292179D01*
X215380109Y-105120213D01*
X215229786Y-104969890D01*
X215057820Y-104844951D01*
X214868414Y-104748444D01*
X214868413Y-104748443D01*
X214868412Y-104748443D01*
X214666243Y-104682754D01*
X214666241Y-104682753D01*
X214666240Y-104682753D01*
X214504957Y-104657208D01*
X214456287Y-104649500D01*
X213943713Y-104649500D01*
X213895042Y-104657208D01*
X213733760Y-104682753D01*
X213531585Y-104748444D01*
X213342179Y-104844951D01*
X213170213Y-104969890D01*
X213019890Y-105120213D01*
X212894951Y-105292179D01*
X212798444Y-105481585D01*
X212732753Y-105683760D01*
X212699500Y-105893713D01*
X87000500Y-105893713D01*
X87000500Y-99221153D01*
X116399500Y-99221153D01*
X116399500Y-99378846D01*
X116430261Y-99533489D01*
X116430264Y-99533501D01*
X116490602Y-99679172D01*
X116490609Y-99679185D01*
X116578210Y-99810288D01*
X116578213Y-99810292D01*
X116689707Y-99921786D01*
X116689711Y-99921789D01*
X116820814Y-100009390D01*
X116820827Y-100009397D01*
X116942479Y-100059786D01*
X116966503Y-100069737D01*
X117121153Y-100100499D01*
X117121156Y-100100500D01*
X117121158Y-100100500D01*
X117278844Y-100100500D01*
X117278845Y-100100499D01*
X117433497Y-100069737D01*
X117579179Y-100009394D01*
X117643527Y-99966398D01*
X117710204Y-99945520D01*
X117712418Y-99945500D01*
X124227019Y-99945500D01*
X124294058Y-99965185D01*
X124337503Y-100013203D01*
X124344950Y-100027819D01*
X124469890Y-100199786D01*
X124620213Y-100350109D01*
X124792179Y-100475048D01*
X124792181Y-100475049D01*
X124792184Y-100475051D01*
X124801493Y-100479794D01*
X124852290Y-100527766D01*
X124869087Y-100595587D01*
X124846552Y-100661722D01*
X124801505Y-100700760D01*
X124792446Y-100705376D01*
X124792440Y-100705380D01*
X124738282Y-100744727D01*
X124738282Y-100744728D01*
X125370591Y-101377037D01*
X125307007Y-101394075D01*
X125192993Y-101459901D01*
X125099901Y-101552993D01*
X125034075Y-101667007D01*
X125017037Y-101730591D01*
X124384728Y-101098282D01*
X124384727Y-101098282D01*
X124345380Y-101152439D01*
X124248904Y-101341782D01*
X124183242Y-101543869D01*
X124183242Y-101543872D01*
X124150000Y-101753753D01*
X124150000Y-101966246D01*
X124183242Y-102176127D01*
X124183242Y-102176130D01*
X124248904Y-102378217D01*
X124345375Y-102567550D01*
X124384728Y-102621716D01*
X125017037Y-101989408D01*
X125034075Y-102052993D01*
X125099901Y-102167007D01*
X125192993Y-102260099D01*
X125307007Y-102325925D01*
X125370590Y-102342962D01*
X124700370Y-103013181D01*
X124639047Y-103046666D01*
X124612698Y-103049500D01*
X124602134Y-103049500D01*
X124602123Y-103049501D01*
X124542516Y-103055908D01*
X124407671Y-103106202D01*
X124407664Y-103106206D01*
X124292455Y-103192452D01*
X124292452Y-103192455D01*
X124206206Y-103307664D01*
X124206202Y-103307671D01*
X124155908Y-103442517D01*
X124149501Y-103502116D01*
X124149501Y-103502123D01*
X124149500Y-103502135D01*
X124149500Y-105297870D01*
X124149501Y-105297876D01*
X124155908Y-105357483D01*
X124206202Y-105492328D01*
X124206206Y-105492335D01*
X124292452Y-105607544D01*
X124292455Y-105607547D01*
X124407664Y-105693793D01*
X124407671Y-105693797D01*
X124542517Y-105744091D01*
X124542516Y-105744091D01*
X124549444Y-105744835D01*
X124602127Y-105750500D01*
X126397872Y-105750499D01*
X126457483Y-105744091D01*
X126592331Y-105693796D01*
X126707546Y-105607546D01*
X126793796Y-105492331D01*
X126844091Y-105357483D01*
X126850500Y-105297873D01*
X126850499Y-103502128D01*
X126844091Y-103442517D01*
X126836486Y-103422128D01*
X126793797Y-103307671D01*
X126793793Y-103307664D01*
X126707547Y-103192455D01*
X126707544Y-103192452D01*
X126592335Y-103106206D01*
X126592328Y-103106202D01*
X126457482Y-103055908D01*
X126457483Y-103055908D01*
X126397883Y-103049501D01*
X126397881Y-103049500D01*
X126397873Y-103049500D01*
X126397865Y-103049500D01*
X126387309Y-103049500D01*
X126320270Y-103029815D01*
X126299628Y-103013181D01*
X125629408Y-102342962D01*
X125692993Y-102325925D01*
X125807007Y-102260099D01*
X125900099Y-102167007D01*
X125965925Y-102052993D01*
X125982962Y-101989408D01*
X126615270Y-102621717D01*
X126615270Y-102621716D01*
X126654622Y-102567554D01*
X126751095Y-102378217D01*
X126816757Y-102176130D01*
X126816757Y-102176127D01*
X126850000Y-101966246D01*
X126850000Y-101753753D01*
X126816757Y-101543872D01*
X126816757Y-101543869D01*
X126751095Y-101341782D01*
X126654624Y-101152449D01*
X126615270Y-101098282D01*
X126615269Y-101098282D01*
X125982962Y-101730590D01*
X125965925Y-101667007D01*
X125900099Y-101552993D01*
X125807007Y-101459901D01*
X125692993Y-101394075D01*
X125629409Y-101377037D01*
X126261716Y-100744728D01*
X126207547Y-100705373D01*
X126207547Y-100705372D01*
X126198500Y-100700763D01*
X126147706Y-100652788D01*
X126130912Y-100584966D01*
X126153451Y-100518832D01*
X126198508Y-100479793D01*
X126207816Y-100475051D01*
X126311782Y-100399516D01*
X126379786Y-100350109D01*
X126379788Y-100350106D01*
X126379792Y-100350104D01*
X126530104Y-100199792D01*
X126530106Y-100199788D01*
X126530109Y-100199786D01*
X126655048Y-100027820D01*
X126655049Y-100027819D01*
X126655051Y-100027816D01*
X126751557Y-99838412D01*
X126817246Y-99636243D01*
X126850500Y-99426287D01*
X126850500Y-99213713D01*
X126817246Y-99003757D01*
X126751557Y-98801588D01*
X126751555Y-98801585D01*
X126751555Y-98801583D01*
X126686345Y-98673602D01*
X126655051Y-98612184D01*
X126655049Y-98612181D01*
X126655048Y-98612179D01*
X126530109Y-98440213D01*
X126379786Y-98289890D01*
X126207820Y-98164951D01*
X126207115Y-98164591D01*
X126199054Y-98160485D01*
X126148259Y-98112512D01*
X126131463Y-98044692D01*
X126153999Y-97978556D01*
X126199054Y-97939515D01*
X126207816Y-97935051D01*
X126249602Y-97904692D01*
X126379786Y-97810109D01*
X126379788Y-97810106D01*
X126379792Y-97810104D01*
X126530104Y-97659792D01*
X126530106Y-97659788D01*
X126530109Y-97659786D01*
X126655048Y-97487820D01*
X126655049Y-97487819D01*
X126655051Y-97487816D01*
X126751557Y-97298412D01*
X126817246Y-97096243D01*
X126850500Y-96886287D01*
X126850500Y-96673713D01*
X126817246Y-96463757D01*
X126751557Y-96261588D01*
X126655051Y-96072184D01*
X126655049Y-96072181D01*
X126655048Y-96072179D01*
X126530109Y-95900213D01*
X126379786Y-95749890D01*
X126207820Y-95624951D01*
X126207115Y-95624591D01*
X126199054Y-95620485D01*
X126148259Y-95572512D01*
X126131463Y-95504692D01*
X126153999Y-95438556D01*
X126199054Y-95399515D01*
X126207816Y-95395051D01*
X126249602Y-95364692D01*
X126379786Y-95270109D01*
X126379788Y-95270106D01*
X126379792Y-95270104D01*
X126530104Y-95119792D01*
X126530106Y-95119788D01*
X126530109Y-95119786D01*
X126655048Y-94947820D01*
X126655047Y-94947820D01*
X126655051Y-94947816D01*
X126751557Y-94758412D01*
X126817246Y-94556243D01*
X126850500Y-94346287D01*
X126850500Y-94133713D01*
X126817246Y-93923757D01*
X126751557Y-93721588D01*
X126655051Y-93532184D01*
X126655049Y-93532181D01*
X126655048Y-93532179D01*
X126530109Y-93360213D01*
X126379786Y-93209890D01*
X126207817Y-93084949D01*
X126198504Y-93080204D01*
X126147707Y-93032230D01*
X126130912Y-92964409D01*
X126153449Y-92898274D01*
X126198507Y-92859232D01*
X126207555Y-92854622D01*
X126261716Y-92815270D01*
X126261717Y-92815270D01*
X125629408Y-92182962D01*
X125692993Y-92165925D01*
X125807007Y-92100099D01*
X125900099Y-92007007D01*
X125965925Y-91892993D01*
X125982962Y-91829408D01*
X126615270Y-92461717D01*
X126615270Y-92461716D01*
X126654622Y-92407554D01*
X126751095Y-92218217D01*
X126816757Y-92016130D01*
X126816757Y-92016127D01*
X126850000Y-91806246D01*
X126850000Y-91593753D01*
X126816757Y-91383872D01*
X126816757Y-91383869D01*
X126751095Y-91181782D01*
X126654624Y-90992449D01*
X126615270Y-90938282D01*
X126615269Y-90938282D01*
X125982962Y-91570590D01*
X125965925Y-91507007D01*
X125900099Y-91392993D01*
X125807007Y-91299901D01*
X125692993Y-91234075D01*
X125629409Y-91217037D01*
X126261716Y-90584728D01*
X126207547Y-90545373D01*
X126207547Y-90545372D01*
X126198500Y-90540763D01*
X126147706Y-90492788D01*
X126130912Y-90424966D01*
X126153451Y-90358832D01*
X126198508Y-90319793D01*
X126207816Y-90315051D01*
X126311782Y-90239516D01*
X126379786Y-90190109D01*
X126379788Y-90190106D01*
X126379792Y-90190104D01*
X126530104Y-90039792D01*
X126530106Y-90039788D01*
X126530109Y-90039786D01*
X126655048Y-89867820D01*
X126655047Y-89867820D01*
X126655051Y-89867816D01*
X126751557Y-89678412D01*
X126817246Y-89476243D01*
X126850500Y-89266287D01*
X126850500Y-89053713D01*
X126817246Y-88843757D01*
X126751557Y-88641588D01*
X126655051Y-88452184D01*
X126655049Y-88452181D01*
X126655048Y-88452179D01*
X126530109Y-88280213D01*
X126379786Y-88129890D01*
X126207820Y-88004951D01*
X126207115Y-88004591D01*
X126199054Y-88000485D01*
X126148259Y-87952512D01*
X126131463Y-87884692D01*
X126153999Y-87818556D01*
X126199054Y-87779515D01*
X126207816Y-87775051D01*
X126249602Y-87744692D01*
X126379786Y-87650109D01*
X126379788Y-87650106D01*
X126379792Y-87650104D01*
X126530104Y-87499792D01*
X126530106Y-87499788D01*
X126530109Y-87499786D01*
X126655048Y-87327820D01*
X126655047Y-87327820D01*
X126655051Y-87327816D01*
X126751557Y-87138412D01*
X126817246Y-86936243D01*
X126850500Y-86726287D01*
X126850500Y-86513713D01*
X126817246Y-86303757D01*
X126751557Y-86101588D01*
X126655051Y-85912184D01*
X126655049Y-85912181D01*
X126655048Y-85912179D01*
X126530109Y-85740213D01*
X126379786Y-85589890D01*
X126207820Y-85464951D01*
X126207115Y-85464591D01*
X126199054Y-85460485D01*
X126148259Y-85412512D01*
X126131463Y-85344692D01*
X126153999Y-85278556D01*
X126199054Y-85239515D01*
X126207816Y-85235051D01*
X126249602Y-85204692D01*
X126379786Y-85110109D01*
X126379788Y-85110106D01*
X126379792Y-85110104D01*
X126530104Y-84959792D01*
X126530106Y-84959788D01*
X126530109Y-84959786D01*
X126655048Y-84787820D01*
X126655047Y-84787820D01*
X126655051Y-84787816D01*
X126751557Y-84598412D01*
X126817246Y-84396243D01*
X126850500Y-84186287D01*
X126850500Y-83973713D01*
X126817246Y-83763757D01*
X126751557Y-83561588D01*
X126655051Y-83372184D01*
X126655049Y-83372181D01*
X126655048Y-83372179D01*
X126530109Y-83200213D01*
X126379786Y-83049890D01*
X126207820Y-82924951D01*
X126207115Y-82924591D01*
X126199054Y-82920485D01*
X126148259Y-82872512D01*
X126131463Y-82804692D01*
X126153999Y-82738556D01*
X126199054Y-82699515D01*
X126207816Y-82695051D01*
X126249602Y-82664692D01*
X126379786Y-82570109D01*
X126379788Y-82570106D01*
X126379792Y-82570104D01*
X126530104Y-82419792D01*
X126530106Y-82419788D01*
X126530109Y-82419786D01*
X126655048Y-82247820D01*
X126655047Y-82247820D01*
X126655051Y-82247816D01*
X126751557Y-82058412D01*
X126817246Y-81856243D01*
X126850500Y-81646287D01*
X126850500Y-81433713D01*
X126817246Y-81223757D01*
X126751557Y-81021588D01*
X126655051Y-80832184D01*
X126655049Y-80832181D01*
X126655048Y-80832179D01*
X126530109Y-80660213D01*
X126379786Y-80509890D01*
X126207820Y-80384951D01*
X126018414Y-80288444D01*
X126018413Y-80288443D01*
X126018412Y-80288443D01*
X125816243Y-80222754D01*
X125816241Y-80222753D01*
X125816240Y-80222753D01*
X125642982Y-80195312D01*
X125606287Y-80189500D01*
X125393713Y-80189500D01*
X125357018Y-80195312D01*
X125183760Y-80222753D01*
X124981585Y-80288444D01*
X124792179Y-80384951D01*
X124620213Y-80509890D01*
X124469890Y-80660213D01*
X124344951Y-80832179D01*
X124248444Y-81021585D01*
X124182753Y-81223760D01*
X124149500Y-81433713D01*
X124149500Y-81646286D01*
X124170082Y-81776239D01*
X124182754Y-81856243D01*
X124222449Y-81978412D01*
X124248444Y-82058414D01*
X124344951Y-82247820D01*
X124469890Y-82419786D01*
X124620213Y-82570109D01*
X124792182Y-82695050D01*
X124800946Y-82699516D01*
X124851742Y-82747491D01*
X124868536Y-82815312D01*
X124845998Y-82881447D01*
X124800946Y-82920484D01*
X124792182Y-82924949D01*
X124620213Y-83049890D01*
X124469890Y-83200213D01*
X124344951Y-83372179D01*
X124248444Y-83561585D01*
X124182753Y-83763760D01*
X124149500Y-83973713D01*
X124149500Y-84186286D01*
X124170082Y-84316239D01*
X124182754Y-84396243D01*
X124222449Y-84518412D01*
X124248444Y-84598414D01*
X124344951Y-84787820D01*
X124469890Y-84959786D01*
X124620213Y-85110109D01*
X124792182Y-85235050D01*
X124800946Y-85239516D01*
X124851742Y-85287491D01*
X124868536Y-85355312D01*
X124845998Y-85421447D01*
X124800946Y-85460484D01*
X124792182Y-85464949D01*
X124620213Y-85589890D01*
X124469890Y-85740213D01*
X124344951Y-85912179D01*
X124248444Y-86101585D01*
X124182753Y-86303760D01*
X124149500Y-86513713D01*
X124149500Y-86726286D01*
X124170082Y-86856239D01*
X124182754Y-86936243D01*
X124222449Y-87058412D01*
X124248444Y-87138414D01*
X124344951Y-87327820D01*
X124469890Y-87499786D01*
X124620213Y-87650109D01*
X124792182Y-87775050D01*
X124800946Y-87779516D01*
X124851742Y-87827491D01*
X124868536Y-87895312D01*
X124845998Y-87961447D01*
X124800946Y-88000484D01*
X124792182Y-88004949D01*
X124620213Y-88129890D01*
X124469890Y-88280213D01*
X124344951Y-88452179D01*
X124248444Y-88641585D01*
X124182753Y-88843760D01*
X124149500Y-89053713D01*
X124149500Y-89266286D01*
X124180878Y-89464403D01*
X124182754Y-89476243D01*
X124227923Y-89615259D01*
X124248444Y-89678414D01*
X124344951Y-89867820D01*
X124469890Y-90039786D01*
X124620213Y-90190109D01*
X124792179Y-90315048D01*
X124792181Y-90315049D01*
X124792184Y-90315051D01*
X124801493Y-90319794D01*
X124852290Y-90367766D01*
X124869087Y-90435587D01*
X124846552Y-90501722D01*
X124801505Y-90540760D01*
X124792446Y-90545376D01*
X124792440Y-90545380D01*
X124738282Y-90584727D01*
X124738282Y-90584728D01*
X125370591Y-91217037D01*
X125307007Y-91234075D01*
X125192993Y-91299901D01*
X125099901Y-91392993D01*
X125034075Y-91507007D01*
X125017037Y-91570591D01*
X124384728Y-90938282D01*
X124384727Y-90938282D01*
X124345380Y-90992439D01*
X124248904Y-91181782D01*
X124183242Y-91383869D01*
X124183242Y-91383872D01*
X124150000Y-91593753D01*
X124150000Y-91806246D01*
X124183242Y-92016127D01*
X124183242Y-92016130D01*
X124248904Y-92218217D01*
X124345375Y-92407550D01*
X124384728Y-92461716D01*
X125017037Y-91829408D01*
X125034075Y-91892993D01*
X125099901Y-92007007D01*
X125192993Y-92100099D01*
X125307007Y-92165925D01*
X125370590Y-92182962D01*
X124738282Y-92815269D01*
X124738282Y-92815270D01*
X124792452Y-92854626D01*
X124792451Y-92854626D01*
X124801495Y-92859234D01*
X124852292Y-92907208D01*
X124869087Y-92975029D01*
X124846550Y-93041164D01*
X124801499Y-93080202D01*
X124792182Y-93084949D01*
X124620213Y-93209890D01*
X124469890Y-93360213D01*
X124344951Y-93532179D01*
X124248444Y-93721585D01*
X124182753Y-93923760D01*
X124149500Y-94133713D01*
X124149500Y-94346286D01*
X124170082Y-94476239D01*
X124182754Y-94556243D01*
X124222449Y-94678412D01*
X124248444Y-94758414D01*
X124344951Y-94947820D01*
X124469890Y-95119786D01*
X124620213Y-95270109D01*
X124792182Y-95395050D01*
X124800946Y-95399516D01*
X124851742Y-95447491D01*
X124868536Y-95515312D01*
X124845998Y-95581447D01*
X124800946Y-95620484D01*
X124792182Y-95624949D01*
X124620213Y-95749890D01*
X124469890Y-95900213D01*
X124344950Y-96072180D01*
X124337503Y-96086797D01*
X124289527Y-96137592D01*
X124227019Y-96154500D01*
X118712418Y-96154500D01*
X118645379Y-96134815D01*
X118643527Y-96133602D01*
X118579184Y-96090609D01*
X118579172Y-96090602D01*
X118433501Y-96030264D01*
X118433489Y-96030261D01*
X118278845Y-95999500D01*
X118278842Y-95999500D01*
X118121158Y-95999500D01*
X118121155Y-95999500D01*
X117966510Y-96030261D01*
X117966498Y-96030264D01*
X117820827Y-96090602D01*
X117820814Y-96090609D01*
X117689711Y-96178210D01*
X117689707Y-96178213D01*
X117578213Y-96289707D01*
X117578210Y-96289711D01*
X117490609Y-96420814D01*
X117490602Y-96420827D01*
X117430264Y-96566498D01*
X117430261Y-96566510D01*
X117399500Y-96721153D01*
X117399500Y-96878846D01*
X117430261Y-97033489D01*
X117430264Y-97033501D01*
X117490602Y-97179172D01*
X117490609Y-97179185D01*
X117578210Y-97310288D01*
X117578213Y-97310292D01*
X117689707Y-97421786D01*
X117689711Y-97421789D01*
X117820814Y-97509390D01*
X117820827Y-97509397D01*
X117966498Y-97569735D01*
X117966503Y-97569737D01*
X118121153Y-97600499D01*
X118121156Y-97600500D01*
X118121158Y-97600500D01*
X118278844Y-97600500D01*
X118278845Y-97600499D01*
X118433497Y-97569737D01*
X118579179Y-97509394D01*
X118702508Y-97426987D01*
X118710228Y-97423791D01*
X118713952Y-97420200D01*
X118747237Y-97408467D01*
X118747860Y-97408343D01*
X118750208Y-97407877D01*
X118774369Y-97405500D01*
X124227019Y-97405500D01*
X124294058Y-97425185D01*
X124337503Y-97473203D01*
X124344950Y-97487819D01*
X124469890Y-97659786D01*
X124620213Y-97810109D01*
X124792182Y-97935050D01*
X124800946Y-97939516D01*
X124851742Y-97987491D01*
X124868536Y-98055312D01*
X124845998Y-98121447D01*
X124800946Y-98160484D01*
X124792182Y-98164949D01*
X124620213Y-98289890D01*
X124469890Y-98440213D01*
X124344950Y-98612180D01*
X124337503Y-98626797D01*
X124289527Y-98677592D01*
X124227019Y-98694500D01*
X117772283Y-98694500D01*
X117705244Y-98674815D01*
X117703392Y-98673602D01*
X117579185Y-98590609D01*
X117579172Y-98590602D01*
X117433501Y-98530264D01*
X117433489Y-98530261D01*
X117278845Y-98499500D01*
X117278842Y-98499500D01*
X117121158Y-98499500D01*
X117121155Y-98499500D01*
X116966510Y-98530261D01*
X116966498Y-98530264D01*
X116820827Y-98590602D01*
X116820814Y-98590609D01*
X116689711Y-98678210D01*
X116689707Y-98678213D01*
X116578213Y-98789707D01*
X116578210Y-98789711D01*
X116490609Y-98920814D01*
X116490602Y-98920827D01*
X116430264Y-99066498D01*
X116430261Y-99066510D01*
X116399500Y-99221153D01*
X87000500Y-99221153D01*
X87000500Y-65437106D01*
X87599500Y-65437106D01*
X87599500Y-65762893D01*
X87635974Y-66086604D01*
X87635976Y-66086620D01*
X87708467Y-66404226D01*
X87708471Y-66404238D01*
X87816066Y-66711725D01*
X87957413Y-67005234D01*
X87957415Y-67005237D01*
X88130739Y-67281081D01*
X88333857Y-67535783D01*
X88564217Y-67766143D01*
X88818919Y-67969261D01*
X89094763Y-68142585D01*
X89388278Y-68283935D01*
X89619217Y-68364744D01*
X89695761Y-68391528D01*
X89695773Y-68391532D01*
X90013383Y-68464024D01*
X90337106Y-68500499D01*
X90337107Y-68500500D01*
X90337111Y-68500500D01*
X90662893Y-68500500D01*
X90662893Y-68500499D01*
X90986617Y-68464024D01*
X91304227Y-68391532D01*
X91611722Y-68283935D01*
X91905237Y-68142585D01*
X92181081Y-67969261D01*
X92435783Y-67766143D01*
X92666143Y-67535783D01*
X92869261Y-67281081D01*
X93042585Y-67005237D01*
X93183935Y-66711722D01*
X93291532Y-66404227D01*
X93364024Y-66086617D01*
X93400500Y-65762889D01*
X93400500Y-65437111D01*
X93364024Y-65113383D01*
X93291532Y-64795773D01*
X93183935Y-64488278D01*
X93042585Y-64194763D01*
X93028207Y-64171880D01*
X93017484Y-64154814D01*
X93017483Y-64154813D01*
X92979091Y-64093713D01*
X124149500Y-64093713D01*
X124149500Y-64306286D01*
X124178324Y-64488278D01*
X124182754Y-64516243D01*
X124191998Y-64544694D01*
X124248444Y-64718414D01*
X124344951Y-64907820D01*
X124469890Y-65079786D01*
X124620213Y-65230109D01*
X124792182Y-65355050D01*
X124800946Y-65359516D01*
X124851742Y-65407491D01*
X124868536Y-65475312D01*
X124845998Y-65541447D01*
X124800946Y-65580484D01*
X124792182Y-65584949D01*
X124620213Y-65709890D01*
X124469890Y-65860213D01*
X124344951Y-66032179D01*
X124248444Y-66221585D01*
X124182753Y-66423760D01*
X124171022Y-66497828D01*
X124149500Y-66633713D01*
X124149500Y-66846287D01*
X124154044Y-66874979D01*
X124178299Y-67028120D01*
X124182754Y-67056243D01*
X124212595Y-67148085D01*
X124248444Y-67258414D01*
X124344951Y-67447820D01*
X124469890Y-67619786D01*
X124620213Y-67770109D01*
X124792182Y-67895050D01*
X124800946Y-67899516D01*
X124851742Y-67947491D01*
X124868536Y-68015312D01*
X124845998Y-68081447D01*
X124800946Y-68120484D01*
X124792182Y-68124949D01*
X124620213Y-68249890D01*
X124469890Y-68400213D01*
X124344951Y-68572179D01*
X124248444Y-68761585D01*
X124182753Y-68963760D01*
X124154410Y-69142710D01*
X124149500Y-69173713D01*
X124149500Y-69386287D01*
X124155778Y-69425922D01*
X124178491Y-69569331D01*
X124182754Y-69596243D01*
X124245745Y-69790109D01*
X124248444Y-69798414D01*
X124344951Y-69987820D01*
X124469890Y-70159786D01*
X124583818Y-70273714D01*
X124617303Y-70335037D01*
X124612319Y-70404729D01*
X124570447Y-70460662D01*
X124539471Y-70477577D01*
X124407912Y-70526646D01*
X124407906Y-70526649D01*
X124292812Y-70612809D01*
X124292809Y-70612812D01*
X124206649Y-70727906D01*
X124206645Y-70727913D01*
X124156403Y-70862620D01*
X124156401Y-70862627D01*
X124150000Y-70922155D01*
X124150000Y-71570000D01*
X125066988Y-71570000D01*
X125034075Y-71627007D01*
X125000000Y-71754174D01*
X125000000Y-71885826D01*
X125034075Y-72012993D01*
X125066988Y-72070000D01*
X124150000Y-72070000D01*
X124150000Y-72717844D01*
X124156401Y-72777372D01*
X124156403Y-72777379D01*
X124206645Y-72912086D01*
X124206649Y-72912093D01*
X124292809Y-73027187D01*
X124292812Y-73027190D01*
X124407906Y-73113350D01*
X124407913Y-73113354D01*
X124542620Y-73163596D01*
X124542627Y-73163598D01*
X124602155Y-73169999D01*
X124602172Y-73170000D01*
X125250000Y-73170000D01*
X125250000Y-72253012D01*
X125307007Y-72285925D01*
X125434174Y-72320000D01*
X125565826Y-72320000D01*
X125692993Y-72285925D01*
X125750000Y-72253012D01*
X125750000Y-73170000D01*
X126397828Y-73170000D01*
X126397844Y-73169999D01*
X126457372Y-73163598D01*
X126457379Y-73163596D01*
X126592086Y-73113354D01*
X126592093Y-73113350D01*
X126707187Y-73027190D01*
X126707190Y-73027187D01*
X126793350Y-72912093D01*
X126793354Y-72912086D01*
X126843596Y-72777379D01*
X126843598Y-72777372D01*
X126849999Y-72717844D01*
X126850000Y-72717827D01*
X126850000Y-72070000D01*
X125933012Y-72070000D01*
X125965925Y-72012993D01*
X126000000Y-71885826D01*
X126000000Y-71754174D01*
X125965925Y-71627007D01*
X125933012Y-71570000D01*
X126850000Y-71570000D01*
X126850000Y-70922172D01*
X126849999Y-70922155D01*
X126843598Y-70862627D01*
X126843596Y-70862620D01*
X126793354Y-70727913D01*
X126793350Y-70727906D01*
X126707190Y-70612812D01*
X126707187Y-70612809D01*
X126592093Y-70526649D01*
X126592088Y-70526646D01*
X126460528Y-70477577D01*
X126404595Y-70435705D01*
X126380178Y-70370241D01*
X126395030Y-70301968D01*
X126416175Y-70273720D01*
X126530104Y-70159792D01*
X126543932Y-70140760D01*
X126655048Y-69987820D01*
X126655047Y-69987820D01*
X126655051Y-69987816D01*
X126751557Y-69798412D01*
X126817246Y-69596243D01*
X126850500Y-69386287D01*
X126850500Y-69173713D01*
X126817246Y-68963757D01*
X126751557Y-68761588D01*
X126666021Y-68593713D01*
X142749500Y-68593713D01*
X142749500Y-68806286D01*
X142780157Y-68999850D01*
X142782754Y-69016243D01*
X142833919Y-69173713D01*
X142848444Y-69218414D01*
X142944951Y-69407820D01*
X143069890Y-69579786D01*
X143220213Y-69730109D01*
X143392179Y-69855048D01*
X143392181Y-69855049D01*
X143392184Y-69855051D01*
X143401493Y-69859794D01*
X143452290Y-69907766D01*
X143469087Y-69975587D01*
X143446552Y-70041722D01*
X143401505Y-70080760D01*
X143392446Y-70085376D01*
X143392440Y-70085380D01*
X143338282Y-70124727D01*
X143338282Y-70124728D01*
X143970591Y-70757037D01*
X143907007Y-70774075D01*
X143792993Y-70839901D01*
X143699901Y-70932993D01*
X143634075Y-71047007D01*
X143617037Y-71110591D01*
X142984728Y-70478282D01*
X142984727Y-70478282D01*
X142945380Y-70532439D01*
X142848904Y-70721782D01*
X142783242Y-70923869D01*
X142783242Y-70923872D01*
X142750000Y-71133753D01*
X142750000Y-71346246D01*
X142783242Y-71556127D01*
X142783242Y-71556130D01*
X142848904Y-71758217D01*
X142945375Y-71947550D01*
X142984728Y-72001716D01*
X143617037Y-71369408D01*
X143634075Y-71432993D01*
X143699901Y-71547007D01*
X143792993Y-71640099D01*
X143907007Y-71705925D01*
X143970590Y-71722962D01*
X143338282Y-72355269D01*
X143338282Y-72355270D01*
X143392452Y-72394626D01*
X143392451Y-72394626D01*
X143401495Y-72399234D01*
X143452292Y-72447208D01*
X143469087Y-72515029D01*
X143446550Y-72581164D01*
X143401499Y-72620202D01*
X143392182Y-72624949D01*
X143220213Y-72749890D01*
X143069890Y-72900213D01*
X142944951Y-73072179D01*
X142848444Y-73261585D01*
X142782753Y-73463760D01*
X142773250Y-73523760D01*
X142749500Y-73673713D01*
X142749500Y-73886287D01*
X142782754Y-74096243D01*
X142802249Y-74156243D01*
X142848444Y-74298414D01*
X142944951Y-74487820D01*
X143069890Y-74659786D01*
X143220213Y-74810109D01*
X143392182Y-74935050D01*
X143400946Y-74939516D01*
X143451742Y-74987491D01*
X143468536Y-75055312D01*
X143445998Y-75121447D01*
X143400946Y-75160484D01*
X143392182Y-75164949D01*
X143220213Y-75289890D01*
X143069890Y-75440213D01*
X142944951Y-75612179D01*
X142848444Y-75801585D01*
X142782753Y-76003760D01*
X142773250Y-76063760D01*
X142749500Y-76213713D01*
X142749500Y-76426287D01*
X142782754Y-76636243D01*
X142802249Y-76696243D01*
X142848444Y-76838414D01*
X142944951Y-77027820D01*
X143069890Y-77199786D01*
X143220213Y-77350109D01*
X143392182Y-77475050D01*
X143400946Y-77479516D01*
X143451742Y-77527491D01*
X143468536Y-77595312D01*
X143445998Y-77661447D01*
X143400946Y-77700484D01*
X143392182Y-77704949D01*
X143220213Y-77829890D01*
X143069890Y-77980213D01*
X142944951Y-78152179D01*
X142848444Y-78341585D01*
X142782753Y-78543760D01*
X142749500Y-78753713D01*
X142749500Y-78966286D01*
X142770662Y-79099901D01*
X142782754Y-79176243D01*
X142806719Y-79250000D01*
X142848444Y-79378414D01*
X142944951Y-79567820D01*
X143069890Y-79739786D01*
X143220213Y-79890109D01*
X143392182Y-80015050D01*
X143400946Y-80019516D01*
X143451742Y-80067491D01*
X143468536Y-80135312D01*
X143445998Y-80201447D01*
X143400946Y-80240484D01*
X143392182Y-80244949D01*
X143220213Y-80369890D01*
X143069890Y-80520213D01*
X142944951Y-80692179D01*
X142848444Y-80881585D01*
X142782753Y-81083760D01*
X142749500Y-81293713D01*
X142749500Y-81506287D01*
X142782754Y-81716243D01*
X142802249Y-81776243D01*
X142848444Y-81918414D01*
X142944951Y-82107820D01*
X143069890Y-82279786D01*
X143220213Y-82430109D01*
X143392182Y-82555050D01*
X143400946Y-82559516D01*
X143451742Y-82607491D01*
X143468536Y-82675312D01*
X143445998Y-82741447D01*
X143400946Y-82780484D01*
X143392182Y-82784949D01*
X143220213Y-82909890D01*
X143069890Y-83060213D01*
X142944951Y-83232179D01*
X142848444Y-83421585D01*
X142782753Y-83623760D01*
X142749500Y-83833713D01*
X142749500Y-84046287D01*
X142782754Y-84256243D01*
X142802249Y-84316243D01*
X142848444Y-84458414D01*
X142944951Y-84647820D01*
X143069890Y-84819786D01*
X143220213Y-84970109D01*
X143392182Y-85095050D01*
X143400946Y-85099516D01*
X143451742Y-85147491D01*
X143468536Y-85215312D01*
X143445998Y-85281447D01*
X143400946Y-85320484D01*
X143392182Y-85324949D01*
X143220213Y-85449890D01*
X143069890Y-85600213D01*
X142944951Y-85772179D01*
X142848444Y-85961585D01*
X142782753Y-86163760D01*
X142754710Y-86340819D01*
X142749500Y-86373713D01*
X142749500Y-86586287D01*
X142782754Y-86796243D01*
X142844882Y-86987453D01*
X142848444Y-86998414D01*
X142944951Y-87187820D01*
X143069890Y-87359786D01*
X143220213Y-87510109D01*
X143392182Y-87635050D01*
X143400946Y-87639516D01*
X143451742Y-87687491D01*
X143468536Y-87755312D01*
X143445998Y-87821447D01*
X143400946Y-87860484D01*
X143392182Y-87864949D01*
X143220213Y-87989890D01*
X143069890Y-88140213D01*
X142944951Y-88312179D01*
X142848444Y-88501585D01*
X142782753Y-88703760D01*
X142749500Y-88913713D01*
X142749500Y-89126286D01*
X142775297Y-89289166D01*
X142782754Y-89336243D01*
X142824396Y-89464404D01*
X142848444Y-89538414D01*
X142944951Y-89727820D01*
X143069890Y-89899786D01*
X143220213Y-90050109D01*
X143392182Y-90175050D01*
X143400946Y-90179516D01*
X143451742Y-90227491D01*
X143468536Y-90295312D01*
X143445998Y-90361447D01*
X143400946Y-90400484D01*
X143392182Y-90404949D01*
X143220213Y-90529890D01*
X143069890Y-90680213D01*
X142944951Y-90852179D01*
X142848444Y-91041585D01*
X142782753Y-91243760D01*
X142760562Y-91383869D01*
X142749500Y-91453713D01*
X142749500Y-91666287D01*
X142754840Y-91700000D01*
X142765265Y-91765826D01*
X142782754Y-91876243D01*
X142828206Y-92016130D01*
X142848444Y-92078414D01*
X142944951Y-92267820D01*
X143069890Y-92439786D01*
X143220213Y-92590109D01*
X143392182Y-92715050D01*
X143400946Y-92719516D01*
X143451742Y-92767491D01*
X143468536Y-92835312D01*
X143445998Y-92901447D01*
X143400946Y-92940484D01*
X143392182Y-92944949D01*
X143220213Y-93069890D01*
X143069890Y-93220213D01*
X142944951Y-93392179D01*
X142848444Y-93581585D01*
X142782753Y-93783760D01*
X142749500Y-93993713D01*
X142749500Y-94206287D01*
X142782754Y-94416243D01*
X142802249Y-94476243D01*
X142848444Y-94618414D01*
X142944951Y-94807820D01*
X143069890Y-94979786D01*
X143220213Y-95130109D01*
X143392182Y-95255050D01*
X143400946Y-95259516D01*
X143451742Y-95307491D01*
X143468536Y-95375312D01*
X143445998Y-95441447D01*
X143400946Y-95480484D01*
X143392182Y-95484949D01*
X143220213Y-95609890D01*
X143069890Y-95760213D01*
X142944951Y-95932179D01*
X142848444Y-96121585D01*
X142848443Y-96121587D01*
X142848443Y-96121588D01*
X142834016Y-96165990D01*
X142782753Y-96323760D01*
X142749500Y-96533713D01*
X142749500Y-96746286D01*
X142775025Y-96907448D01*
X142782754Y-96956243D01*
X142837277Y-97124048D01*
X142848444Y-97158414D01*
X142944951Y-97347820D01*
X143069890Y-97519786D01*
X143220213Y-97670109D01*
X143392182Y-97795050D01*
X143400946Y-97799516D01*
X143451742Y-97847491D01*
X143468536Y-97915312D01*
X143445998Y-97981447D01*
X143400946Y-98020484D01*
X143392182Y-98024949D01*
X143220213Y-98149890D01*
X143069890Y-98300213D01*
X142944951Y-98472179D01*
X142848444Y-98661585D01*
X142782753Y-98863760D01*
X142750643Y-99066498D01*
X142749500Y-99073713D01*
X142749500Y-99286287D01*
X142782754Y-99496243D01*
X142835694Y-99659176D01*
X142848444Y-99698414D01*
X142944951Y-99887820D01*
X143069890Y-100059786D01*
X143220213Y-100210109D01*
X143392182Y-100335050D01*
X143400946Y-100339516D01*
X143451742Y-100387491D01*
X143468536Y-100455312D01*
X143445998Y-100521447D01*
X143400946Y-100560484D01*
X143392182Y-100564949D01*
X143220213Y-100689890D01*
X143069890Y-100840213D01*
X142944951Y-101012179D01*
X142848444Y-101201585D01*
X142782753Y-101403760D01*
X142760562Y-101543869D01*
X142749500Y-101613713D01*
X142749500Y-101826287D01*
X142754840Y-101860000D01*
X142765265Y-101925826D01*
X142782754Y-102036243D01*
X142828206Y-102176130D01*
X142848444Y-102238414D01*
X142944951Y-102427820D01*
X143069890Y-102599786D01*
X143183430Y-102713326D01*
X143216915Y-102774649D01*
X143211931Y-102844341D01*
X143170059Y-102900274D01*
X143139083Y-102917189D01*
X143007669Y-102966203D01*
X143007664Y-102966206D01*
X142892455Y-103052452D01*
X142892452Y-103052455D01*
X142806206Y-103167664D01*
X142806202Y-103167671D01*
X142755908Y-103302517D01*
X142749501Y-103362116D01*
X142749501Y-103362123D01*
X142749500Y-103362135D01*
X142749500Y-105157870D01*
X142749501Y-105157876D01*
X142755908Y-105217483D01*
X142806202Y-105352328D01*
X142806206Y-105352335D01*
X142892452Y-105467544D01*
X142892455Y-105467547D01*
X143007664Y-105553793D01*
X143007671Y-105553797D01*
X143142517Y-105604091D01*
X143142516Y-105604091D01*
X143149444Y-105604835D01*
X143202127Y-105610500D01*
X144997872Y-105610499D01*
X145057483Y-105604091D01*
X145192331Y-105553796D01*
X145307546Y-105467546D01*
X145393796Y-105352331D01*
X145444091Y-105217483D01*
X145450500Y-105157873D01*
X145450499Y-103362128D01*
X145444091Y-103302517D01*
X145416175Y-103227671D01*
X145393797Y-103167671D01*
X145393793Y-103167664D01*
X145307547Y-103052455D01*
X145307544Y-103052452D01*
X145192335Y-102966206D01*
X145192328Y-102966202D01*
X145060917Y-102917189D01*
X145004983Y-102875318D01*
X144980566Y-102809853D01*
X144995418Y-102741580D01*
X145016563Y-102713332D01*
X145130104Y-102599792D01*
X145255051Y-102427816D01*
X145351557Y-102238412D01*
X145417246Y-102036243D01*
X145450500Y-101826287D01*
X145450500Y-101613713D01*
X145417246Y-101403757D01*
X145351557Y-101201588D01*
X145255051Y-101012184D01*
X145255049Y-101012181D01*
X145255048Y-101012179D01*
X145130109Y-100840213D01*
X144979786Y-100689890D01*
X144807820Y-100564951D01*
X144807115Y-100564591D01*
X144799054Y-100560485D01*
X144748259Y-100512512D01*
X144731463Y-100444692D01*
X144753999Y-100378556D01*
X144799054Y-100339515D01*
X144807816Y-100335051D01*
X144897209Y-100270104D01*
X144979786Y-100210109D01*
X144979788Y-100210106D01*
X144979792Y-100210104D01*
X145130104Y-100059792D01*
X145130106Y-100059788D01*
X145130109Y-100059786D01*
X145255048Y-99887820D01*
X145255047Y-99887820D01*
X145255051Y-99887816D01*
X145351557Y-99698412D01*
X145417246Y-99496243D01*
X145450500Y-99286287D01*
X145450500Y-99073713D01*
X145417246Y-98863757D01*
X145351557Y-98661588D01*
X145255051Y-98472184D01*
X145255049Y-98472181D01*
X145255048Y-98472179D01*
X145130109Y-98300213D01*
X144979786Y-98149890D01*
X144807820Y-98024951D01*
X144807115Y-98024591D01*
X144799054Y-98020485D01*
X144748259Y-97972512D01*
X144731463Y-97904692D01*
X144753999Y-97838556D01*
X144799054Y-97799515D01*
X144807816Y-97795051D01*
X144829789Y-97779086D01*
X144979786Y-97670109D01*
X144979788Y-97670106D01*
X144979792Y-97670104D01*
X145130104Y-97519792D01*
X145130106Y-97519788D01*
X145130109Y-97519786D01*
X145255048Y-97347820D01*
X145255047Y-97347820D01*
X145255051Y-97347816D01*
X145351557Y-97158412D01*
X145417246Y-96956243D01*
X145450500Y-96746287D01*
X145450500Y-96533713D01*
X145417246Y-96323757D01*
X145351557Y-96121588D01*
X145255051Y-95932184D01*
X145255049Y-95932181D01*
X145255048Y-95932179D01*
X145130109Y-95760213D01*
X144979786Y-95609890D01*
X144807820Y-95484951D01*
X144807115Y-95484591D01*
X144799054Y-95480485D01*
X144748259Y-95432512D01*
X144731463Y-95364692D01*
X144753999Y-95298556D01*
X144799054Y-95259515D01*
X144807816Y-95255051D01*
X144897209Y-95190104D01*
X144979786Y-95130109D01*
X144979788Y-95130106D01*
X144979792Y-95130104D01*
X145130104Y-94979792D01*
X145130106Y-94979788D01*
X145130109Y-94979786D01*
X145255048Y-94807820D01*
X145255047Y-94807820D01*
X145255051Y-94807816D01*
X145351557Y-94618412D01*
X145417246Y-94416243D01*
X145450500Y-94206287D01*
X145450500Y-93993713D01*
X145417246Y-93783757D01*
X145351557Y-93581588D01*
X145255051Y-93392184D01*
X145255049Y-93392181D01*
X145255048Y-93392179D01*
X145130109Y-93220213D01*
X144979786Y-93069890D01*
X144807820Y-92944951D01*
X144807115Y-92944591D01*
X144799054Y-92940485D01*
X144748259Y-92892512D01*
X144731463Y-92824692D01*
X144753999Y-92758556D01*
X144799054Y-92719515D01*
X144807816Y-92715051D01*
X144897209Y-92650104D01*
X144979786Y-92590109D01*
X144979788Y-92590106D01*
X144979792Y-92590104D01*
X145130104Y-92439792D01*
X145130106Y-92439788D01*
X145130109Y-92439786D01*
X145255048Y-92267820D01*
X145255047Y-92267820D01*
X145255051Y-92267816D01*
X145351557Y-92078412D01*
X145417246Y-91876243D01*
X145450500Y-91666287D01*
X145450500Y-91453713D01*
X145417246Y-91243757D01*
X145351557Y-91041588D01*
X145255051Y-90852184D01*
X145255049Y-90852181D01*
X145255048Y-90852179D01*
X145130109Y-90680213D01*
X144979786Y-90529890D01*
X144807820Y-90404951D01*
X144807115Y-90404591D01*
X144799054Y-90400485D01*
X144748259Y-90352512D01*
X144731463Y-90284692D01*
X144753999Y-90218556D01*
X144799054Y-90179515D01*
X144807816Y-90175051D01*
X144897209Y-90110104D01*
X144979786Y-90050109D01*
X144979788Y-90050106D01*
X144979792Y-90050104D01*
X145130104Y-89899792D01*
X145130106Y-89899788D01*
X145130109Y-89899786D01*
X145246795Y-89739180D01*
X145255051Y-89727816D01*
X145351557Y-89538412D01*
X145417246Y-89336243D01*
X145450500Y-89126287D01*
X145450500Y-88913713D01*
X145417246Y-88703757D01*
X145351557Y-88501588D01*
X145255051Y-88312184D01*
X145255049Y-88312181D01*
X145255048Y-88312179D01*
X145130109Y-88140213D01*
X144979786Y-87989890D01*
X144807820Y-87864951D01*
X144805761Y-87863902D01*
X144799054Y-87860485D01*
X144748259Y-87812512D01*
X144731463Y-87744692D01*
X144753999Y-87678556D01*
X144799054Y-87639515D01*
X144807816Y-87635051D01*
X144897209Y-87570104D01*
X144979786Y-87510109D01*
X144979788Y-87510106D01*
X144979792Y-87510104D01*
X145130104Y-87359792D01*
X145130106Y-87359788D01*
X145130109Y-87359786D01*
X145255048Y-87187820D01*
X145255047Y-87187820D01*
X145255051Y-87187816D01*
X145351557Y-86998412D01*
X145417246Y-86796243D01*
X145450500Y-86586287D01*
X145450500Y-86373713D01*
X145417246Y-86163757D01*
X145351557Y-85961588D01*
X145255051Y-85772184D01*
X145255049Y-85772181D01*
X145255048Y-85772179D01*
X145130109Y-85600213D01*
X144979786Y-85449890D01*
X144807820Y-85324951D01*
X144807115Y-85324591D01*
X144799054Y-85320485D01*
X144748259Y-85272512D01*
X144731463Y-85204692D01*
X144753999Y-85138556D01*
X144799054Y-85099515D01*
X144807816Y-85095051D01*
X144897209Y-85030104D01*
X144979786Y-84970109D01*
X144979788Y-84970106D01*
X144979792Y-84970104D01*
X145130104Y-84819792D01*
X145130106Y-84819788D01*
X145130109Y-84819786D01*
X145255048Y-84647820D01*
X145255047Y-84647820D01*
X145255051Y-84647816D01*
X145351557Y-84458412D01*
X145417246Y-84256243D01*
X145450500Y-84046287D01*
X145450500Y-83833713D01*
X145417246Y-83623757D01*
X145351557Y-83421588D01*
X145255051Y-83232184D01*
X145255049Y-83232181D01*
X145255048Y-83232179D01*
X145130109Y-83060213D01*
X144979786Y-82909890D01*
X144807820Y-82784951D01*
X144807115Y-82784591D01*
X144799054Y-82780485D01*
X144748259Y-82732512D01*
X144731463Y-82664692D01*
X144753999Y-82598556D01*
X144799054Y-82559515D01*
X144807816Y-82555051D01*
X144897209Y-82490104D01*
X144979786Y-82430109D01*
X144979788Y-82430106D01*
X144979792Y-82430104D01*
X145130104Y-82279792D01*
X145130106Y-82279788D01*
X145130109Y-82279786D01*
X145255048Y-82107820D01*
X145255047Y-82107820D01*
X145255051Y-82107816D01*
X145351557Y-81918412D01*
X145417246Y-81716243D01*
X145450500Y-81506287D01*
X145450500Y-81293713D01*
X145417246Y-81083757D01*
X145351557Y-80881588D01*
X145255051Y-80692184D01*
X145255049Y-80692181D01*
X145255048Y-80692179D01*
X145130109Y-80520213D01*
X144979786Y-80369890D01*
X144807820Y-80244951D01*
X144807115Y-80244591D01*
X144799054Y-80240485D01*
X144748259Y-80192512D01*
X144731463Y-80124692D01*
X144753999Y-80058556D01*
X144799054Y-80019515D01*
X144807816Y-80015051D01*
X144897209Y-79950104D01*
X144979786Y-79890109D01*
X144979788Y-79890106D01*
X144979792Y-79890104D01*
X145130104Y-79739792D01*
X145130106Y-79739788D01*
X145130109Y-79739786D01*
X145255048Y-79567820D01*
X145255047Y-79567820D01*
X145255051Y-79567816D01*
X145351557Y-79378412D01*
X145417246Y-79176243D01*
X145450500Y-78966287D01*
X145450500Y-78753713D01*
X145417246Y-78543757D01*
X145351557Y-78341588D01*
X145255051Y-78152184D01*
X145255049Y-78152181D01*
X145255048Y-78152179D01*
X145130109Y-77980213D01*
X144979786Y-77829890D01*
X144807820Y-77704951D01*
X144807115Y-77704591D01*
X144799054Y-77700485D01*
X144748259Y-77652512D01*
X144731463Y-77584692D01*
X144753999Y-77518556D01*
X144799054Y-77479515D01*
X144807816Y-77475051D01*
X144897209Y-77410104D01*
X144979786Y-77350109D01*
X144979788Y-77350106D01*
X144979792Y-77350104D01*
X145130104Y-77199792D01*
X145130106Y-77199788D01*
X145130109Y-77199786D01*
X145255048Y-77027820D01*
X145255047Y-77027820D01*
X145255051Y-77027816D01*
X145351557Y-76838412D01*
X145417246Y-76636243D01*
X145450500Y-76426287D01*
X145450500Y-76213713D01*
X145417246Y-76003757D01*
X145351557Y-75801588D01*
X145255051Y-75612184D01*
X145255049Y-75612181D01*
X145255048Y-75612179D01*
X145130109Y-75440213D01*
X144979786Y-75289890D01*
X144807820Y-75164951D01*
X144807115Y-75164591D01*
X144799054Y-75160485D01*
X144748259Y-75112512D01*
X144731463Y-75044692D01*
X144753999Y-74978556D01*
X144799054Y-74939515D01*
X144807816Y-74935051D01*
X144897209Y-74870104D01*
X144979786Y-74810109D01*
X144979788Y-74810106D01*
X144979792Y-74810104D01*
X145130104Y-74659792D01*
X145130106Y-74659788D01*
X145130109Y-74659786D01*
X145255048Y-74487820D01*
X145255047Y-74487820D01*
X145255051Y-74487816D01*
X145351557Y-74298412D01*
X145417246Y-74096243D01*
X145450500Y-73886287D01*
X145450500Y-73673713D01*
X145417246Y-73463757D01*
X145351557Y-73261588D01*
X145255051Y-73072184D01*
X145255049Y-73072181D01*
X145255048Y-73072179D01*
X145130109Y-72900213D01*
X144979786Y-72749890D01*
X144807817Y-72624949D01*
X144798504Y-72620204D01*
X144747707Y-72572230D01*
X144730912Y-72504409D01*
X144753449Y-72438274D01*
X144798507Y-72399232D01*
X144807555Y-72394622D01*
X144861716Y-72355270D01*
X144861717Y-72355270D01*
X144229408Y-71722962D01*
X144292993Y-71705925D01*
X144407007Y-71640099D01*
X144500099Y-71547007D01*
X144565925Y-71432993D01*
X144582962Y-71369408D01*
X145215270Y-72001717D01*
X145215270Y-72001716D01*
X145254622Y-71947554D01*
X145351095Y-71758217D01*
X145416757Y-71556130D01*
X145416757Y-71556127D01*
X145450000Y-71346246D01*
X145450000Y-71133753D01*
X145416757Y-70923872D01*
X145416757Y-70923869D01*
X145351095Y-70721782D01*
X145254624Y-70532449D01*
X145215270Y-70478282D01*
X145215269Y-70478282D01*
X144582962Y-71110590D01*
X144565925Y-71047007D01*
X144500099Y-70932993D01*
X144407007Y-70839901D01*
X144292993Y-70774075D01*
X144229409Y-70757037D01*
X144861716Y-70124728D01*
X144807547Y-70085373D01*
X144807547Y-70085372D01*
X144798500Y-70080763D01*
X144747706Y-70032788D01*
X144730912Y-69964966D01*
X144753451Y-69898832D01*
X144798508Y-69859793D01*
X144807816Y-69855051D01*
X144911840Y-69779474D01*
X144979786Y-69730109D01*
X144979788Y-69730106D01*
X144979792Y-69730104D01*
X145130104Y-69579792D01*
X145130106Y-69579788D01*
X145130109Y-69579786D01*
X145255048Y-69407820D01*
X145255047Y-69407820D01*
X145255051Y-69407816D01*
X145351557Y-69218412D01*
X145417246Y-69016243D01*
X145450500Y-68806287D01*
X145450500Y-68653713D01*
X168149500Y-68653713D01*
X168149500Y-68866287D01*
X168159534Y-68929644D01*
X168173858Y-69020080D01*
X168182754Y-69076243D01*
X168234276Y-69234812D01*
X168248444Y-69278414D01*
X168344951Y-69467820D01*
X168469890Y-69639786D01*
X168620213Y-69790109D01*
X168792179Y-69915048D01*
X168792181Y-69915049D01*
X168792184Y-69915051D01*
X168801493Y-69919794D01*
X168852290Y-69967766D01*
X168869087Y-70035587D01*
X168846552Y-70101722D01*
X168801505Y-70140760D01*
X168792446Y-70145376D01*
X168792440Y-70145380D01*
X168738282Y-70184727D01*
X168738282Y-70184728D01*
X169370591Y-70817037D01*
X169307007Y-70834075D01*
X169192993Y-70899901D01*
X169099901Y-70992993D01*
X169034075Y-71107007D01*
X169017037Y-71170591D01*
X168384728Y-70538282D01*
X168384727Y-70538282D01*
X168345380Y-70592439D01*
X168248904Y-70781782D01*
X168183242Y-70983869D01*
X168183242Y-70983872D01*
X168150000Y-71193753D01*
X168150000Y-71406246D01*
X168183242Y-71616127D01*
X168183242Y-71616130D01*
X168248904Y-71818217D01*
X168345375Y-72007550D01*
X168384728Y-72061716D01*
X169017037Y-71429408D01*
X169034075Y-71492993D01*
X169099901Y-71607007D01*
X169192993Y-71700099D01*
X169307007Y-71765925D01*
X169370590Y-71782962D01*
X168738282Y-72415269D01*
X168738282Y-72415270D01*
X168792452Y-72454626D01*
X168792451Y-72454626D01*
X168801495Y-72459234D01*
X168852292Y-72507208D01*
X168869087Y-72575029D01*
X168846550Y-72641164D01*
X168801499Y-72680202D01*
X168792182Y-72684949D01*
X168620213Y-72809890D01*
X168469890Y-72960213D01*
X168344951Y-73132179D01*
X168248444Y-73321585D01*
X168182753Y-73523760D01*
X168159003Y-73673713D01*
X168149500Y-73733713D01*
X168149500Y-73946287D01*
X168182754Y-74156243D01*
X168228948Y-74298414D01*
X168248444Y-74358414D01*
X168344951Y-74547820D01*
X168469890Y-74719786D01*
X168620213Y-74870109D01*
X168792182Y-74995050D01*
X168800946Y-74999516D01*
X168851742Y-75047491D01*
X168868536Y-75115312D01*
X168845998Y-75181447D01*
X168800946Y-75220484D01*
X168792182Y-75224949D01*
X168620213Y-75349890D01*
X168469890Y-75500213D01*
X168344951Y-75672179D01*
X168248444Y-75861585D01*
X168182753Y-76063760D01*
X168159003Y-76213713D01*
X168149500Y-76273713D01*
X168149500Y-76486287D01*
X168182754Y-76696243D01*
X168228948Y-76838414D01*
X168248444Y-76898414D01*
X168344951Y-77087820D01*
X168469890Y-77259786D01*
X168620213Y-77410109D01*
X168792182Y-77535050D01*
X168800946Y-77539516D01*
X168851742Y-77587491D01*
X168868536Y-77655312D01*
X168845998Y-77721447D01*
X168800946Y-77760484D01*
X168792182Y-77764949D01*
X168620213Y-77889890D01*
X168469890Y-78040213D01*
X168344951Y-78212179D01*
X168248444Y-78401585D01*
X168182753Y-78603760D01*
X168159003Y-78753713D01*
X168149500Y-78813713D01*
X168149500Y-79026287D01*
X168182754Y-79236243D01*
X168228948Y-79378414D01*
X168248444Y-79438414D01*
X168344951Y-79627820D01*
X168469890Y-79799786D01*
X168620213Y-79950109D01*
X168792182Y-80075050D01*
X168800946Y-80079516D01*
X168851742Y-80127491D01*
X168868536Y-80195312D01*
X168845998Y-80261447D01*
X168800946Y-80300484D01*
X168792182Y-80304949D01*
X168620213Y-80429890D01*
X168469890Y-80580213D01*
X168344951Y-80752179D01*
X168248444Y-80941585D01*
X168182753Y-81143760D01*
X168159003Y-81293713D01*
X168149500Y-81353713D01*
X168149500Y-81566287D01*
X168182754Y-81776243D01*
X168228948Y-81918414D01*
X168248444Y-81978414D01*
X168344951Y-82167820D01*
X168469890Y-82339786D01*
X168620213Y-82490109D01*
X168792182Y-82615050D01*
X168800946Y-82619516D01*
X168851742Y-82667491D01*
X168868536Y-82735312D01*
X168845998Y-82801447D01*
X168800946Y-82840484D01*
X168792182Y-82844949D01*
X168620213Y-82969890D01*
X168469890Y-83120213D01*
X168344951Y-83292179D01*
X168248444Y-83481585D01*
X168182753Y-83683760D01*
X168159003Y-83833713D01*
X168149500Y-83893713D01*
X168149500Y-84106287D01*
X168182754Y-84316243D01*
X168228948Y-84458414D01*
X168248444Y-84518414D01*
X168344951Y-84707820D01*
X168469890Y-84879786D01*
X168620213Y-85030109D01*
X168792182Y-85155050D01*
X168800946Y-85159516D01*
X168851742Y-85207491D01*
X168868536Y-85275312D01*
X168845998Y-85341447D01*
X168800946Y-85380484D01*
X168792182Y-85384949D01*
X168620213Y-85509890D01*
X168469890Y-85660213D01*
X168344951Y-85832179D01*
X168248444Y-86021585D01*
X168182753Y-86223760D01*
X168164213Y-86340819D01*
X168149500Y-86433713D01*
X168149500Y-86646287D01*
X168182754Y-86856243D01*
X168246670Y-87052956D01*
X168248444Y-87058414D01*
X168344951Y-87247820D01*
X168469890Y-87419786D01*
X168620213Y-87570109D01*
X168792182Y-87695050D01*
X168800946Y-87699516D01*
X168851742Y-87747491D01*
X168868536Y-87815312D01*
X168845998Y-87881447D01*
X168800946Y-87920484D01*
X168792182Y-87924949D01*
X168620213Y-88049890D01*
X168469890Y-88200213D01*
X168344951Y-88372179D01*
X168248444Y-88561585D01*
X168182753Y-88763760D01*
X168149500Y-88973713D01*
X168149500Y-89186286D01*
X168165794Y-89289166D01*
X168182754Y-89396243D01*
X168228948Y-89538414D01*
X168248444Y-89598414D01*
X168344951Y-89787820D01*
X168469890Y-89959786D01*
X168620213Y-90110109D01*
X168792182Y-90235050D01*
X168800946Y-90239516D01*
X168851742Y-90287491D01*
X168868536Y-90355312D01*
X168845998Y-90421447D01*
X168800946Y-90460484D01*
X168792182Y-90464949D01*
X168620213Y-90589890D01*
X168469890Y-90740213D01*
X168344951Y-90912179D01*
X168248444Y-91101585D01*
X168182753Y-91303760D01*
X168170065Y-91383869D01*
X168149500Y-91513713D01*
X168149500Y-91726287D01*
X168182754Y-91936243D01*
X168235994Y-92100099D01*
X168248444Y-92138414D01*
X168344951Y-92327820D01*
X168469890Y-92499786D01*
X168620213Y-92650109D01*
X168792182Y-92775050D01*
X168800946Y-92779516D01*
X168851742Y-92827491D01*
X168868536Y-92895312D01*
X168845998Y-92961447D01*
X168800946Y-93000484D01*
X168792182Y-93004949D01*
X168620213Y-93129890D01*
X168469890Y-93280213D01*
X168344951Y-93452179D01*
X168248444Y-93641585D01*
X168182753Y-93843760D01*
X168159003Y-93993713D01*
X168149500Y-94053713D01*
X168149500Y-94266287D01*
X168182754Y-94476243D01*
X168228948Y-94618414D01*
X168248444Y-94678414D01*
X168344951Y-94867820D01*
X168469890Y-95039786D01*
X168620213Y-95190109D01*
X168792182Y-95315050D01*
X168800946Y-95319516D01*
X168851742Y-95367491D01*
X168868536Y-95435312D01*
X168845998Y-95501447D01*
X168800946Y-95540484D01*
X168792182Y-95544949D01*
X168620213Y-95669890D01*
X168469890Y-95820213D01*
X168344951Y-95992179D01*
X168248444Y-96181585D01*
X168182753Y-96383760D01*
X168149500Y-96593713D01*
X168149500Y-96806286D01*
X168177916Y-96985702D01*
X168182754Y-97016243D01*
X168235697Y-97179185D01*
X168248444Y-97218414D01*
X168344951Y-97407820D01*
X168469890Y-97579786D01*
X168620213Y-97730109D01*
X168792182Y-97855050D01*
X168800946Y-97859516D01*
X168851742Y-97907491D01*
X168868536Y-97975312D01*
X168845998Y-98041447D01*
X168800946Y-98080484D01*
X168792182Y-98084949D01*
X168620213Y-98209890D01*
X168469890Y-98360213D01*
X168344951Y-98532179D01*
X168248444Y-98721585D01*
X168182753Y-98923760D01*
X168149500Y-99133713D01*
X168149500Y-99346286D01*
X168179431Y-99535266D01*
X168182754Y-99556243D01*
X168247013Y-99754012D01*
X168248444Y-99758414D01*
X168344951Y-99947820D01*
X168469890Y-100119786D01*
X168620213Y-100270109D01*
X168792182Y-100395050D01*
X168800946Y-100399516D01*
X168851742Y-100447491D01*
X168868536Y-100515312D01*
X168845998Y-100581447D01*
X168800946Y-100620484D01*
X168792182Y-100624949D01*
X168620213Y-100749890D01*
X168469890Y-100900213D01*
X168344951Y-101072179D01*
X168248444Y-101261585D01*
X168182753Y-101463760D01*
X168170065Y-101543869D01*
X168149500Y-101673713D01*
X168149500Y-101886287D01*
X168182754Y-102096243D01*
X168235994Y-102260099D01*
X168248444Y-102298414D01*
X168344951Y-102487820D01*
X168469890Y-102659786D01*
X168583430Y-102773326D01*
X168616915Y-102834649D01*
X168611931Y-102904341D01*
X168570059Y-102960274D01*
X168539083Y-102977189D01*
X168407669Y-103026203D01*
X168407664Y-103026206D01*
X168292455Y-103112452D01*
X168292452Y-103112455D01*
X168206206Y-103227664D01*
X168206202Y-103227671D01*
X168155908Y-103362517D01*
X168149501Y-103422116D01*
X168149501Y-103422123D01*
X168149500Y-103422135D01*
X168149500Y-105217870D01*
X168149501Y-105217876D01*
X168155908Y-105277483D01*
X168206202Y-105412328D01*
X168206206Y-105412335D01*
X168292452Y-105527544D01*
X168292455Y-105527547D01*
X168407664Y-105613793D01*
X168407671Y-105613797D01*
X168542517Y-105664091D01*
X168542516Y-105664091D01*
X168549444Y-105664835D01*
X168602127Y-105670500D01*
X170397872Y-105670499D01*
X170457483Y-105664091D01*
X170592331Y-105613796D01*
X170707546Y-105527546D01*
X170793796Y-105412331D01*
X170844091Y-105277483D01*
X170850500Y-105217873D01*
X170850499Y-103422128D01*
X170844091Y-103362517D01*
X170843946Y-103362129D01*
X170793797Y-103227671D01*
X170793793Y-103227664D01*
X170707547Y-103112455D01*
X170707544Y-103112452D01*
X170592335Y-103026206D01*
X170592328Y-103026202D01*
X170460917Y-102977189D01*
X170404983Y-102935318D01*
X170380566Y-102869853D01*
X170395418Y-102801580D01*
X170416563Y-102773332D01*
X170530104Y-102659792D01*
X170655051Y-102487816D01*
X170751557Y-102298412D01*
X170817246Y-102096243D01*
X170850500Y-101886287D01*
X170850500Y-101673713D01*
X170817246Y-101463757D01*
X170751557Y-101261588D01*
X170655051Y-101072184D01*
X170655049Y-101072181D01*
X170655048Y-101072179D01*
X170530109Y-100900213D01*
X170379786Y-100749890D01*
X170207820Y-100624951D01*
X170207115Y-100624591D01*
X170199054Y-100620485D01*
X170148259Y-100572512D01*
X170131463Y-100504692D01*
X170153999Y-100438556D01*
X170199054Y-100399515D01*
X170207816Y-100395051D01*
X170284257Y-100339514D01*
X170379786Y-100270109D01*
X170379788Y-100270106D01*
X170379792Y-100270104D01*
X170530104Y-100119792D01*
X170530106Y-100119788D01*
X170530109Y-100119786D01*
X170655048Y-99947820D01*
X170655047Y-99947820D01*
X170655051Y-99947816D01*
X170751557Y-99758412D01*
X170817246Y-99556243D01*
X170850500Y-99346287D01*
X170850500Y-99133713D01*
X170817246Y-98923757D01*
X170751557Y-98721588D01*
X170655051Y-98532184D01*
X170655049Y-98532181D01*
X170655048Y-98532179D01*
X170530109Y-98360213D01*
X170379786Y-98209890D01*
X170207820Y-98084951D01*
X170207115Y-98084591D01*
X170199054Y-98080485D01*
X170148259Y-98032512D01*
X170131463Y-97964692D01*
X170153999Y-97898556D01*
X170183757Y-97868755D01*
X170191071Y-97863582D01*
X170207816Y-97855051D01*
X170233906Y-97836096D01*
X212277177Y-97836096D01*
X212277177Y-98083903D01*
X212277178Y-98083919D01*
X212309523Y-98329606D01*
X212373667Y-98568992D01*
X212468496Y-98797931D01*
X212468504Y-98797948D01*
X212592406Y-99012551D01*
X212592417Y-99012567D01*
X212743272Y-99209166D01*
X212743278Y-99209173D01*
X212918503Y-99384398D01*
X212918509Y-99384403D01*
X213115118Y-99535266D01*
X213115125Y-99535270D01*
X213329728Y-99659172D01*
X213329733Y-99659174D01*
X213329736Y-99659176D01*
X213329740Y-99659177D01*
X213329745Y-99659180D01*
X213558684Y-99754009D01*
X213558686Y-99754009D01*
X213558692Y-99754012D01*
X213798067Y-99818153D01*
X214043767Y-99850500D01*
X214043774Y-99850500D01*
X214291580Y-99850500D01*
X214291587Y-99850500D01*
X214537287Y-99818153D01*
X214776662Y-99754012D01*
X215005618Y-99659176D01*
X215220236Y-99535266D01*
X215416845Y-99384403D01*
X215592080Y-99209168D01*
X215742943Y-99012559D01*
X215760290Y-98982512D01*
X215810857Y-98934297D01*
X215879464Y-98921074D01*
X215944329Y-98947042D01*
X215975063Y-98982512D01*
X215992411Y-99012559D01*
X215992416Y-99012565D01*
X215992417Y-99012567D01*
X216143272Y-99209166D01*
X216143278Y-99209173D01*
X216318503Y-99384398D01*
X216318509Y-99384403D01*
X216515118Y-99535266D01*
X216515125Y-99535270D01*
X216729728Y-99659172D01*
X216729733Y-99659174D01*
X216729736Y-99659176D01*
X216729740Y-99659177D01*
X216729745Y-99659180D01*
X216958684Y-99754009D01*
X216958686Y-99754009D01*
X216958692Y-99754012D01*
X217198067Y-99818153D01*
X217443767Y-99850500D01*
X217443774Y-99850500D01*
X217691580Y-99850500D01*
X217691587Y-99850500D01*
X217937287Y-99818153D01*
X218176662Y-99754012D01*
X218405618Y-99659176D01*
X218620236Y-99535266D01*
X218816845Y-99384403D01*
X218992080Y-99209168D01*
X219142943Y-99012559D01*
X219266853Y-98797941D01*
X219361689Y-98568985D01*
X219425830Y-98329610D01*
X219458177Y-98083910D01*
X219458177Y-97836090D01*
X219425830Y-97590390D01*
X219361689Y-97351015D01*
X219344819Y-97310288D01*
X219266857Y-97122068D01*
X219266849Y-97122051D01*
X219142947Y-96907448D01*
X219142943Y-96907441D01*
X219019285Y-96746286D01*
X218992081Y-96710833D01*
X218992075Y-96710826D01*
X218816850Y-96535601D01*
X218816843Y-96535595D01*
X218620244Y-96384740D01*
X218620242Y-96384738D01*
X218620236Y-96384734D01*
X218620231Y-96384731D01*
X218620228Y-96384729D01*
X218405625Y-96260827D01*
X218405608Y-96260819D01*
X218176669Y-96165990D01*
X218133788Y-96154500D01*
X217937287Y-96101847D01*
X217937286Y-96101846D01*
X217937283Y-96101846D01*
X217691596Y-96069501D01*
X217691593Y-96069500D01*
X217691587Y-96069500D01*
X217443767Y-96069500D01*
X217443761Y-96069500D01*
X217443757Y-96069501D01*
X217198070Y-96101846D01*
X216958684Y-96165990D01*
X216729745Y-96260819D01*
X216729728Y-96260827D01*
X216515125Y-96384729D01*
X216515109Y-96384740D01*
X216318510Y-96535595D01*
X216318503Y-96535601D01*
X216143278Y-96710826D01*
X216143272Y-96710833D01*
X215992417Y-96907432D01*
X215992403Y-96907453D01*
X215975063Y-96937487D01*
X215924496Y-96985702D01*
X215855889Y-96998924D01*
X215791024Y-96972956D01*
X215760291Y-96937487D01*
X215742950Y-96907453D01*
X215742947Y-96907448D01*
X215742943Y-96907441D01*
X215619285Y-96746286D01*
X215592081Y-96710833D01*
X215592075Y-96710826D01*
X215416850Y-96535601D01*
X215416843Y-96535595D01*
X215220244Y-96384740D01*
X215220242Y-96384738D01*
X215220236Y-96384734D01*
X215220231Y-96384731D01*
X215220228Y-96384729D01*
X215005625Y-96260827D01*
X215005608Y-96260819D01*
X214776669Y-96165990D01*
X214733788Y-96154500D01*
X214537287Y-96101847D01*
X214537286Y-96101846D01*
X214537283Y-96101846D01*
X214291596Y-96069501D01*
X214291593Y-96069500D01*
X214291587Y-96069500D01*
X214043767Y-96069500D01*
X214043761Y-96069500D01*
X214043757Y-96069501D01*
X213798070Y-96101846D01*
X213558684Y-96165990D01*
X213329745Y-96260819D01*
X213329728Y-96260827D01*
X213115125Y-96384729D01*
X213115109Y-96384740D01*
X212918510Y-96535595D01*
X212918503Y-96535601D01*
X212743278Y-96710826D01*
X212743272Y-96710833D01*
X212592417Y-96907432D01*
X212592406Y-96907448D01*
X212468504Y-97122051D01*
X212468496Y-97122068D01*
X212373667Y-97351007D01*
X212309523Y-97590393D01*
X212277178Y-97836080D01*
X212277177Y-97836096D01*
X170233906Y-97836096D01*
X170379792Y-97730104D01*
X170530104Y-97579792D01*
X170530106Y-97579788D01*
X170530109Y-97579786D01*
X170655048Y-97407820D01*
X170655047Y-97407820D01*
X170655051Y-97407816D01*
X170751557Y-97218412D01*
X170817246Y-97016243D01*
X170850500Y-96806287D01*
X170850500Y-96593713D01*
X170817246Y-96383757D01*
X170751557Y-96181588D01*
X170655051Y-95992184D01*
X170655049Y-95992181D01*
X170655048Y-95992179D01*
X170530109Y-95820213D01*
X170379786Y-95669890D01*
X170207820Y-95544951D01*
X170207115Y-95544591D01*
X170199054Y-95540485D01*
X170148259Y-95492512D01*
X170131463Y-95424692D01*
X170153999Y-95358556D01*
X170199054Y-95319515D01*
X170207816Y-95315051D01*
X170284257Y-95259514D01*
X170379786Y-95190109D01*
X170379788Y-95190106D01*
X170379792Y-95190104D01*
X170530104Y-95039792D01*
X170530106Y-95039788D01*
X170530109Y-95039786D01*
X170655048Y-94867820D01*
X170655047Y-94867820D01*
X170655051Y-94867816D01*
X170751557Y-94678412D01*
X170817246Y-94476243D01*
X170850500Y-94266287D01*
X170850500Y-94053713D01*
X170817246Y-93843757D01*
X170751557Y-93641588D01*
X170655051Y-93452184D01*
X170655049Y-93452181D01*
X170655048Y-93452179D01*
X170530109Y-93280213D01*
X170379786Y-93129890D01*
X170207820Y-93004951D01*
X170207115Y-93004591D01*
X170199054Y-93000485D01*
X170148259Y-92952512D01*
X170131463Y-92884692D01*
X170153999Y-92818556D01*
X170199054Y-92779515D01*
X170207816Y-92775051D01*
X170284257Y-92719514D01*
X170379786Y-92650109D01*
X170379788Y-92650106D01*
X170379792Y-92650104D01*
X170530104Y-92499792D01*
X170530106Y-92499788D01*
X170530109Y-92499786D01*
X170655048Y-92327820D01*
X170655047Y-92327820D01*
X170655051Y-92327816D01*
X170751557Y-92138412D01*
X170817246Y-91936243D01*
X170850500Y-91726287D01*
X170850500Y-91513713D01*
X170817246Y-91303757D01*
X170751557Y-91101588D01*
X170655051Y-90912184D01*
X170655049Y-90912181D01*
X170655048Y-90912179D01*
X170530109Y-90740213D01*
X170379786Y-90589890D01*
X170207820Y-90464951D01*
X170207115Y-90464591D01*
X170199054Y-90460485D01*
X170148259Y-90412512D01*
X170131463Y-90344692D01*
X170153999Y-90278556D01*
X170199054Y-90239515D01*
X170207816Y-90235051D01*
X170284257Y-90179514D01*
X170379786Y-90110109D01*
X170379788Y-90110106D01*
X170379792Y-90110104D01*
X170530104Y-89959792D01*
X170530106Y-89959788D01*
X170530109Y-89959786D01*
X170655048Y-89787820D01*
X170655047Y-89787820D01*
X170655051Y-89787816D01*
X170751557Y-89598412D01*
X170817246Y-89396243D01*
X170850500Y-89186287D01*
X170850500Y-88973713D01*
X170817246Y-88763757D01*
X170751557Y-88561588D01*
X170655051Y-88372184D01*
X170655049Y-88372181D01*
X170655048Y-88372179D01*
X170530109Y-88200213D01*
X170379790Y-88049894D01*
X170379785Y-88049890D01*
X170329001Y-88012993D01*
X170328945Y-88012954D01*
X170207816Y-87924949D01*
X170191314Y-87916541D01*
X170190679Y-87916096D01*
X212277177Y-87916096D01*
X212277177Y-88163903D01*
X212277178Y-88163919D01*
X212304596Y-88372184D01*
X212309524Y-88409610D01*
X212320930Y-88452179D01*
X212373667Y-88648992D01*
X212468496Y-88877931D01*
X212468504Y-88877948D01*
X212592406Y-89092551D01*
X212592417Y-89092567D01*
X212743272Y-89289166D01*
X212743278Y-89289173D01*
X212918503Y-89464398D01*
X212918509Y-89464403D01*
X213115118Y-89615266D01*
X213115125Y-89615270D01*
X213329728Y-89739172D01*
X213329733Y-89739174D01*
X213329736Y-89739176D01*
X213329740Y-89739177D01*
X213329745Y-89739180D01*
X213558684Y-89834009D01*
X213558686Y-89834009D01*
X213558692Y-89834012D01*
X213798067Y-89898153D01*
X214043767Y-89930500D01*
X214043774Y-89930500D01*
X214291580Y-89930500D01*
X214291587Y-89930500D01*
X214537287Y-89898153D01*
X214776662Y-89834012D01*
X215005618Y-89739176D01*
X215220236Y-89615266D01*
X215416845Y-89464403D01*
X215592080Y-89289168D01*
X215742943Y-89092559D01*
X215760290Y-89062512D01*
X215810857Y-89014297D01*
X215879464Y-89001074D01*
X215944329Y-89027042D01*
X215975063Y-89062512D01*
X215992411Y-89092559D01*
X215992416Y-89092565D01*
X215992417Y-89092567D01*
X216143272Y-89289166D01*
X216143278Y-89289173D01*
X216318503Y-89464398D01*
X216318509Y-89464403D01*
X216515118Y-89615266D01*
X216515125Y-89615270D01*
X216729728Y-89739172D01*
X216729733Y-89739174D01*
X216729736Y-89739176D01*
X216729740Y-89739177D01*
X216729745Y-89739180D01*
X216958684Y-89834009D01*
X216958686Y-89834009D01*
X216958692Y-89834012D01*
X217198067Y-89898153D01*
X217443767Y-89930500D01*
X217443774Y-89930500D01*
X217691580Y-89930500D01*
X217691587Y-89930500D01*
X217937287Y-89898153D01*
X218176662Y-89834012D01*
X218405618Y-89739176D01*
X218620236Y-89615266D01*
X218816845Y-89464403D01*
X218992080Y-89289168D01*
X219142943Y-89092559D01*
X219266853Y-88877941D01*
X219361689Y-88648985D01*
X219425830Y-88409610D01*
X219458177Y-88163910D01*
X219458177Y-87916090D01*
X219425830Y-87670390D01*
X219361689Y-87431015D01*
X219357040Y-87419792D01*
X219266857Y-87202068D01*
X219266849Y-87202051D01*
X219142947Y-86987448D01*
X219142943Y-86987441D01*
X219099503Y-86930828D01*
X218992081Y-86790833D01*
X218992075Y-86790826D01*
X218816850Y-86615601D01*
X218816843Y-86615595D01*
X218620244Y-86464740D01*
X218620242Y-86464738D01*
X218620236Y-86464734D01*
X218620231Y-86464731D01*
X218620228Y-86464729D01*
X218405625Y-86340827D01*
X218405608Y-86340819D01*
X218176669Y-86245990D01*
X218093706Y-86223760D01*
X217937287Y-86181847D01*
X217937286Y-86181846D01*
X217937283Y-86181846D01*
X217691596Y-86149501D01*
X217691593Y-86149500D01*
X217691587Y-86149500D01*
X217443767Y-86149500D01*
X217443761Y-86149500D01*
X217443757Y-86149501D01*
X217198070Y-86181846D01*
X216958684Y-86245990D01*
X216729745Y-86340819D01*
X216729728Y-86340827D01*
X216515125Y-86464729D01*
X216515109Y-86464740D01*
X216318510Y-86615595D01*
X216318503Y-86615601D01*
X216143278Y-86790826D01*
X216143272Y-86790833D01*
X215992417Y-86987432D01*
X215992403Y-86987453D01*
X215975063Y-87017487D01*
X215924496Y-87065702D01*
X215855889Y-87078924D01*
X215791024Y-87052956D01*
X215760291Y-87017487D01*
X215742950Y-86987453D01*
X215742947Y-86987448D01*
X215742943Y-86987441D01*
X215699503Y-86930828D01*
X215592081Y-86790833D01*
X215592075Y-86790826D01*
X215416850Y-86615601D01*
X215416843Y-86615595D01*
X215220244Y-86464740D01*
X215220242Y-86464738D01*
X215220236Y-86464734D01*
X215220231Y-86464731D01*
X215220228Y-86464729D01*
X215005625Y-86340827D01*
X215005608Y-86340819D01*
X214776669Y-86245990D01*
X214693706Y-86223760D01*
X214537287Y-86181847D01*
X214537286Y-86181846D01*
X214537283Y-86181846D01*
X214291596Y-86149501D01*
X214291593Y-86149500D01*
X214291587Y-86149500D01*
X214043767Y-86149500D01*
X214043761Y-86149500D01*
X214043757Y-86149501D01*
X213798070Y-86181846D01*
X213558684Y-86245990D01*
X213329745Y-86340819D01*
X213329728Y-86340827D01*
X213115125Y-86464729D01*
X213115109Y-86464740D01*
X212918510Y-86615595D01*
X212918503Y-86615601D01*
X212743278Y-86790826D01*
X212743272Y-86790833D01*
X212592417Y-86987432D01*
X212592406Y-86987448D01*
X212468504Y-87202051D01*
X212468496Y-87202068D01*
X212373667Y-87431007D01*
X212309523Y-87670393D01*
X212277178Y-87916080D01*
X212277177Y-87916096D01*
X170190679Y-87916096D01*
X170184204Y-87911560D01*
X170167599Y-87890777D01*
X170148259Y-87872512D01*
X170146126Y-87863902D01*
X170140591Y-87856974D01*
X170137857Y-87830512D01*
X170131463Y-87804692D01*
X170134323Y-87796297D01*
X170133412Y-87787474D01*
X170145418Y-87763735D01*
X170153999Y-87738556D01*
X170161397Y-87732144D01*
X170164948Y-87725126D01*
X170179089Y-87716815D01*
X170199054Y-87699515D01*
X170207816Y-87695051D01*
X170284257Y-87639514D01*
X170379786Y-87570109D01*
X170379788Y-87570106D01*
X170379792Y-87570104D01*
X170530104Y-87419792D01*
X170530106Y-87419788D01*
X170530109Y-87419786D01*
X170655048Y-87247820D01*
X170655047Y-87247820D01*
X170655051Y-87247816D01*
X170751557Y-87058412D01*
X170817246Y-86856243D01*
X170850500Y-86646287D01*
X170850500Y-86433713D01*
X170817246Y-86223757D01*
X170751557Y-86021588D01*
X170655051Y-85832184D01*
X170655049Y-85832181D01*
X170655048Y-85832179D01*
X170530109Y-85660213D01*
X170379786Y-85509890D01*
X170207820Y-85384951D01*
X170207115Y-85384591D01*
X170199054Y-85380485D01*
X170148259Y-85332512D01*
X170131463Y-85264692D01*
X170153999Y-85198556D01*
X170199054Y-85159515D01*
X170207816Y-85155051D01*
X170284257Y-85099514D01*
X170379786Y-85030109D01*
X170379788Y-85030106D01*
X170379792Y-85030104D01*
X170530104Y-84879792D01*
X170530106Y-84879788D01*
X170530109Y-84879786D01*
X170655048Y-84707820D01*
X170655047Y-84707820D01*
X170655051Y-84707816D01*
X170751557Y-84518412D01*
X170817246Y-84316243D01*
X170850500Y-84106287D01*
X170850500Y-83893713D01*
X170817246Y-83683757D01*
X170751557Y-83481588D01*
X170655051Y-83292184D01*
X170655049Y-83292181D01*
X170655048Y-83292179D01*
X170530109Y-83120213D01*
X170379786Y-82969890D01*
X170207820Y-82844951D01*
X170207115Y-82844591D01*
X170199054Y-82840485D01*
X170148259Y-82792512D01*
X170131463Y-82724692D01*
X170153999Y-82658556D01*
X170199054Y-82619515D01*
X170207816Y-82615051D01*
X170284257Y-82559514D01*
X170379786Y-82490109D01*
X170379788Y-82490106D01*
X170379792Y-82490104D01*
X170530104Y-82339792D01*
X170530106Y-82339788D01*
X170530109Y-82339786D01*
X170655048Y-82167820D01*
X170655047Y-82167820D01*
X170655051Y-82167816D01*
X170751557Y-81978412D01*
X170817246Y-81776243D01*
X170850500Y-81566287D01*
X170850500Y-81353713D01*
X170817246Y-81143757D01*
X170751557Y-80941588D01*
X170655051Y-80752184D01*
X170655049Y-80752181D01*
X170655048Y-80752179D01*
X170530109Y-80580213D01*
X170379786Y-80429890D01*
X170207820Y-80304951D01*
X170207115Y-80304591D01*
X170199054Y-80300485D01*
X170148259Y-80252512D01*
X170131463Y-80184692D01*
X170153999Y-80118556D01*
X170199054Y-80079515D01*
X170207816Y-80075051D01*
X170284257Y-80019514D01*
X170379786Y-79950109D01*
X170379788Y-79950106D01*
X170379792Y-79950104D01*
X170530104Y-79799792D01*
X170530106Y-79799788D01*
X170530109Y-79799786D01*
X170655048Y-79627820D01*
X170655047Y-79627820D01*
X170655051Y-79627816D01*
X170751557Y-79438412D01*
X170817246Y-79236243D01*
X170850500Y-79026287D01*
X170850500Y-78813713D01*
X170817246Y-78603757D01*
X170816719Y-78602135D01*
X182302151Y-78602135D01*
X182302151Y-80397870D01*
X182302152Y-80397876D01*
X182308559Y-80457483D01*
X182358853Y-80592328D01*
X182358857Y-80592335D01*
X182445103Y-80707544D01*
X182445106Y-80707547D01*
X182560315Y-80793793D01*
X182560322Y-80793797D01*
X182695168Y-80844091D01*
X182695167Y-80844091D01*
X182702095Y-80844835D01*
X182754778Y-80850500D01*
X184550523Y-80850499D01*
X184610134Y-80844091D01*
X184744982Y-80793796D01*
X184860197Y-80707546D01*
X184946447Y-80592331D01*
X184996742Y-80457483D01*
X185003151Y-80397873D01*
X185003150Y-79438414D01*
X185003150Y-78602155D01*
X199602651Y-78602155D01*
X199602651Y-79250000D01*
X200519639Y-79250000D01*
X200486726Y-79307007D01*
X200452651Y-79434174D01*
X200452651Y-79565826D01*
X200486726Y-79692993D01*
X200519639Y-79750000D01*
X199602651Y-79750000D01*
X199602651Y-80397844D01*
X199609052Y-80457372D01*
X199609054Y-80457379D01*
X199659296Y-80592086D01*
X199659300Y-80592093D01*
X199745460Y-80707187D01*
X199745463Y-80707190D01*
X199860557Y-80793350D01*
X199860564Y-80793354D01*
X199995271Y-80843596D01*
X199995278Y-80843598D01*
X200054806Y-80849999D01*
X200054823Y-80850000D01*
X200702651Y-80850000D01*
X200702651Y-79933012D01*
X200759658Y-79965925D01*
X200886825Y-80000000D01*
X201018477Y-80000000D01*
X201145644Y-79965925D01*
X201202651Y-79933012D01*
X201202651Y-80850000D01*
X201850479Y-80850000D01*
X201850495Y-80849999D01*
X201910023Y-80843598D01*
X201910030Y-80843596D01*
X202044737Y-80793354D01*
X202044744Y-80793350D01*
X202159838Y-80707190D01*
X202159841Y-80707187D01*
X202246001Y-80592093D01*
X202246005Y-80592086D01*
X202296247Y-80457379D01*
X202296249Y-80457372D01*
X202302650Y-80397844D01*
X202302651Y-80397827D01*
X202302651Y-79750000D01*
X201385663Y-79750000D01*
X201418576Y-79692993D01*
X201452651Y-79565826D01*
X201452651Y-79434174D01*
X201418576Y-79307007D01*
X201385663Y-79250000D01*
X202302651Y-79250000D01*
X202302651Y-78602172D01*
X202302650Y-78602155D01*
X202296249Y-78542627D01*
X202296247Y-78542620D01*
X202246005Y-78407913D01*
X202246001Y-78407906D01*
X202159841Y-78292812D01*
X202159838Y-78292809D01*
X202044744Y-78206649D01*
X202044737Y-78206645D01*
X201910030Y-78156403D01*
X201910023Y-78156401D01*
X201850495Y-78150000D01*
X201202651Y-78150000D01*
X201202651Y-79066988D01*
X201145644Y-79034075D01*
X201018477Y-79000000D01*
X200886825Y-79000000D01*
X200759658Y-79034075D01*
X200702651Y-79066988D01*
X200702651Y-78150000D01*
X200054806Y-78150000D01*
X199995278Y-78156401D01*
X199995271Y-78156403D01*
X199860564Y-78206645D01*
X199860557Y-78206649D01*
X199745463Y-78292809D01*
X199745460Y-78292812D01*
X199659300Y-78407906D01*
X199659296Y-78407913D01*
X199609054Y-78542620D01*
X199609052Y-78542627D01*
X199602651Y-78602155D01*
X185003150Y-78602155D01*
X185003150Y-78602129D01*
X185003149Y-78602123D01*
X185003148Y-78602116D01*
X184996742Y-78542517D01*
X184946535Y-78407906D01*
X184946448Y-78407671D01*
X184946444Y-78407664D01*
X184860198Y-78292455D01*
X184860195Y-78292452D01*
X184744986Y-78206206D01*
X184744979Y-78206202D01*
X184610133Y-78155908D01*
X184610134Y-78155908D01*
X184550534Y-78149501D01*
X184550532Y-78149500D01*
X184550524Y-78149500D01*
X184550515Y-78149500D01*
X182754780Y-78149500D01*
X182754774Y-78149501D01*
X182695167Y-78155908D01*
X182560322Y-78206202D01*
X182560315Y-78206206D01*
X182445106Y-78292452D01*
X182445103Y-78292455D01*
X182358857Y-78407664D01*
X182358853Y-78407671D01*
X182308559Y-78542517D01*
X182302152Y-78602116D01*
X182302152Y-78602123D01*
X182302151Y-78602135D01*
X170816719Y-78602135D01*
X170751557Y-78401588D01*
X170655051Y-78212184D01*
X170655049Y-78212181D01*
X170655048Y-78212179D01*
X170530109Y-78040213D01*
X170379786Y-77889890D01*
X170207820Y-77764951D01*
X170207115Y-77764591D01*
X170199054Y-77760485D01*
X170148259Y-77712512D01*
X170131463Y-77644692D01*
X170153999Y-77578556D01*
X170199054Y-77539515D01*
X170207816Y-77535051D01*
X170284257Y-77479514D01*
X170379786Y-77410109D01*
X170379788Y-77410106D01*
X170379792Y-77410104D01*
X170530104Y-77259792D01*
X170530106Y-77259788D01*
X170530109Y-77259786D01*
X170655048Y-77087820D01*
X170655047Y-77087820D01*
X170655051Y-77087816D01*
X170751557Y-76898412D01*
X170817246Y-76696243D01*
X170850500Y-76486287D01*
X170850500Y-76273713D01*
X170817246Y-76063757D01*
X170751557Y-75861588D01*
X170655051Y-75672184D01*
X170655049Y-75672181D01*
X170655048Y-75672179D01*
X170530109Y-75500213D01*
X170379786Y-75349890D01*
X170207820Y-75224951D01*
X170207115Y-75224591D01*
X170199054Y-75220485D01*
X170148259Y-75172512D01*
X170131463Y-75104692D01*
X170153999Y-75038556D01*
X170199054Y-74999515D01*
X170207816Y-74995051D01*
X170284257Y-74939514D01*
X170379786Y-74870109D01*
X170379788Y-74870106D01*
X170379792Y-74870104D01*
X170530104Y-74719792D01*
X170530106Y-74719788D01*
X170530109Y-74719786D01*
X170655048Y-74547820D01*
X170655047Y-74547820D01*
X170655051Y-74547816D01*
X170751557Y-74358412D01*
X170817246Y-74156243D01*
X170850500Y-73946287D01*
X170850500Y-73733713D01*
X170817246Y-73523757D01*
X170751557Y-73321588D01*
X170655051Y-73132184D01*
X170655049Y-73132181D01*
X170655048Y-73132179D01*
X170530109Y-72960213D01*
X170379786Y-72809890D01*
X170207817Y-72684949D01*
X170198504Y-72680204D01*
X170147707Y-72632230D01*
X170130912Y-72564409D01*
X170153449Y-72498274D01*
X170198507Y-72459232D01*
X170207555Y-72454622D01*
X170261716Y-72415270D01*
X170261717Y-72415270D01*
X169629408Y-71782962D01*
X169692993Y-71765925D01*
X169807007Y-71700099D01*
X169900099Y-71607007D01*
X169965925Y-71492993D01*
X169982962Y-71429409D01*
X170615270Y-72061717D01*
X170615270Y-72061716D01*
X170654622Y-72007554D01*
X170751095Y-71818217D01*
X170816757Y-71616130D01*
X170816757Y-71616127D01*
X170850000Y-71406246D01*
X170850000Y-71193753D01*
X170816757Y-70983872D01*
X170816757Y-70983869D01*
X170751095Y-70781782D01*
X170654624Y-70592449D01*
X170615270Y-70538282D01*
X170615269Y-70538282D01*
X169982962Y-71170590D01*
X169965925Y-71107007D01*
X169900099Y-70992993D01*
X169807007Y-70899901D01*
X169692993Y-70834075D01*
X169629409Y-70817037D01*
X170261716Y-70184728D01*
X170207547Y-70145373D01*
X170207547Y-70145372D01*
X170198500Y-70140763D01*
X170147706Y-70092788D01*
X170130912Y-70024966D01*
X170153451Y-69958832D01*
X170198508Y-69919793D01*
X170207816Y-69915051D01*
X170287007Y-69857515D01*
X170379786Y-69790109D01*
X170379788Y-69790106D01*
X170379792Y-69790104D01*
X170530104Y-69639792D01*
X170530106Y-69639788D01*
X170530109Y-69639786D01*
X170655048Y-69467820D01*
X170655047Y-69467820D01*
X170655051Y-69467816D01*
X170751557Y-69278412D01*
X170817246Y-69076243D01*
X170850500Y-68866287D01*
X170850500Y-68653713D01*
X170817246Y-68443757D01*
X170751557Y-68241588D01*
X170679406Y-68099983D01*
X182299500Y-68099983D01*
X182299500Y-68099991D01*
X182299500Y-68699999D01*
X182299501Y-69300000D01*
X182299501Y-69300018D01*
X182310000Y-69402796D01*
X182310001Y-69402799D01*
X182365185Y-69569331D01*
X182365187Y-69569336D01*
X182400069Y-69625888D01*
X182457288Y-69718656D01*
X182581344Y-69842712D01*
X182730666Y-69934814D01*
X182897203Y-69989999D01*
X182999991Y-70000500D01*
X184200008Y-70000499D01*
X184302797Y-69989999D01*
X184469334Y-69934814D01*
X184618656Y-69842712D01*
X184742712Y-69718656D01*
X184834814Y-69569334D01*
X184889999Y-69402797D01*
X184900500Y-69300009D01*
X184900499Y-68597682D01*
X185800000Y-68597682D01*
X185800000Y-68802317D01*
X185832009Y-69004417D01*
X185895244Y-69199031D01*
X185988141Y-69381350D01*
X185988147Y-69381359D01*
X186020523Y-69425921D01*
X186020524Y-69425922D01*
X186700000Y-68746446D01*
X186700000Y-68752661D01*
X186727259Y-68854394D01*
X186779920Y-68945606D01*
X186854394Y-69020080D01*
X186945606Y-69072741D01*
X187047339Y-69100000D01*
X187053553Y-69100000D01*
X186374076Y-69779474D01*
X186418650Y-69811859D01*
X186600968Y-69904755D01*
X186795582Y-69967990D01*
X186997683Y-70000000D01*
X187202317Y-70000000D01*
X187404417Y-69967990D01*
X187599031Y-69904755D01*
X187781349Y-69811859D01*
X187825921Y-69779474D01*
X187146447Y-69100000D01*
X187152661Y-69100000D01*
X187254394Y-69072741D01*
X187345606Y-69020080D01*
X187420080Y-68945606D01*
X187472741Y-68854394D01*
X187500000Y-68752661D01*
X187500000Y-68746447D01*
X188179474Y-69425921D01*
X188211859Y-69381349D01*
X188304755Y-69199031D01*
X188367989Y-69004418D01*
X188389292Y-68869926D01*
X188389292Y-68869924D01*
X188400000Y-68802318D01*
X188400000Y-68597682D01*
X188367990Y-68395582D01*
X188304755Y-68200968D01*
X188211859Y-68018650D01*
X188179474Y-67974077D01*
X188179474Y-67974076D01*
X187500000Y-68653551D01*
X187500000Y-68647339D01*
X187472741Y-68545606D01*
X187420080Y-68454394D01*
X187345606Y-68379920D01*
X187254394Y-68327259D01*
X187152661Y-68300000D01*
X187146446Y-68300000D01*
X187825922Y-67620524D01*
X187825921Y-67620523D01*
X187781359Y-67588147D01*
X187781350Y-67588141D01*
X187599030Y-67495244D01*
X187404417Y-67432009D01*
X187202317Y-67400000D01*
X186997683Y-67400000D01*
X186795582Y-67432009D01*
X186600968Y-67495244D01*
X186418644Y-67588143D01*
X186374077Y-67620523D01*
X186374077Y-67620524D01*
X187053554Y-68300000D01*
X187047339Y-68300000D01*
X186945606Y-68327259D01*
X186854394Y-68379920D01*
X186779920Y-68454394D01*
X186727259Y-68545606D01*
X186700000Y-68647339D01*
X186700000Y-68653553D01*
X186020524Y-67974077D01*
X186020523Y-67974077D01*
X185988143Y-68018644D01*
X185895244Y-68200968D01*
X185832009Y-68395582D01*
X185800000Y-68597682D01*
X184900499Y-68597682D01*
X184900499Y-68099992D01*
X184898050Y-68076022D01*
X184889999Y-67997203D01*
X184889998Y-67997200D01*
X184870565Y-67938556D01*
X184834814Y-67830666D01*
X184828363Y-67820208D01*
X184774500Y-67732881D01*
X184774499Y-67732880D01*
X184742712Y-67681344D01*
X184618656Y-67557288D01*
X184525775Y-67499999D01*
X184469336Y-67465187D01*
X184469331Y-67465185D01*
X184462743Y-67463002D01*
X184302797Y-67410001D01*
X184302795Y-67410000D01*
X184200010Y-67399500D01*
X182999998Y-67399500D01*
X182999981Y-67399501D01*
X182897203Y-67410000D01*
X182897200Y-67410001D01*
X182730668Y-67465185D01*
X182730663Y-67465187D01*
X182581342Y-67557289D01*
X182457289Y-67681342D01*
X182365187Y-67830663D01*
X182365185Y-67830668D01*
X182348769Y-67880208D01*
X182310001Y-67997203D01*
X182310001Y-67997204D01*
X182310000Y-67997204D01*
X182299500Y-68099983D01*
X170679406Y-68099983D01*
X170655051Y-68052184D01*
X170655049Y-68052181D01*
X170655048Y-68052179D01*
X170530109Y-67880213D01*
X170379786Y-67729890D01*
X170207820Y-67604951D01*
X170018414Y-67508444D01*
X170018413Y-67508443D01*
X170018412Y-67508443D01*
X169816243Y-67442754D01*
X169816241Y-67442753D01*
X169816240Y-67442753D01*
X169654957Y-67417208D01*
X169606287Y-67409500D01*
X169393713Y-67409500D01*
X169345042Y-67417208D01*
X169183760Y-67442753D01*
X169166248Y-67448443D01*
X169021629Y-67495433D01*
X168981585Y-67508444D01*
X168792179Y-67604951D01*
X168620213Y-67729890D01*
X168469890Y-67880213D01*
X168344951Y-68052179D01*
X168248444Y-68241585D01*
X168182753Y-68443760D01*
X168150858Y-68645136D01*
X168149500Y-68653713D01*
X145450500Y-68653713D01*
X145450500Y-68593713D01*
X145417246Y-68383757D01*
X145351557Y-68181588D01*
X145255051Y-67992184D01*
X145255049Y-67992181D01*
X145255048Y-67992179D01*
X145130109Y-67820213D01*
X144979786Y-67669890D01*
X144807820Y-67544951D01*
X144618414Y-67448444D01*
X144618413Y-67448443D01*
X144618412Y-67448443D01*
X144416243Y-67382754D01*
X144416241Y-67382753D01*
X144416240Y-67382753D01*
X144411574Y-67382014D01*
X209067677Y-67382014D01*
X209067677Y-67617985D01*
X209098476Y-67851914D01*
X209159547Y-68079837D01*
X209249837Y-68297819D01*
X209249842Y-68297828D01*
X209367821Y-68502171D01*
X209367822Y-68502172D01*
X209430398Y-68583723D01*
X210266635Y-67747487D01*
X210291655Y-67807890D01*
X210362789Y-67914351D01*
X210453326Y-68004888D01*
X210559787Y-68076022D01*
X210620188Y-68101041D01*
X209783952Y-68937277D01*
X209865504Y-68999854D01*
X209865505Y-68999855D01*
X210069848Y-69117834D01*
X210069857Y-69117839D01*
X210287840Y-69208129D01*
X210287838Y-69208129D01*
X210515762Y-69269200D01*
X210749691Y-69299999D01*
X210749706Y-69300000D01*
X210985648Y-69300000D01*
X210985662Y-69299999D01*
X211219591Y-69269200D01*
X211447514Y-69208129D01*
X211665496Y-69117839D01*
X211665505Y-69117834D01*
X211869858Y-68999850D01*
X211951400Y-68937279D01*
X211951400Y-68937276D01*
X211115164Y-68101041D01*
X211175567Y-68076022D01*
X211282028Y-68004888D01*
X211372565Y-67914351D01*
X211443699Y-67807890D01*
X211468718Y-67747487D01*
X212304953Y-68583723D01*
X212304956Y-68583723D01*
X212367527Y-68502181D01*
X212485511Y-68297828D01*
X212485516Y-68297819D01*
X212575806Y-68079837D01*
X212636877Y-67851914D01*
X212667676Y-67617985D01*
X212667677Y-67617971D01*
X212667677Y-67382028D01*
X212667676Y-67382014D01*
X212636877Y-67148085D01*
X212575806Y-66920162D01*
X212485516Y-66702180D01*
X212485511Y-66702171D01*
X212367532Y-66497828D01*
X212367525Y-66497817D01*
X212347963Y-66472324D01*
X212347960Y-66472321D01*
X212304954Y-66416275D01*
X211468718Y-67252511D01*
X211443699Y-67192110D01*
X211372565Y-67085649D01*
X211282028Y-66995112D01*
X211175567Y-66923978D01*
X211115165Y-66898958D01*
X211614139Y-66399983D01*
X214067177Y-66399983D01*
X214067177Y-68600001D01*
X214067178Y-68600018D01*
X214077677Y-68702796D01*
X214077678Y-68702799D01*
X214110656Y-68802318D01*
X214132863Y-68869334D01*
X214224965Y-69018656D01*
X214349021Y-69142712D01*
X214498343Y-69234814D01*
X214664880Y-69289999D01*
X214767668Y-69300500D01*
X216967685Y-69300499D01*
X217070474Y-69289999D01*
X217237011Y-69234814D01*
X217386333Y-69142712D01*
X217510389Y-69018656D01*
X217602491Y-68869334D01*
X217657676Y-68702797D01*
X217668177Y-68600009D01*
X217668176Y-66399992D01*
X217657676Y-66297203D01*
X217602491Y-66130666D01*
X217510389Y-65981344D01*
X217386333Y-65857288D01*
X217237011Y-65765186D01*
X217070474Y-65710001D01*
X217070472Y-65710000D01*
X216967687Y-65699500D01*
X214767675Y-65699500D01*
X214767658Y-65699501D01*
X214664880Y-65710000D01*
X214664877Y-65710001D01*
X214498345Y-65765185D01*
X214498340Y-65765187D01*
X214349019Y-65857289D01*
X214224966Y-65981342D01*
X214132864Y-66130663D01*
X214132863Y-66130666D01*
X214077678Y-66297203D01*
X214077678Y-66297204D01*
X214077677Y-66297204D01*
X214067177Y-66399983D01*
X211614139Y-66399983D01*
X211951400Y-66062721D01*
X211869849Y-66000145D01*
X211869848Y-66000144D01*
X211665505Y-65882165D01*
X211665496Y-65882160D01*
X211447513Y-65791870D01*
X211447515Y-65791870D01*
X211219591Y-65730799D01*
X210985662Y-65700000D01*
X210749691Y-65700000D01*
X210515762Y-65730799D01*
X210287839Y-65791870D01*
X210069857Y-65882160D01*
X210069848Y-65882165D01*
X209865505Y-66000144D01*
X209865495Y-66000150D01*
X209783952Y-66062720D01*
X209783952Y-66062721D01*
X210620189Y-66898958D01*
X210559787Y-66923978D01*
X210453326Y-66995112D01*
X210362789Y-67085649D01*
X210291655Y-67192110D01*
X210266635Y-67252512D01*
X209430398Y-66416275D01*
X209430397Y-66416275D01*
X209367827Y-66497818D01*
X209367821Y-66497828D01*
X209249842Y-66702171D01*
X209249837Y-66702180D01*
X209159547Y-66920162D01*
X209098476Y-67148085D01*
X209067677Y-67382014D01*
X144411574Y-67382014D01*
X144254957Y-67357208D01*
X144206287Y-67349500D01*
X143993713Y-67349500D01*
X143945042Y-67357208D01*
X143783760Y-67382753D01*
X143581585Y-67448444D01*
X143392179Y-67544951D01*
X143220213Y-67669890D01*
X143069890Y-67820213D01*
X142944951Y-67992179D01*
X142848444Y-68181585D01*
X142782753Y-68383760D01*
X142749500Y-68593713D01*
X126666021Y-68593713D01*
X126655051Y-68572184D01*
X126635741Y-68545606D01*
X126530109Y-68400213D01*
X126379786Y-68249890D01*
X126207820Y-68124951D01*
X126207115Y-68124591D01*
X126199054Y-68120485D01*
X126148259Y-68072512D01*
X126131463Y-68004692D01*
X126153999Y-67938556D01*
X126199054Y-67899515D01*
X126207816Y-67895051D01*
X126264932Y-67853554D01*
X126379786Y-67770109D01*
X126379788Y-67770106D01*
X126379792Y-67770104D01*
X126530104Y-67619792D01*
X126530106Y-67619788D01*
X126530109Y-67619786D01*
X126655048Y-67447820D01*
X126655047Y-67447820D01*
X126655051Y-67447816D01*
X126751557Y-67258412D01*
X126817246Y-67056243D01*
X126850500Y-66846287D01*
X126850500Y-66633713D01*
X126817246Y-66423757D01*
X126751557Y-66221588D01*
X126655051Y-66032184D01*
X126655049Y-66032181D01*
X126655048Y-66032179D01*
X126530109Y-65860213D01*
X126379786Y-65709890D01*
X126207820Y-65584951D01*
X126207115Y-65584591D01*
X126199054Y-65580485D01*
X126194915Y-65576575D01*
X126189437Y-65575031D01*
X126169799Y-65552855D01*
X126148259Y-65532512D01*
X126146890Y-65526985D01*
X126143116Y-65522723D01*
X126138584Y-65493446D01*
X126131463Y-65464692D01*
X126133299Y-65459303D01*
X126132428Y-65453676D01*
X126139780Y-65437106D01*
X220099500Y-65437106D01*
X220099500Y-65762893D01*
X220135974Y-66086604D01*
X220135976Y-66086620D01*
X220208467Y-66404226D01*
X220208471Y-66404238D01*
X220316066Y-66711725D01*
X220457413Y-67005234D01*
X220457415Y-67005237D01*
X220630739Y-67281081D01*
X220833857Y-67535783D01*
X221064217Y-67766143D01*
X221318919Y-67969261D01*
X221594763Y-68142585D01*
X221888278Y-68283935D01*
X222119217Y-68364744D01*
X222195761Y-68391528D01*
X222195773Y-68391532D01*
X222513383Y-68464024D01*
X222837106Y-68500499D01*
X222837107Y-68500500D01*
X222837111Y-68500500D01*
X223162893Y-68500500D01*
X223162893Y-68500499D01*
X223486617Y-68464024D01*
X223804227Y-68391532D01*
X224111722Y-68283935D01*
X224405237Y-68142585D01*
X224681081Y-67969261D01*
X224935783Y-67766143D01*
X225166143Y-67535783D01*
X225369261Y-67281081D01*
X225542585Y-67005237D01*
X225683935Y-66711722D01*
X225791532Y-66404227D01*
X225864024Y-66086617D01*
X225900500Y-65762889D01*
X225900500Y-65437111D01*
X225864024Y-65113383D01*
X225791532Y-64795773D01*
X225683935Y-64488278D01*
X225542585Y-64194763D01*
X225369261Y-63918919D01*
X225166143Y-63664217D01*
X224935783Y-63433857D01*
X224681081Y-63230739D01*
X224405237Y-63057415D01*
X224405234Y-63057413D01*
X224111725Y-62916066D01*
X223804238Y-62808471D01*
X223804226Y-62808467D01*
X223486620Y-62735976D01*
X223486604Y-62735974D01*
X223162893Y-62699500D01*
X223162889Y-62699500D01*
X222837111Y-62699500D01*
X222837107Y-62699500D01*
X222513395Y-62735974D01*
X222513379Y-62735976D01*
X222195773Y-62808467D01*
X222195761Y-62808471D01*
X221888274Y-62916066D01*
X221594765Y-63057413D01*
X221318920Y-63230738D01*
X221064217Y-63433856D01*
X220833856Y-63664217D01*
X220630738Y-63918920D01*
X220457413Y-64194765D01*
X220316066Y-64488274D01*
X220208471Y-64795761D01*
X220208467Y-64795773D01*
X220135976Y-65113379D01*
X220135974Y-65113395D01*
X220099500Y-65437106D01*
X126139780Y-65437106D01*
X126144444Y-65426595D01*
X126153999Y-65398556D01*
X126159062Y-65393652D01*
X126160767Y-65389811D01*
X126173129Y-65380028D01*
X126187190Y-65366412D01*
X126192925Y-65362638D01*
X126207816Y-65355051D01*
X126240069Y-65331617D01*
X126240075Y-65331614D01*
X126379785Y-65230109D01*
X126379783Y-65230109D01*
X126379792Y-65230104D01*
X126530104Y-65079792D01*
X126530106Y-65079788D01*
X126530109Y-65079786D01*
X126655048Y-64907820D01*
X126655047Y-64907820D01*
X126655051Y-64907816D01*
X126751557Y-64718412D01*
X126817246Y-64516243D01*
X126850500Y-64306287D01*
X126850500Y-64093713D01*
X126817246Y-63883757D01*
X126751557Y-63681588D01*
X126655051Y-63492184D01*
X126655049Y-63492181D01*
X126655048Y-63492179D01*
X126530109Y-63320213D01*
X126379786Y-63169890D01*
X126207820Y-63044951D01*
X126018414Y-62948444D01*
X126018413Y-62948443D01*
X126018412Y-62948443D01*
X125816243Y-62882754D01*
X125816241Y-62882753D01*
X125816240Y-62882753D01*
X125654957Y-62857208D01*
X125606287Y-62849500D01*
X125393713Y-62849500D01*
X125345042Y-62857208D01*
X125183760Y-62882753D01*
X124981585Y-62948444D01*
X124792179Y-63044951D01*
X124620213Y-63169890D01*
X124469890Y-63320213D01*
X124344951Y-63492179D01*
X124248444Y-63681585D01*
X124182753Y-63883760D01*
X124149500Y-64093713D01*
X92979091Y-64093713D01*
X92869261Y-63918919D01*
X92666143Y-63664217D01*
X92435783Y-63433857D01*
X92181081Y-63230739D01*
X91905237Y-63057415D01*
X91905234Y-63057413D01*
X91611725Y-62916066D01*
X91304238Y-62808471D01*
X91304226Y-62808467D01*
X90986620Y-62735976D01*
X90986604Y-62735974D01*
X90662893Y-62699500D01*
X90662889Y-62699500D01*
X90337111Y-62699500D01*
X90337107Y-62699500D01*
X90013395Y-62735974D01*
X90013379Y-62735976D01*
X89695773Y-62808467D01*
X89695761Y-62808471D01*
X89388274Y-62916066D01*
X89094765Y-63057413D01*
X88818920Y-63230738D01*
X88564217Y-63433856D01*
X88333856Y-63664217D01*
X88130738Y-63918920D01*
X87957413Y-64194765D01*
X87816066Y-64488274D01*
X87708471Y-64795761D01*
X87708467Y-64795773D01*
X87635976Y-65113379D01*
X87635974Y-65113395D01*
X87599500Y-65437106D01*
X87000500Y-65437106D01*
X87000500Y-62124500D01*
X87020185Y-62057461D01*
X87072989Y-62011706D01*
X87124500Y-62000500D01*
X226375500Y-62000500D01*
X226442539Y-62020185D01*
G37*
%TD.AperFunction*%
%TD*%
D28*
X92900000Y-131600000D02*
G75*
G02*
X88100000Y-131600000I-2400000J0D01*
G01*
X88100000Y-131600000D02*
G75*
G02*
X92900000Y-131600000I2400000J0D01*
G01*
X139500000Y-136000000D02*
X86500000Y-136000000D01*
X86500000Y-136000000D02*
X86500000Y-61500000D01*
X139500000Y-152500000D02*
X139500000Y-136000000D01*
X92900000Y-65600000D02*
G75*
G02*
X88100000Y-65600000I-2400000J0D01*
G01*
X88100000Y-65600000D02*
G75*
G02*
X92900000Y-65600000I2400000J0D01*
G01*
X86500000Y-61500000D02*
X227000000Y-61500000D01*
X174000000Y-136000000D02*
X174000000Y-152500000D01*
X225400000Y-65600000D02*
G75*
G02*
X220600000Y-65600000I-2400000J0D01*
G01*
X220600000Y-65600000D02*
G75*
G02*
X225400000Y-65600000I2400000J0D01*
G01*
X174000000Y-152500000D02*
X139500000Y-152500000D01*
X225400000Y-131600000D02*
G75*
G02*
X220600000Y-131600000I-2400000J0D01*
G01*
X220600000Y-131600000D02*
G75*
G02*
X225400000Y-131600000I2400000J0D01*
G01*
X227000000Y-136000000D02*
X174000000Y-136000000D01*
X227000000Y-61500000D02*
X227000000Y-136000000D01*
M02*
